{
.appVersion = "1246";
DisplayStrings = (
"an/a.001 \012eo/e.001",
"/e.001.002",
"/e.001",
"/e.001.002",
"/C.001 C",
"/_part.Qtail Q/Q.001 R",
"R/R.001",
"ononb/b.002/b.002.003 d/d.001 p/p.001 q/a.ss01 o/o.001 P/P.001 B/B.001",
"rn/r.001/n.001 on",
"G/G.001",
"D/D.001",
"U/U.001",
"a/a.ss01 g/g.001"
);
classes = (
{
automatic = 1;

glyphs = (
{
color = 8;
glyphname = A;
lastChange = "2019-08-19 13:53:20 +0000";
layers = (
{
anchors = (
{
name = bottom;
position = "{322, 0}";
},
{
name = ogonek;
position = "{645, 0}";
},
{
name = top;
position = "{434, 705}";
}
);
background = {
anchors = (
{
name = bottom;
position = "{320, 0}";
},
{
name = ogonek;
position = "{643, 0}";
},
{
name = top;
position = "{432, 705}";
}
);
paths = (
{
closed = 1;
nodes = (
"451 705 LINE",
"411 705 LINE",
"-4 0 LINE",
"41 0 LINE",
"161 204 LINE",
"131 195 LINE",
"567 195 LINE",
"542 204 LINE",
"597 0 LINE",
"642 0 LINE"
);
},
{
closed = 1;
nodes = (
"556 234 LINE",
"154 234 LINE",
"175 228 LINE",
"440 680 LINE",
"414 680 LINE",
"535 228 LINE"
);
}
);
};
layerId = "80A9362C-6FC3-40B9-AFF8-C1622415CC09";
paths = (
{
closed = 1;
nodes = (
"46 0 LINE",
"166 204 LINE",
"134 195 LINE",
"570 195 LINE",
"546 204 LINE",
"601 0 LINE",
"643 0 LINE",
"452 705 LINE",
"412 705 LINE",
"-3 0 LINE"
);
},
{
closed = 1;
nodes = (
"445 680 LINE",
"418 680 LINE",
"539 228 LINE",
"559 234 LINE",
"157 234 LINE",
"180 228 LINE"
);
}
);
width = 716;
},
{
anchors = (
{
name = bottom;
position = "{347, 0}";
},
{
name = ogonek;
position = "{681, 0}";
},
{
name = top;
position = "{457, 705}";
}
);
background = {
anchors = (
{
name = bottom;
position = "{347, 0}";
},
{
name = ogonek;
position = "{681, 0}";
},
{
name = top;
position = "{457, 705}";
}
);
paths = (
{
closed = 1;
nodes = (
"539 705 LINE",
"376 705 LINE",
"-69 0 LINE",
"137 0 LINE",
"249 192 LINE",
"163 134 LINE",
"571 134 LINE",
"503 192 LINE",
"555 0 LINE",
"761 0 LINE"
);
},
{
closed = 1;
nodes = (
"529 292 LINE",
"255 292 LINE",
"276 238 LINE",
"449 537 LINE",
"413 537 LINE",
"490 238 LINE"
);
}
);
};
layerId = "5B4126D3-DE9F-4159-B940-B7B1ABEC53A3";
paths = (
{
closed = 1;
nodes = (
"145 0 LINE",
"258 192 LINE",
"163 134 LINE",
"571 134 LINE",
"512 192 LINE",
"564 0 LINE",
"758 0 LINE",
"537 705 LINE",
"374 705 LINE",
"-72 0 LINE"
);
},
{
closed = 1;
nodes = (
"458 537 LINE",
"423 537 LINE",
"499 238 LINE",
"529 292 LINE",
"254 292 LINE",
"285 238 LINE"
);
}
);
width = 764;
}
);
leftKerningGroup = A;
rightKerningGroup = A;
unicode = 0041;
userData = {
anchors = (
);
b = {
};
com.typemytype.robofont.layerData = {
b = {
anchors = (
);
components = (
);
contours = (
{
points = (
{
segmentType = line;
smooth = 0;
x = 403;
y = 502;
},
{
segmentType = line;
smooth = 0;
x = 703;
y = 1275;
},
{
segmentType = line;
smooth = 0;
x = 705;
y = 1275;
},
{
segmentType = line;
smooth = 0;
x = 1004;
y = 502;
}
);
},
{
points = (
{
segmentType = curve;
smooth = 1;
x = 150;
y = 0;
},
{
smooth = 0;
x = 181;
y = 0;
},
{
smooth = 0;
x = 214;
y = 15;
},
{
segmentType = curve;
smooth = 1;
x = 229;
y = 53;
},
{
segmentType = line;
smooth = 0;
x = 356;
y = 373;
},
{
segmentType = line;
smooth = 0;
x = 1051;
y = 373;
},
{
segmentType = line;
smooth = 1;
x = 1179;
y = 53;
},
{
smooth = 0;
x = 1193;
y = 17;
},
{
smooth = 0;
x = 1228;
y = 0;
},
{
segmentType = curve;
smooth = 1;
x = 1260;
y = 0;
},
{
smooth = 0;
x = 1306;
y = 0;
},
{
smooth = 0;
x = 1354;
y = 31;
},
{
segmentType = curve;
smooth = 1;
x = 1354;
y = 80;
},
{
smooth = 0;
x = 1354;
y = 87;
},
{
smooth = 0;
x = 1352;
y = 97;
},
{
segmentType = curve;
smooth = 0;
x = 1349;
y = 108;
},
{
segmentType = line;
smooth = 1;
x = 871;
y = 1288;
},
{
smooth = 0;
x = 817;
y = 1420;
},
{
smooth = 0;
x = 777;
y = 1430;
},
{
segmentType = curve;
smooth = 1;
x = 710;
y = 1430;
},
{
smooth = 0;
x = 644;
y = 1430;
},
{
smooth = 0;
x = 596;
y = 1413;
},
{
segmentType = curve;
smooth = 1;
x = 542;
y = 1280;
},
{
segmentType = line;
smooth = 1;
x = 66;
y = 108;
},
{
smooth = 0;
x = 62;
y = 97;
},
{
smooth = 0;
x = 60;
y = 87;
},
{
segmentType = curve;
smooth = 1;
x = 60;
y = 78;
},
{
smooth = 0;
x = 60;
y = 32;
},
{
smooth = 0;
x = 106;
y = 0;
}
);
}
);
lib = {
};
name = A;
unicodes = (
);
width = 1414;
};
};
components = (
);
contours = {
};
lib = {
};
name = A;
points = {
};
segmentType = line;
unicodes = (
);
width = 1445;
x = 718;
y = 1232;
};
},
{
color = 1;
glyphname = AE;
lastChange = "2019-08-19 13:53:20 +0000";
layers = (
{
anchors = (
{
name = bottom;
position = "{449, 0}";
},
{
name = top;
position = "{560, 705}";
}
);
background = {
anchors = (
{
name = bottom;
position = "{448, 0}";
},
{
name = top;
position = "{559, 705}";
}
);
paths = (
{
closed = 1;
nodes = (
"10 0 LINE",
"166 207 LINE",
"145 195 LINE",
"540 195 LINE",
"522 207 LINE",
"532 0 LINE",
"882 0 LINE",
"889 39 LINE",
"554 39 LINE",
"572 20 LINE",
"554 348 LINE",
"540 338 LINE",
"916 338 LINE",
"922 377 LINE",
"538 377 LINE",
"553 366 LINE",
"537 690 LINE",
"526 666 LINE",
"988 666 LINE",
"994 705 LINE",
"495 705 LINE",
"-37 0 LINE"
);
},
{
closed = 1;
nodes = (
"179 224 LINE",
"518 676 LINE",
"497 676 LINE",
"521 225 LINE",
"528 234 LINE",
"171 234 LINE"
);
}
);
};
layerId = "80A9362C-6FC3-40B9-AFF8-C1622415CC09";
paths = (
{
closed = 1;
nodes = (
"10 0 LINE",
"166 207 LINE",
"146 195 LINE",
"541 195 LINE",
"523 207 LINE",
"533 0 LINE",
"883 0 LINE",
"889 38 LINE",
"554 38 LINE",
"571 19 LINE",
"554 348 LINE",
"540 338 LINE",
"917 338 LINE",
"923 377 LINE",
"539 377 LINE",
"553 366 LINE",
"537 691 LINE",
"526 667 LINE",
"989 667 LINE",
"995 705 LINE",
"496 705 LINE",
"-36 0 LINE"
);
},
{
closed = 1;
nodes = (
"520 677 LINE",
"499 677 LINE",
"522 225 LINE",
"529 234 LINE",
"171 234 LINE",
"179 224 LINE"
);
}
);
width = 972;
},
{
anchors = (
{
name = bottom;
position = "{446, 0}";
},
{
name = top;
position = "{558, 705}";
}
);
background = {
anchors = (
{
name = bottom;
position = "{450, 0}";
},
{
name = top;
position = "{562, 705}";
}
);
paths = (
{
closed = 1;
nodes = (
"106 0 LINE",
"247 187 LINE",
"165 134 LINE",
"543 134 LINE",
"491 195 LINE",
"503 0 LINE",
"920 0 LINE",
"945 158 LINE",
"620 158 LINE",
"678 105 LINE",
"663 336 LINE",
"614 279 LINE",
"941 279 LINE",
"966 437 LINE",
"603 437 LINE",
"661 380 LINE",
"648 589 LINE",
"589 547 LINE",
"1006 547 LINE",
"1031 705 LINE",
"456 705 LINE",
"-109 0 LINE"
);
},
{
closed = 1;
nodes = (
"288 242 LINE",
"505 530 LINE",
"469 530 LINE",
"489 235 LINE",
"538 292 LINE",
"287 292 LINE"
);
}
);
};
layerId = "5B4126D3-DE9F-4159-B940-B7B1ABEC53A3";
paths = (
{
closed = 1;
nodes = (
"102 0 LINE",
"243 187 LINE",
"161 134 LINE",
"539 134 LINE",
"487 195 LINE",
"499 0 LINE",
"916 0 LINE",
"941 158 LINE",
"616 158 LINE",
"674 105 LINE",
"659 336 LINE",
"610 279 LINE",
"937 279 LINE",
"962 437 LINE",
"599 437 LINE",
"657 380 LINE",
"644 589 LINE",
"585 547 LINE",
"1002 547 LINE",
"1027 705 LINE",
"452 705 LINE",
"-113 0 LINE"
);
},
{
closed = 1;
nodes = (
"534 292 LINE",
"283 292 LINE",
"284 242 LINE",
"501 530 LINE",
"465 530 LINE",
"485 235 LINE"
);
}
);
width = 1008;
}
);
leftKerningGroup = A;
rightKerningGroup = E;
rightMetricsKey = E;
unicode = 00C6;
userData = {
com.typemytype.robofont.layerData = {
b = {
anchors = (
);
components = (
);
contours = (
);
lib = {
};
name = AE;
unicodes = (
);
width = 1976;
};
};
};
},
{
color = 8;
glyphname = B;
lastChange = "2019-08-21 08:16:29 +0000";
layers = (
{
anchors = (
{
name = bottom;
position = "{299, 0}";
},
{
name = top;
position = "{410, 705}";
}
);
background = {
anchors = (
{
name = bottom;
position = "{298, 0}";
},
{
name = top;
position = "{409, 705}";
}
);
paths = (
{
closed = 1;
nodes = (
"541 370 OFFCURVE",
"609 431 OFFCURVE",
"623 520 CURVE SMOOTH",
"642 639 OFFCURVE",
"570 705 OFFCURVE",
"427 705 CURVE SMOOTH",
"169 705 LINE",
"57 0 LINE",
"328 0 LINE SMOOTH",
"474 0 OFFCURVE",
"567 65 OFFCURVE",
"587 191 CURVE SMOOTH",
"603 292 OFFCURVE",
"549 355 OFFCURVE",
"450 365 CURVE",
"448 351 LINE"
);
},
{
closed = 1;
nodes = (
"538 666 OFFCURVE",
"594 615 OFFCURVE",
"579 521 CURVE SMOOTH",
"564 427 OFFCURVE",
"492 376 OFFCURVE",
"372 376 CURVE SMOOTH",
"159 376 LINE",
"205 666 LINE",
"418 666 LINE SMOOTH"
);
},
{
closed = 1;
nodes = (
"106 39 LINE",
"153 337 LINE",
"381 337 LINE SMOOTH",
"504 337 OFFCURVE",
"558 290 OFFCURVE",
"542 188 CURVE SMOOTH",
"526 86 OFFCURVE",
"457 39 OFFCURVE",
"334 39 CURVE SMOOTH"
);
}
);
};
layerId = "80A9362C-6FC3-40B9-AFF8-C1622415CC09";
paths = (
{
closed = 1;
nodes = (
"348 0 LINE SMOOTH",
"505 0 OFFCURVE",
"590 75 OFFCURVE",
"590 212 CURVE SMOOTH",
"590 296 OFFCURVE",
"537 352 OFFCURVE",
"451 361 CURVE",
"449 349 LINE",
"559 365 OFFCURVE",
"627 436 OFFCURVE",
"627 540 CURVE SMOOTH",
"627 643 OFFCURVE",
"557 705 OFFCURVE",
"421 705 CURVE SMOOTH",
"169 705 LINE",
"58 0 LINE"
);
},
{
closed = 1;
nodes = (
"153 337 LINE",
"381 337 LINE SMOOTH",
"487 337 OFFCURVE",
"546 292 OFFCURVE",
"546 208 CURVE SMOOTH",
"546 96 OFFCURVE",
"481 39 OFFCURVE",
"352 39 CURVE SMOOTH",
"106 39 LINE"
);
},
{
closed = 1;
nodes = (
"205 666 LINE",
"416 666 LINE SMOOTH",
"529 666 OFFCURVE",
"583 622 OFFCURVE",
"583 540 CURVE SMOOTH",
"583 441 OFFCURVE",
"507 376 OFFCURVE",
"389 376 CURVE SMOOTH",
"159 376 LINE"
);
}
);
width = 669;
},
{
anchors = (
{
name = bottom;
position = "{313, 0}";
},
{
name = top;
position = "{424, 705}";
}
);
background = {
anchors = (
{
name = bottom;
position = "{313, 0}";
},
{
name = top;
position = "{424, 705}";
}
);
paths = (
{
closed = 1;
nodes = (
"625 379 OFFCURVE",
"684 441 OFFCURVE",
"697 523 CURVE SMOOTH",
"714 633 OFFCURVE",
"638 705 OFFCURVE",
"484 705 CURVE SMOOTH",
"131 705 LINE",
"20 0 LINE",
"382 0 LINE SMOOTH",
"537 0 OFFCURVE",
"645 78 OFFCURVE",
"665 201 CURVE SMOOTH",
"679 294 OFFCURVE",
"637 355 OFFCURVE",
"544 375 CURVE",
"541 358 LINE"
);
},
{
closed = 1;
nodes = (
"482 555 OFFCURVE",
"503 537 OFFCURVE",
"496 494 CURVE SMOOTH",
"489 452 OFFCURVE",
"462 433 OFFCURVE",
"403 433 CURVE SMOOTH",
"285 433 LINE",
"305 555 LINE",
"423 555 LINE SMOOTH"
);
},
{
closed = 1;
nodes = (
"241 150 LINE",
"262 283 LINE",
"399 283 LINE SMOOTH",
"458 283 OFFCURVE",
"479 260 OFFCURVE",
"472 217 CURVE SMOOTH",
"465 173 OFFCURVE",
"437 150 OFFCURVE",
"378 150 CURVE SMOOTH"
);
}
);
};
layerId = "5B4126D3-DE9F-4159-B940-B7B1ABEC53A3";
paths = (
{
closed = 1;
nodes = (
"397 0 LINE SMOOTH",
"561 0 OFFCURVE",
"667 80 OFFCURVE",
"667 216 CURVE SMOOTH",
"667 292 OFFCURVE",
"623 352 OFFCURVE",
"543 369 CURVE",
"540 357 LINE",
"635 377 OFFCURVE",
"698 440 OFFCURVE",
"698 534 CURVE SMOOTH",
"698 629 OFFCURVE",
"616 705 OFFCURVE",
"473 705 CURVE SMOOTH",
"130 705 LINE",
"18 0 LINE"
);
},
{
closed = 1;
nodes = (
"260 282 LINE",
"395 282 LINE SMOOTH",
"445 282 OFFCURVE",
"472 264 OFFCURVE",
"472 226 CURVE SMOOTH",
"472 179 OFFCURVE",
"444 150 OFFCURVE",
"384 150 CURVE SMOOTH",
"239 150 LINE"
);
},
{
closed = 1;
nodes = (
"304 555 LINE",
"428 555 LINE SMOOTH",
"480 555 OFFCURVE",
"502 537 OFFCURVE",
"502 507 CURVE SMOOTH",
"502 457 OFFCURVE",
"472 434 OFFCURVE",
"408 434 CURVE SMOOTH",
"284 434 LINE"
);
}
);
width = 707;
}
);
leftKerningGroup = H;
leftMetricsKey = H;
rightKerningGroup = B;
unicode = 0042;
userData = {
anchors = (
);
b = {
};
com.typemytype.robofont.layerData = {
b = {
anchors = (
);
components = (
);
contours = (
{
points = (
{
segmentType = curve;
smooth = 1;
x = 266;
y = 0;
},
{
segmentType = line;
smooth = 1;
x = 1035;
y = 0;
},
{
smooth = 0;
x = 1084;
y = 0;
},
{
smooth = 0;
x = 1108;
y = 36;
},
{
segmentType = curve;
smooth = 1;
x = 1108;
y = 73;
},
{
smooth = 0;
x = 1108;
y = 109;
},
{
smooth = 0;
x = 1084;
y = 145;
},
{
segmentType = curve;
smooth = 1;
x = 1035;
y = 145;
},
{
segmentType = line;
smooth = 0;
x = 353;
y = 145;
},
{
segmentType = line;
smooth = 0;
x = 353;
y = 662;
},
{
segmentType = line;
smooth = 1;
x = 975;
y = 662;
},
{
smooth = 0;
x = 1024;
y = 662;
},
{
smooth = 0;
x = 1049;
y = 698;
},
{
segmentType = curve;
smooth = 1;
x = 1049;
y = 734;
},
{
smooth = 0;
x = 1049;
y = 770;
},
{
smooth = 0;
x = 1026;
y = 806;
},
{
segmentType = curve;
smooth = 1;
x = 975;
y = 806;
},
{
segmentType = line;
smooth = 0;
x = 353;
y = 806;
},
{
segmentType = line;
smooth = 0;
x = 353;
y = 1281;
},
{
segmentType = line;
smooth = 1;
x = 1007;
y = 1281;
},
{
smooth = 0;
x = 1056;
y = 1281;
},
{
smooth = 0;
x = 1080;
y = 1317;
},
{
segmentType = curve;
smooth = 1;
x = 1080;
y = 1354;
},
{
smooth = 0;
x = 1080;
y = 1390;
},
{
smooth = 0;
x = 1056;
y = 1426;
},
{
segmentType = curve;
smooth = 1;
x = 1007;
y = 1426;
},
{
segmentType = line;
smooth = 1;
x = 261;
y = 1426;
},
{
smooth = 0;
x = 213;
y = 1426;
},
{
smooth = 0;
x = 178;
y = 1383;
},
{
segmentType = curve;
smooth = 1;
x = 178;
y = 1340;
},
{
segmentType = line;
smooth = 1;
x = 178;
y = 86;
},
{
smooth = 0;
x = 178;
y = 41;
},
{
smooth = 0;
x = 222;
y = 0;
}
);
}
);
lib = {
};
name = B;
unicodes = (
);
width = 1292;
};
};
components = (
);
contours = {
};
lib = {
};
name = B;
points = {
};
segmentType = curve;
unicodes = (
);
width = 1395;
x = 676;
y = 1260;
};
},
{
color = 0;
glyphname = C;
lastChange = "2019-08-20 14:58:41 +0000";
layers = (
{
anchors = (
{
name = bottom;
position = "{342, 0}";
},
{
name = top;
position = "{456, 705}";
}
);
background = {
anchors = (
{
name = bottom;
position = "{341, 0}";
},
{
name = top;
position = "{455, 705}";
}
);
paths = (
{
closed = 1;
nodes = (
"439 -8 OFFCURVE",
"526 24 OFFCURVE",
"594 87 CURVE",
"578 122 LINE",
"505 59 OFFCURVE",
"435 33 OFFCURVE",
"347 33 CURVE SMOOTH",
"175 33 OFFCURVE",
"97 150 OFFCURVE",
"129 353 CURVE SMOOTH",
"161 555 OFFCURVE",
"276 672 OFFCURVE",
"448 672 CURVE SMOOTH",
"536 672 OFFCURVE",
"598 646 OFFCURVE",
"651 583 CURVE",
"678 618 LINE",
"630 681 OFFCURVE",
"553 713 OFFCURVE",
"455 713 CURVE SMOOTH",
"257 713 OFFCURVE",
"120 576 OFFCURVE",
"84 353 CURVE SMOOTH",
"49 129 OFFCURVE",
"143 -8 OFFCURVE",
"341 -8 CURVE SMOOTH"
);
}
);
};
guideLines = (
{
angle = 233.427;
position = "{522, 398}";
}
);
layerId = "80A9362C-6FC3-40B9-AFF8-C1622415CC09";
paths = (
{
closed = 1;
nodes = (
"457 -9 OFFCURVE",
"535 20 OFFCURVE",
"598 75 CURVE",
"577 111 LINE",
"510 56 OFFCURVE",
"447 32 OFFCURVE",
"370 32 CURVE SMOOTH",
"210 32 OFFCURVE",
"125 123 OFFCURVE",
"125 282 CURVE SMOOTH",
"125 490 OFFCURVE",
"228 672 OFFCURVE",
"428 672 CURVE SMOOTH",
"526 672 OFFCURVE",
"593 641 OFFCURVE",
"650 570 CURVE",
"675 604 LINE",
"625 675 OFFCURVE",
"538 713 OFFCURVE",
"431 713 CURVE SMOOTH",
"206 713 OFFCURVE",
"81 517 OFFCURVE",
"81 281 CURVE SMOOTH",
"81 101 OFFCURVE",
"186 -9 OFFCURVE",
"369 -9 CURVE SMOOTH"
);
}
);
width = 672;
},
{
anchors = (
{
name = bottom;
position = "{369, 0}";
},
{
name = top;
position = "{479, 705}";
}
);
background = {
anchors = (
{
name = bottom;
position = "{362, 0}";
},
{
name = top;
position = "{472, 705}";
}
);
components = (
{
name = O;
}
);
};
guideLines = (
{
angle = 61.2388;
position = "{594, 381}";
}
);
layerId = "5B4126D3-DE9F-4159-B940-B7B1ABEC53A3";
paths = (
{
closed = 1;
nodes = (
"505 -12 OFFCURVE",
"593 14 OFFCURVE",
"647 53 CURVE",
"590 219 LINE",
"530 183 OFFCURVE",
"484 169 OFFCURVE",
"431 169 CURVE SMOOTH",
"326 169 OFFCURVE",
"275 219 OFFCURVE",
"275 321 CURVE SMOOTH",
"275 440 OFFCURVE",
"337 536 OFFCURVE",
"466 536 CURVE SMOOTH",
"530 536 OFFCURVE",
"586 514 OFFCURVE",
"648 456 CURVE",
"734 608 LINE",
"661 687 OFFCURVE",
"553 717 OFFCURVE",
"462 717 CURVE SMOOTH",
"218 717 OFFCURVE",
"57 540 OFFCURVE",
"57 315 CURVE SMOOTH",
"57 118 OFFCURVE",
"196 -12 OFFCURVE",
"420 -12 CURVE SMOOTH"
);
}
);
width = 701;
},
{
anchors = (
{
name = bottom;
position = "{364, 0}";
},
{
name = top;
position = "{474, 705}";
}
);
associatedMasterId = "5B4126D3-DE9F-4159-B940-B7B1ABEC53A3";
background = {
anchors = (
{
name = bottom;
position = "{364, 0}";
},
{
name = top;
position = "{474, 705}";
}
);
paths = (
{
closed = 1;
nodes = (
"480 -12 OFFCURVE",
"580 19 OFFCURVE",
"640 64 CURVE",
"606 227 LINE",
"540 187 OFFCURVE",
"481 168 OFFCURVE",
"423 168 CURVE SMOOTH",
"306 168 OFFCURVE",
"260 233 OFFCURVE",
"279 353 CURVE SMOOTH",
"298 472 OFFCURVE",
"365 537 OFFCURVE",
"482 537 CURVE SMOOTH",
"540 537 OFFCURVE",
"593 518 OFFCURVE",
"645 478 CURVE",
"731 641 LINE",
"685 686 OFFCURVE",
"595 717 OFFCURVE",
"503 717 CURVE SMOOTH",
"263 717 OFFCURVE",
"95 572 OFFCURVE",
"61 353 CURVE SMOOTH",
"26 133 OFFCURVE",
"148 -12 OFFCURVE",
"388 -12 CURVE SMOOTH"
);
}
);
};
layerId = "0A547E8D-7FEF-4293-9A13-65BD6254DD54";
name = "Aug 12 19, 14:15";
paths = (
{
closed = 1;
nodes = (
"494 -9 OFFCURVE",
"590 21 OFFCURVE",
"635 65 CURVE",
"584 211 LINE",
"514 173 OFFCURVE",
"459 154 OFFCURVE",
"407 154 CURVE SMOOTH",
"311 154 OFFCURVE",
"260 215 OFFCURVE",
"260 333 CURVE SMOOTH",
"260 467 OFFCURVE",
"326 551 OFFCURVE",
"448 551 CURVE SMOOTH",
"499 551 OFFCURVE",
"550 534 OFFCURVE",
"606 494 CURVE",
"680 640 LINE",
"615 688 OFFCURVE",
"530 714 OFFCURVE",
"437 714 CURVE SMOOTH",
"205 714 OFFCURVE",
"50 564 OFFCURVE",
"50 332 CURVE SMOOTH",
"50 123 OFFCURVE",
"184 -9 OFFCURVE",
"405 -9 CURVE SMOOTH"
);
}
);
width = 693;
}
);
leftKerningGroup = O;
leftMetricsKey = O;
rightKerningGroup = C;
unicode = 0043;
userData = {
anchors = (
);
b = {
};
com.typemytype.robofont.layerData = {
b = {
anchors = (
);
components = (
);
contours = (
);
lib = {
};
name = C;
unicodes = (
);
width = 1353.89001;
};
};
components = (
);
contours = (
);
lib = {
};
name = C;
unicodes = (
);
width = 1354;
};
},
{
color = 0;
glyphname = D;
lastChange = "2019-08-21 09:32:35 +0000";
layers = (
{
anchors = (
{
name = bottom;
position = "{325, 0}";
},
{
name = center;
position = "{192, 358}";
},
{
name = top;
position = "{436, 705}";
}
);
background = {
anchors = (
{
name = bottom;
position = "{324, 0}";
},
{
name = center;
position = "{191, 358}";
},
{
name = top;
position = "{435, 705}";
}
);
paths = (
{
closed = 1;
nodes = (
"274 0 LINE SMOOTH",
"495 0 OFFCURVE",
"639 123 OFFCURVE",
"675 353 CURVE SMOOTH",
"712 583 OFFCURVE",
"607 705 OFFCURVE",
"386 705 CURVE SMOOTH",
"169 705 LINE",
"57 0 LINE"
);
},
{
closed = 1;
nodes = (
"205 666 LINE",
"376 666 LINE SMOOTH",
"579 666 OFFCURVE",
"663 561 OFFCURVE",
"630 353 CURVE SMOOTH",
"597 145 OFFCURVE",
"480 39 OFFCURVE",
"277 39 CURVE SMOOTH",
"106 39 LINE"
);
}
);
};
layerId = "80A9362C-6FC3-40B9-AFF8-C1622415CC09";
paths = (
{
closed = 1;
nodes = (
"304 0 LINE SMOOTH",
"563 0 OFFCURVE",
"679 193 OFFCURVE",
"679 420 CURVE SMOOTH",
"679 603 OFFCURVE",
"564 705 OFFCURVE",
"364 705 CURVE SMOOTH",
"170 705 LINE",
"58 0 LINE"
);
},
{
closed = 1;
nodes = (
"205 666 LINE",
"359 666 LINE SMOOTH",
"541 666 OFFCURVE",
"634 581 OFFCURVE",
"634 421 CURVE SMOOTH",
"634 218 OFFCURVE",
"541 39 OFFCURVE",
"306 39 CURVE SMOOTH",
"106 39 LINE"
);
}
);
width = 726;
},
{
anchors = (
{
name = bottom;
position = "{353, 0}";
},
{
name = center;
position = "{228, 358}";
},
{
name = top;
position = "{464, 705}";
}
);
background = {
anchors = (
{
name = bottom;
position = "{354, 0}";
},
{
name = center;
position = "{229, 358}";
},
{
name = top;
position = "{465, 705}";
}
);
paths = (
{
closed = 1;
nodes = (
"323 0 LINE SMOOTH",
"572 0 OFFCURVE",
"735 130 OFFCURVE",
"771 353 CURVE SMOOTH",
"806 575 OFFCURVE",
"683 705 OFFCURVE",
"434 705 CURVE SMOOTH",
"131 705 LINE",
"20 0 LINE"
);
},
{
closed = 1;
nodes = (
"312 538 LINE",
"396 538 LINE SMOOTH",
"524 538 OFFCURVE",
"577 479 OFFCURVE",
"557 353 CURVE SMOOTH",
"537 227 OFFCURVE",
"466 167 OFFCURVE",
"337 167 CURVE SMOOTH",
"253 167 LINE"
);
}
);
};
layerId = "5B4126D3-DE9F-4159-B940-B7B1ABEC53A3";
paths = (
{
closed = 1;
nodes = (
"363 0 LINE SMOOTH",
"627 0 OFFCURVE",
"774 146 OFFCURVE",
"773 401 CURVE SMOOTH",
"772 581 OFFCURVE",
"636 705 OFFCURVE",
"404 705 CURVE SMOOTH",
"130 705 LINE",
"19 0 LINE"
);
},
{
closed = 1;
nodes = (
"311 538 LINE",
"394 538 LINE SMOOTH",
"503 538 OFFCURVE",
"559 486 OFFCURVE",
"559 390 CURVE SMOOTH",
"559 248 OFFCURVE",
"489 169 OFFCURVE",
"355 168 CURVE SMOOTH",
"252 167 LINE"
);
}
);
width = 797;
}
);
leftKerningGroup = H;
leftMetricsKey = H;
rightKerningGroup = O;
rightMetricsKey = O;
unicode = 0044;
userData = {
anchors = (
);
b = {
};
com.typemytype.robofont.layerData = {
b = {
anchors = (
);
components = (
);
contours = (
{
points = (
{
segmentType = curve;
smooth = 1;
x = 266;
y = 0;
},
{
segmentType = line;
smooth = 1;
x = 1035;
y = 0;
},
{
smooth = 0;
x = 1084;
y = 0;
},
{
smooth = 0;
x = 1108;
y = 34;
},
{
segmentType = curve;
smooth = 1;
x = 1108;
y = 71;
},
{
smooth = 0;
x = 1108;
y = 107;
},
{
smooth = 0;
x = 1084;
y = 141;
},
{
segmentType = curve;
smooth = 1;
x = 1035;
y = 141;
},
{
segmentType = line;
smooth = 0;
x = 356;
y = 141;
},
{
segmentType = line;
smooth = 0;
x = 356;
y = 665;
},
{
segmentType = line;
smooth = 1;
x = 975;
y = 665;
},
{
smooth = 0;
x = 1024;
y = 665;
},
{
smooth = 0;
x = 1049;
y = 698;
},
{
segmentType = curve;
smooth = 1;
x = 1049;
y = 734;
},
{
smooth = 0;
x = 1049;
y = 770;
},
{
smooth = 0;
x = 1026;
y = 803;
},
{
segmentType = curve;
smooth = 1;
x = 975;
y = 803;
},
{
segmentType = line;
smooth = 0;
x = 356;
y = 803;
},
{
segmentType = line;
smooth = 0;
x = 356;
y = 1285;
},
{
segmentType = line;
smooth = 1;
x = 1007;
y = 1285;
},
{
smooth = 0;
x = 1056;
y = 1285;
},
{
smooth = 0;
x = 1080;
y = 1319;
},
{
segmentType = curve;
smooth = 1;
x = 1080;
y = 1356;
},
{
smooth = 0;
x = 1080;
y = 1392;
},
{
smooth = 0;
x = 1056;
y = 1426;
},
{
segmentType = curve;
smooth = 1;
x = 1007;
y = 1426;
},
{
segmentType = line;
smooth = 1;
x = 261;
y = 1426;
},
{
smooth = 0;
x = 213;
y = 1426;
},
{
smooth = 0;
x = 178;
y = 1383;
},
{
segmentType = curve;
smooth = 1;
x = 178;
y = 1340;
},
{
segmentType = line;
smooth = 1;
x = 178;
y = 86;
},
{
smooth = 0;
x = 178;
y = 41;
},
{
smooth = 0;
x = 222;
y = 0;
}
);
}
);
lib = {
};
name = D;
unicodes = (
);
width = 1499;
};
};
components = (
);
contours = (
);
lib = {
};
name = D;
unicodes = (
);
width = 1535;
};
},
{
color = 8;
glyphname = E;
lastChange = "2019-08-19 13:53:20 +0000";
layers = (
{
anchors = (
{
name = bottom;
position = "{282, 0}";
},
{
name = ogonek;
position = "{452, 0}";
},
{
name = top;
position = "{394, 705}";
},
{
name = topleft;
position = "{101, 705}";
}
);
background = {
anchors = (
{
name = bottom;
position = "{281, 0}";
},
{
name = ogonek;
position = "{451, 0}";
},
{
name = top;
position = "{393, 705}";
},
{
name = topleft;
position = "{100, 705}";
}
);
paths = (
{
closed = 1;
nodes = (
"593 705 LINE",
"169 705 LINE",
"57 0 LINE",
"481 0 LINE",
"488 39 LINE",
"106 39 LINE",
"153 338 LINE",
"515 338 LINE",
"521 377 LINE",
"159 377 LINE",
"205 666 LINE",
"587 666 LINE"
);
}
);
};
layerId = "80A9362C-6FC3-40B9-AFF8-C1622415CC09";
paths = (
{
closed = 1;
nodes = (
"482 0 LINE",
"488 39 LINE",
"106 39 LINE",
"154 338 LINE",
"515 338 LINE",
"522 377 LINE",
"160 377 LINE",
"206 666 LINE",
"587 666 LINE",
"594 705 LINE",
"170 705 LINE",
"58 0 LINE"
);
}
);
width = 571;
},
{
anchors = (
{
name = bottom;
position = "{295, 0}";
},
{
name = ogonek;
position = "{499, 0}";
},
{
name = top;
position = "{406, 705}";
},
{
name = topleft;
position = "{89, 705}";
}
);
background = {
anchors = (
{
name = bottom;
position = "{296, 0}";
},
{
name = ogonek;
position = "{500, 0}";
},
{
name = top;
position = "{407, 705}";
},
{
name = topleft;
position = "{90, 705}";
}
);
paths = (
{
closed = 1;
nodes = (
"641 705 LINE",
"131 705 LINE",
"20 0 LINE",
"530 0 LINE",
"555 158 LINE",
"242 158 LINE",
"261 279 LINE",
"551 279 LINE",
"576 437 LINE",
"286 437 LINE",
"303 547 LINE",
"616 547 LINE"
);
}
);
};
layerId = "5B4126D3-DE9F-4159-B940-B7B1ABEC53A3";
paths = (
{
closed = 1;
nodes = (
"529 0 LINE",
"554 158 LINE",
"241 158 LINE",
"260 279 LINE",
"550 279 LINE",
"575 437 LINE",
"285 437 LINE",
"302 547 LINE",
"615 547 LINE",
"640 705 LINE",
"130 705 LINE",
"19 0 LINE"
);
}
);
width = 621;
}
);
leftKerningGroup = H;
leftMetricsKey = H;
rightKerningGroup = E;
unicode = 0045;
userData = {
anchors = (
);
b = {
};
com.typemytype.robofont.layerData = {
b = {
anchors = (
);
components = (
);
contours = (
);
lib = {
};
name = E;
unicodes = (
);
width = 1234;
};
};
components = (
);
contours = (
);
lib = {
};
name = E;
unicodes = (
);
width = 1258;
};
},
{
color = 8;
glyphname = F;
lastChange = "2019-08-19 13:53:20 +0000";
layers = (
{
anchors = (
{
name = bottom;
position = "{255, 0}";
},
{
name = top;
position = "{367, 705}";
}
);
background = {
anchors = (
{
name = bottom;
position = "{254, 0}";
},
{
name = top;
position = "{366, 705}";
}
);
paths = (
{
closed = 1;
nodes = (
"583 705 LINE",
"169 705 LINE",
"57 0 LINE",
"99 0 LINE",
"153 338 LINE",
"505 338 LINE",
"511 377 LINE",
"159 377 LINE",
"205 666 LINE",
"577 666 LINE"
);
}
);
};
layerId = "80A9362C-6FC3-40B9-AFF8-C1622415CC09";
paths = (
{
closed = 1;
nodes = (
"100 0 LINE",
"154 338 LINE",
"505 338 LINE",
"512 377 LINE",
"160 377 LINE",
"206 666 LINE",
"577 666 LINE",
"584 705 LINE",
"170 705 LINE",
"58 0 LINE"
);
}
);
width = 537;
},
{
anchors = (
{
name = bottom;
position = "{265, 0}";
},
{
name = top;
position = "{382, 705}";
}
);
background = {
anchors = (
{
name = bottom;
position = "{266, 0}";
},
{
name = top;
position = "{383, 705}";
}
);
paths = (
{
closed = 1;
nodes = (
"635 705 LINE",
"131 705 LINE",
"20 0 LINE",
"227 0 LINE",
"270 270 LINE",
"544 270 LINE",
"569 428 LINE",
"295 428 LINE",
"313 547 LINE",
"610 547 LINE"
);
}
);
};
layerId = "5B4126D3-DE9F-4159-B940-B7B1ABEC53A3";
paths = (
{
closed = 1;
nodes = (
"226 0 LINE",
"269 270 LINE",
"543 270 LINE",
"568 428 LINE",
"294 428 LINE",
"312 547 LINE",
"609 547 LINE",
"634 705 LINE",
"130 705 LINE",
"19 0 LINE"
);
}
);
width = 583;
}
);
leftKerningGroup = H;
leftMetricsKey = H;
rightKerningGroup = F;
unicode = 0046;
userData = {
anchors = (
);
b = {
};
com.typemytype.robofont.layerData = {
b = {
anchors = (
);
components = (
);
contours = (
{
points = (
{
segmentType = curve;
smooth = 1;
x = 266;
y = 0;
},
{
segmentType = line;
smooth = 1;
x = 1035;
y = 0;
},
{
smooth = 0;
x = 1084;
y = 0;
},
{
smooth = 0;
x = 1108;
y = 34;
},
{
segmentType = curve;
smooth = 1;
x = 1108;
y = 71;
},
{
smooth = 0;
x = 1108;
y = 107;
},
{
smooth = 0;
x = 1084;
y = 141;
},
{
segmentType = curve;
smooth = 1;
x = 1035;
y = 141;
},
{
segmentType = line;
smooth = 0;
x = 353;
y = 141;
},
{
segmentType = line;
smooth = 0;
x = 353;
y = 665;
},
{
segmentType = line;
smooth = 1;
x = 975;
y = 665;
},
{
smooth = 0;
x = 1024;
y = 665;
},
{
smooth = 0;
x = 1049;
y = 698;
},
{
segmentType = curve;
smooth = 1;
x = 1049;
y = 734;
},
{
smooth = 0;
x = 1049;
y = 770;
},
{
smooth = 0;
x = 1026;
y = 803;
},
{
segmentType = curve;
smooth = 1;
x = 975;
y = 803;
},
{
segmentType = line;
smooth = 0;
x = 353;
y = 803;
},
{
segmentType = line;
smooth = 0;
x = 353;
y = 1285;
},
{
segmentType = line;
smooth = 1;
x = 1007;
y = 1285;
},
{
smooth = 0;
x = 1056;
y = 1285;
},
{
smooth = 0;
x = 1080;
y = 1319;
},
{
segmentType = curve;
smooth = 1;
x = 1080;
y = 1356;
},
{
smooth = 0;
x = 1080;
y = 1392;
},
{
smooth = 0;
x = 1056;
y = 1426;
},
{
segmentType = curve;
smooth = 1;
x = 1007;
y = 1426;
},
{
segmentType = line;
smooth = 1;
x = 261;
y = 1426;
},
{
smooth = 0;
x = 213;
y = 1426;
},
{
smooth = 0;
x = 178;
y = 1383;
},
{
segmentType = curve;
smooth = 1;
x = 178;
y = 1340;
},
{
segmentType = line;
smooth = 1;
x = 178;
y = 86;
},
{
smooth = 0;
x = 178;
y = 41;
},
{
smooth = 0;
x = 222;
y = 0;
}
);
}
);
lib = {
};
name = F;
unicodes = (
);
width = 1142;
};
};
components = (
);
contours = (
);
lib = {
};
name = F;
unicodes = (
);
width = 1175;
};
},
{
color = 0;
glyphname = G;
lastChange = "2019-08-21 09:11:46 +0000";
layers = (
{
anchors = (
{
name = bottom;
position = "{349, 0}";
},
{
name = top;
position = "{454, 705}";
}
);
background = {
anchors = (
{
name = bottom;
position = "{351, 0}";
},
{
name = top;
position = "{456, 705}";
}
);
paths = (
{
closed = 1;
nodes = (
"442 -8 OFFCURVE",
"542 13 OFFCURVE",
"596 40 CURVE",
"646 355 LINE",
"412 355 LINE",
"405 316 LINE",
"599 316 LINE",
"555 35 LINE",
"573 73 LINE",
"512 47 OFFCURVE",
"442 33 OFFCURVE",
"368 33 CURVE SMOOTH",
"175 33 OFFCURVE",
"96 145 OFFCURVE",
"129 353 CURVE SMOOTH",
"161 555 OFFCURVE",
"276 672 OFFCURVE",
"448 672 CURVE SMOOTH",
"538 672 OFFCURVE",
"601 646 OFFCURVE",
"656 583 CURVE",
"683 618 LINE",
"633 681 OFFCURVE",
"555 713 OFFCURVE",
"455 713 CURVE SMOOTH",
"257 713 OFFCURVE",
"120 576 OFFCURVE",
"84 353 CURVE SMOOTH",
"48 124 OFFCURVE",
"143 -8 OFFCURVE",
"362 -8 CURVE SMOOTH"
);
}
);
};
layerId = "80A9362C-6FC3-40B9-AFF8-C1622415CC09";
paths = (
{
closed = 1;
nodes = (
"462 -8 OFFCURVE",
"546 10 OFFCURVE",
"594 32 CURVE",
"645 355 LINE",
"411 355 LINE",
"405 316 LINE",
"599 316 LINE",
"554 35 LINE",
"572 68 LINE",
"519 48 OFFCURVE",
"461 33 OFFCURVE",
"398 33 CURVE SMOOTH",
"214 33 OFFCURVE",
"125 120 OFFCURVE",
"125 282 CURVE SMOOTH",
"125 491 OFFCURVE",
"227 672 OFFCURVE",
"428 672 CURVE SMOOTH",
"528 672 OFFCURVE",
"592 642 OFFCURVE",
"657 571 CURVE",
"680 605 LINE",
"622 675 OFFCURVE",
"542 713 OFFCURVE",
"433 713 CURVE SMOOTH",
"207 713 OFFCURVE",
"81 519 OFFCURVE",
"81 282 CURVE SMOOTH",
"81 99 OFFCURVE",
"184 -8 OFFCURVE",
"388 -8 CURVE SMOOTH"
);
}
);
width = 717;
},
{
anchors = (
{
name = bottom;
position = "{386, 0}";
},
{
name = top;
position = "{490, 705}";
}
);
background = {
anchors = (
{
name = bottom;
position = "{385, 0}";
},
{
name = top;
position = "{489, 705}";
}
);
paths = (
{
closed = 1;
nodes = (
"482 -12 OFFCURVE",
"581 7 OFFCURVE",
"665 44 CURVE",
"722 404 LINE",
"422 404 LINE",
"399 261 LINE",
"532 261 LINE",
"508 106 LINE",
"557 182 LINE",
"507 168 OFFCURVE",
"461 161 OFFCURVE",
"426 161 CURVE SMOOTH",
"306 161 OFFCURVE",
"253 224 OFFCURVE",
"273 348 CURVE SMOOTH",
"293 474 OFFCURVE",
"363 541 OFFCURVE",
"493 541 CURVE SMOOTH",
"560 541 OFFCURVE",
"617 525 OFFCURVE",
"672 489 CURVE",
"758 648 LINE",
"711 689 OFFCURVE",
"617 717 OFFCURVE",
"519 717 CURVE SMOOTH",
"266 717 OFFCURVE",
"93 572 OFFCURVE",
"58 348 CURVE SMOOTH",
"24 135 OFFCURVE",
"140 -12 OFFCURVE",
"387 -12 CURVE SMOOTH"
);
}
);
};
layerId = "5B4126D3-DE9F-4159-B940-B7B1ABEC53A3";
paths = (
{
closed = 1;
nodes = (
"508 -12 OFFCURVE",
"597 11 OFFCURVE",
"665 39 CURVE",
"723 404 LINE",
"423 404 LINE",
"400 261 LINE",
"533 261 LINE",
"509 106 LINE",
"556 178 LINE",
"514 168 OFFCURVE",
"474 161 OFFCURVE",
"442 161 CURVE SMOOTH",
"329 161 OFFCURVE",
"271 213 OFFCURVE",
"271 310 CURVE SMOOTH",
"271 444 OFFCURVE",
"337 542 OFFCURVE",
"473 542 CURVE SMOOTH",
"549 542 OFFCURVE",
"611 522 OFFCURVE",
"672 479 CURVE",
"757 635 LINE",
"698 690 OFFCURVE",
"581 718 OFFCURVE",
"482 718 CURVE SMOOTH",
"232 718 OFFCURVE",
"56 553 OFFCURVE",
"56 304 CURVE SMOOTH",
"56 100 OFFCURVE",
"205 -12 OFFCURVE",
"425 -12 CURVE SMOOTH"
);
}
);
width = 751;
}
);
leftKerningGroup = O;
leftMetricsKey = O;
rightKerningGroup = G;
unicode = 0047;
userData = {
anchors = (
);
b = {
};
com.typemytype.robofont.layerData = {
b = {
anchors = (
);
components = (
);
contours = (
{
points = (
{
segmentType = curve;
smooth = 1;
x = 783;
y = "-22";
},
{
smooth = 0;
x = 965;
y = "-22";
},
{
smooth = 0;
x = 1086;
y = 34;
},
{
segmentType = curve;
smooth = 1;
x = 1166;
y = 86;
},
{
smooth = 0;
x = 1270;
y = 154;
},
{
smooth = 0;
x = 1186;
y = 258;
},
{
segmentType = curve;
smooth = 1;
x = 1112;
y = 214;
},
{
smooth = 0;
x = 1024;
y = 162;
},
{
smooth = 0;
x = 939;
y = 120;
},
{
segmentType = curve;
smooth = 1;
x = 806;
y = 120;
},
{
smooth = 0;
x = 446;
y = 120;
},
{
smooth = 0;
x = 316;
y = 406;
},
{
segmentType = curve;
smooth = 1;
x = 316;
y = 706;
},
{
smooth = 0;
x = 316;
y = 1005;
},
{
smooth = 0;
x = 450;
y = 1296;
},
{
segmentType = curve;
smooth = 1;
x = 801;
y = 1296;
},
{
smooth = 0;
x = 980;
y = 1296;
},
{
smooth = 0;
x = 1053;
y = 1246;
},
{
segmentType = curve;
smooth = 1;
x = 1094;
y = 1225;
},
{
smooth = 0;
x = 1174;
y = 1184;
},
{
smooth = 0;
x = 1231;
y = 1300;
},
{
segmentType = curve;
smooth = 1;
x = 1156;
y = 1343;
},
{
smooth = 0;
x = 1106;
y = 1372;
},
{
smooth = 0;
x = 995;
y = 1438;
},
{
segmentType = curve;
smooth = 1;
x = 797;
y = 1438;
},
{
smooth = 0;
x = 359;
y = 1438;
},
{
smooth = 0;
x = 128;
y = 1093;
},
{
segmentType = curve;
smooth = 1;
x = 128;
y = 704;
},
{
smooth = 0;
x = 128;
y = 307;
},
{
smooth = 0;
x = 350;
y = "-22";
}
);
}
);
lib = {
};
name = G;
unicodes = (
);
width = 1448;
};
};
components = (
);
contours = (
);
lib = {
};
name = G;
unicodes = (
);
width = 1538;
};
},
{
color = 8;
glyphname = H;
lastChange = "2019-08-19 13:53:20 +0000";
layers = (
{
anchors = (
{
name = bottom;
position = "{375, 0}";
},
{
name = center;
position = "{375, 546}";
},
{
name = top;
position = "{374, 705}";
},
{
name = topleft;
position = "{26, 705}";
}
);
background = {
anchors = (
{
name = bottom;
position = "{337, 0}";
},
{
name = center;
position = "{424, 546}";
},
{
name = top;
position = "{448, 705}";
},
{
name = topleft;
position = "{100, 705}";
}
);
paths = (
{
closed = 1;
nodes = (
"634 377 LINE",
"159 377 LINE",
"211 705 LINE",
"169 705 LINE",
"57 0 LINE",
"99 0 LINE",
"153 338 LINE",
"628 338 LINE",
"574 0 LINE",
"616 0 LINE",
"728 705 LINE",
"686 705 LINE"
);
}
);
};
layerId = "80A9362C-6FC3-40B9-AFF8-C1622415CC09";
paths = (
{
closed = 1;
nodes = (
"100 0 LINE",
"153 338 LINE",
"628 338 LINE",
"574 0 LINE",
"616 0 LINE",
"728 705 LINE",
"686 705 LINE",
"635 377 LINE",
"160 377 LINE",
"211 705 LINE",
"169 705 LINE",
"58 0 LINE"
);
}
);
width = 751;
},
{
anchors = (
{
name = bottom;
position = "{356, 0}";
},
{
name = center;
position = "{447, 574}";
},
{
name = top;
position = "{467, 705}";
},
{
name = topleft;
position = "{89, 705}";
}
);
background = {
anchors = (
{
name = bottom;
position = "{357, 0}";
},
{
name = center;
position = "{448, 574}";
},
{
name = top;
position = "{468, 705}";
},
{
name = topleft;
position = "{90, 705}";
}
);
paths = (
{
closed = 1;
nodes = (
"557 442 LINE",
"297 442 LINE",
"338 705 LINE",
"131 705 LINE",
"20 0 LINE",
"227 0 LINE",
"270 272 LINE",
"530 272 LINE",
"487 0 LINE",
"694 0 LINE",
"805 705 LINE",
"598 705 LINE"
);
}
);
};
layerId = "5B4126D3-DE9F-4159-B940-B7B1ABEC53A3";
paths = (
{
closed = 1;
nodes = (
"226 0 LINE",
"269 272 LINE",
"529 272 LINE",
"486 0 LINE",
"693 0 LINE",
"804 705 LINE",
"597 705 LINE",
"556 442 LINE",
"296 442 LINE",
"337 705 LINE",
"130 705 LINE",
"19 0 LINE"
);
}
);
width = 789;
}
);
leftKerningGroup = H;
rightKerningGroup = H;
rightMetricsKey = "=|";
unicode = 0048;
userData = {
anchors = (
);
b = {
};
com.typemytype.robofont.layerData = {
b = {
anchors = (
);
components = (
);
contours = (
);
lib = {
};
name = H;
unicodes = (
);
width = 1464;
};
};
components = (
);
contours = (
);
lib = {
};
name = H;
unicodes = (
);
width = 1524;
};
},
{
color = 8;
glyphname = I;
lastChange = "2019-08-19 13:53:20 +0000";
layers = (
{
anchors = (
{
name = bottom;
position = "{79, 0}";
},
{
name = ogonek;
position = "{100, 0}";
},
{
name = top;
position = "{191, 705}";
},
{
name = topleft;
position = "{102, 705}";
}
);
background = {
anchors = (
{
name = bottom;
position = "{78, 0}";
},
{
name = ogonek;
position = "{99, 0}";
},
{
name = top;
position = "{190, 705}";
},
{
name = topleft;
position = "{101, 705}";
}
);
paths = (
{
closed = 1;
nodes = (
"99 0 LINE",
"211 705 LINE",
"169 705 LINE",
"57 0 LINE"
);
}
);
};
layerId = "80A9362C-6FC3-40B9-AFF8-C1622415CC09";
paths = (
{
closed = 1;
nodes = (
"99 0 LINE",
"211 705 LINE",
"170 705 LINE",
"58 0 LINE"
);
}
);
width = 234;
},
{
anchors = (
{
name = bottom;
position = "{122, 0}";
},
{
name = ogonek;
position = "{171, 0}";
},
{
name = top;
position = "{233, 705}";
},
{
name = topleft;
position = "{89, 705}";
}
);
background = {
anchors = (
{
name = bottom;
position = "{123, 0}";
},
{
name = ogonek;
position = "{172, 0}";
},
{
name = top;
position = "{234, 705}";
},
{
name = topleft;
position = "{90, 705}";
}
);
paths = (
{
closed = 1;
nodes = (
"227 0 LINE",
"338 705 LINE",
"131 705 LINE",
"20 0 LINE"
);
}
);
};
layerId = "5B4126D3-DE9F-4159-B940-B7B1ABEC53A3";
paths = (
{
closed = 1;
nodes = (
"226 0 LINE",
"337 705 LINE",
"130 705 LINE",
"19 0 LINE"
);
}
);
width = 322;
}
);
leftKerningGroup = H;
leftMetricsKey = H;
rightKerningGroup = H;
rightMetricsKey = H;
unicode = 0049;
userData = {
anchors = (
);
b = {
};
com.typemytype.robofont.layerData = {
b = {
anchors = (
);
components = (
);
contours = (
);
lib = {
};
name = I;
unicodes = (
);
width = 592;
};
};
components = (
);
contours = (
);
lib = {
};
name = I;
unicodes = (
);
width = 637;
};
},
{
color = 8;
glyphname = J;
lastChange = "2019-08-19 13:53:20 +0000";
layers = (
{
anchors = (
{
name = bottom;
position = "{143, 0}";
},
{
name = top;
position = "{254, 705}";
}
);
background = {
anchors = (
{
name = bottom;
position = "{142, 0}";
},
{
name = top;
position = "{253, 705}";
}
);
paths = (
{
closed = 1;
nodes = (
"5 -2 LINE SMOOTH",
"107 5 OFFCURVE",
"173 70 OFFCURVE",
"190 177 CURVE SMOOTH",
"274 705 LINE",
"232 705 LINE",
"149 179 LINE SMOOTH",
"136 96 OFFCURVE",
"84 42 OFFCURVE",
"8 36 CURVE SMOOTH",
"-44 32 LINE",
"-46 -6 LINE"
);
}
);
};
layerId = "80A9362C-6FC3-40B9-AFF8-C1622415CC09";
paths = (
{
closed = 1;
nodes = (
"12 -2 LINE SMOOTH",
"113 5 OFFCURVE",
"172 70 OFFCURVE",
"190 179 CURVE SMOOTH",
"275 705 LINE",
"233 705 LINE",
"149 179 LINE SMOOTH",
"136 96 OFFCURVE",
"84 42 OFFCURVE",
"8 36 CURVE SMOOTH",
"-43 32 LINE",
"-45 -6 LINE"
);
}
);
width = 298;
},
{
anchors = (
{
name = bottom;
position = "{204, 0}";
},
{
name = top;
position = "{315, 705}";
}
);
background = {
anchors = (
{
name = bottom;
position = "{204, 0}";
},
{
name = top;
position = "{315, 705}";
}
);
paths = (
{
closed = 1;
nodes = (
"73 -7 LINE SMOOTH",
"232 2 OFFCURVE",
"320 76 OFFCURVE",
"342 219 CURVE SMOOTH",
"419 705 LINE",
"212 705 LINE",
"135 215 LINE SMOOTH",
"128 173 OFFCURVE",
"109 160 OFFCURVE",
"64 158 CURVE SMOOTH",
"-24 153 LINE",
"-37 -12 LINE"
);
}
);
};
layerId = "5B4126D3-DE9F-4159-B940-B7B1ABEC53A3";
paths = (
{
closed = 1;
nodes = (
"83 -6 LINE SMOOTH",
"257 3 OFFCURVE",
"319 76 OFFCURVE",
"341 215 CURVE SMOOTH",
"419 705 LINE",
"212 705 LINE",
"135 215 LINE SMOOTH",
"128 173 OFFCURVE",
"109 160 OFFCURVE",
"64 158 CURVE SMOOTH",
"-24 153 LINE",
"-29 -12 LINE"
);
}
);
width = 403;
}
);
leftKerningGroup = J;
rightKerningGroup = J;
rightMetricsKey = H;
unicode = 004A;
userData = {
anchors = (
);
b = {
};
com.typemytype.robofont.layerData = {
b = {
anchors = (
);
components = (
);
contours = (
);
lib = {
};
name = J;
unicodes = (
);
width = 1003;
};
};
components = (
);
contours = (
);
lib = {
};
name = J;
unicodes = (
);
width = 1126;
};
},
{
color = 8;
glyphname = K;
lastChange = "2019-08-19 13:53:20 +0000";
layers = (
{
anchors = (
{
name = bottom;
position = "{264, 0}";
},
{
name = top;
position = "{375, 705}";
},
{
name = topleft;
position = "{101, 705}";
}
);
background = {
anchors = (
{
name = bottom;
position = "{263, 0}";
},
{
name = top;
position = "{374, 705}";
},
{
name = topleft;
position = "{100, 705}";
}
);
paths = (
{
closed = 1;
nodes = (
"181 374 LINE",
"174 342 LINE",
"641 705 LINE",
"582 705 LINE",
"161 377 LINE",
"159 377 LINE",
"211 705 LINE",
"169 705 LINE",
"57 0 LINE",
"99 0 LINE",
"153 338 LINE",
"155 338 LINE",
"493 0 LINE",
"555 0 LINE"
);
}
);
};
layerId = "80A9362C-6FC3-40B9-AFF8-C1622415CC09";
paths = (
{
closed = 1;
nodes = (
"100 0 LINE",
"153 337 LINE",
"155 337 LINE",
"497 0 LINE",
"555 0 LINE",
"181 369 LINE",
"175 339 LINE",
"644 705 LINE",
"583 705 LINE",
"161 376 LINE",
"159 376 LINE",
"212 705 LINE",
"170 705 LINE",
"58 0 LINE"
);
}
);
width = 589;
},
{
anchors = (
{
name = bottom;
position = "{319, 0}";
},
{
name = top;
position = "{430, 705}";
},
{
name = topleft;
position = "{89, 705}";
}
);
background = {
anchors = (
{
name = bottom;
position = "{320, 0}";
},
{
name = top;
position = "{431, 705}";
},
{
name = topleft;
position = "{90, 705}";
}
);
paths = (
{
closed = 1;
nodes = (
"458 414 LINE",
"445 332 LINE",
"842 705 LINE",
"598 705 LINE",
"293 407 LINE",
"291 407 LINE",
"338 705 LINE",
"131 705 LINE",
"20 0 LINE",
"227 0 LINE",
"277 315 LINE",
"279 315 LINE",
"495 0 LINE",
"740 0 LINE"
);
}
);
};
layerId = "5B4126D3-DE9F-4159-B940-B7B1ABEC53A3";
paths = (
{
closed = 1;
nodes = (
"226 0 LINE",
"276 315 LINE",
"278 315 LINE",
"503 0 LINE",
"739 0 LINE",
"447 414 LINE",
"456 327 LINE",
"841 705 LINE",
"589 705 LINE",
"292 407 LINE",
"290 407 LINE",
"337 705 LINE",
"130 705 LINE",
"19 0 LINE"
);
}
);
width = 729;
}
);
leftKerningGroup = H;
leftMetricsKey = H;
rightKerningGroup = K;
unicode = 004B;
userData = {
anchors = (
);
b = {
};
com.typemytype.robofont.layerData = {
b = {
anchors = (
);
components = (
);
contours = (
);
lib = {
};
name = K;
unicodes = (
);
width = 1210;
};
};
components = (
);
contours = (
);
lib = {
};
name = K;
unicodes = (
);
width = 1329;
};
},
{
color = 8;
glyphname = L;
lastChange = "2019-08-19 13:53:20 +0000";
layers = (
{
anchors = (
{
name = bottom;
position = "{267, 0}";
},
{
name = center;
position = "{185, 387}";
},
{
name = dot;
position = "{407, 386}";
},
{
name = top;
position = "{191, 705}";
},
{
name = topright;
position = "{333, 705}";
}
);
background = {
anchors = (
{
name = bottom;
position = "{266, 0}";
},
{
name = center;
position = "{184, 387}";
},
{
name = dot;
position = "{406, 386}";
},
{
name = top;
position = "{190, 705}";
},
{
name = topright;
position = "{333, 705}";
}
);
paths = (
{
closed = 1;
nodes = (
"475 0 LINE",
"482 39 LINE",
"106 39 LINE",
"211 705 LINE",
"169 705 LINE",
"57 0 LINE"
);
}
);
};
layerId = "80A9362C-6FC3-40B9-AFF8-C1622415CC09";
paths = (
{
closed = 1;
nodes = (
"476 0 LINE",
"482 39 LINE",
"106 39 LINE",
"212 705 LINE",
"170 705 LINE",
"58 0 LINE"
);
}
);
width = 527;
},
{
anchors = (
{
name = bottom;
position = "{275, 0}";
},
{
name = center;
position = "{231, 387}";
},
{
name = dot;
position = "{484, 401}";
},
{
name = top;
position = "{233, 705}";
},
{
name = topright;
position = "{428, 705}";
}
);
background = {
anchors = (
{
name = bottom;
position = "{276, 0}";
},
{
name = center;
position = "{232, 387}";
},
{
name = dot;
position = "{485, 401}";
},
{
name = top;
position = "{234, 705}";
},
{
name = topright;
position = "{429, 705}";
}
);
paths = (
{
closed = 1;
nodes = (
"530 0 LINE",
"557 171 LINE",
"254 171 LINE",
"338 705 LINE",
"131 705 LINE",
"20 0 LINE"
);
}
);
};
layerId = "5B4126D3-DE9F-4159-B940-B7B1ABEC53A3";
paths = (
{
closed = 1;
nodes = (
"529 0 LINE",
"556 171 LINE",
"253 171 LINE",
"337 705 LINE",
"130 705 LINE",
"19 0 LINE"
);
}
);
width = 594;
}
);
leftKerningGroup = H;
leftMetricsKey = H;
rightKerningGroup = L;
unicode = 004C;
userData = {
anchors = (
);
b = {
};
com.typemytype.robofont.layerData = {
b = {
anchors = (
);
components = (
);
contours = (
{
points = (
{
segmentType = curve;
smooth = 1;
x = 266;
y = 0;
},
{
segmentType = line;
smooth = 1;
x = 1035;
y = 0;
},
{
smooth = 0;
x = 1084;
y = 0;
},
{
smooth = 0;
x = 1108;
y = 34;
},
{
segmentType = curve;
smooth = 1;
x = 1108;
y = 71;
},
{
smooth = 0;
x = 1108;
y = 107;
},
{
smooth = 0;
x = 1084;
y = 141;
},
{
segmentType = curve;
smooth = 1;
x = 1035;
y = 141;
},
{
segmentType = line;
smooth = 0;
x = 356;
y = 141;
},
{
segmentType = line;
smooth = 0;
x = 356;
y = 665;
},
{
segmentType = line;
smooth = 1;
x = 975;
y = 665;
},
{
smooth = 0;
x = 1024;
y = 665;
},
{
smooth = 0;
x = 1049;
y = 698;
},
{
segmentType = curve;
smooth = 1;
x = 1049;
y = 734;
},
{
smooth = 0;
x = 1049;
y = 770;
},
{
smooth = 0;
x = 1026;
y = 803;
},
{
segmentType = curve;
smooth = 1;
x = 975;
y = 803;
},
{
segmentType = line;
smooth = 0;
x = 356;
y = 803;
},
{
segmentType = line;
smooth = 0;
x = 356;
y = 1285;
},
{
segmentType = line;
smooth = 1;
x = 1007;
y = 1285;
},
{
smooth = 0;
x = 1056;
y = 1285;
},
{
smooth = 0;
x = 1080;
y = 1319;
},
{
segmentType = curve;
smooth = 1;
x = 1080;
y = 1356;
},
{
smooth = 0;
x = 1080;
y = 1392;
},
{
smooth = 0;
x = 1056;
y = 1426;
},
{
segmentType = curve;
smooth = 1;
x = 1007;
y = 1426;
},
{
segmentType = line;
smooth = 1;
x = 261;
y = 1426;
},
{
smooth = 0;
x = 213;
y = 1426;
},
{
smooth = 0;
x = 178;
y = 1383;
},
{
segmentType = curve;
smooth = 1;
x = 178;
y = 1340;
},
{
segmentType = line;
smooth = 1;
x = 178;
y = 86;
},
{
smooth = 0;
x = 178;
y = 41;
},
{
smooth = 0;
x = 222;
y = 0;
}
);
}
);
lib = {
};
name = L;
unicodes = (
);
width = 1095;
};
};
components = (
);
contours = (
);
lib = {
};
name = L;
unicodes = (
);
width = 1169;
};
},
{
color = 8;
glyphname = M;
lastChange = "2019-08-19 13:53:20 +0000";
layers = (
{
anchors = (
{
name = bottom;
position = "{384, 0}";
},
{
name = top;
position = "{496, 705}";
}
);
background = {
anchors = (
{
name = bottom;
position = "{383, 0}";
},
{
name = top;
position = "{495, 705}";
}
);
paths = (
{
closed = 1;
nodes = (
"98 0 LINE",
"204 666 LINE",
"179 666 LINE",
"385 110 LINE",
"420 110 LINE",
"798 665 LINE",
"774 665 LINE",
"668 0 LINE",
"707 0 LINE",
"819 705 LINE",
"783 705 LINE",
"390 127 LINE",
"418 127 LINE",
"207 705 LINE",
"171 705 LINE",
"59 0 LINE"
);
}
);
};
layerId = "80A9362C-6FC3-40B9-AFF8-C1622415CC09";
paths = (
{
closed = 1;
nodes = (
"99 0 LINE",
"204 666 LINE",
"182 666 LINE",
"388 110 LINE",
"423 110 LINE",
"801 665 LINE",
"774 665 LINE",
"669 0 LINE",
"708 0 LINE",
"820 705 LINE",
"784 705 LINE",
"391 127 LINE",
"419 127 LINE",
"208 705 LINE",
"172 705 LINE",
"60 0 LINE"
);
}
);
width = 845;
},
{
anchors = (
{
name = bottom;
position = "{406, 0}";
},
{
name = top;
position = "{517, 705}";
}
);
background = {
anchors = (
{
name = bottom;
position = "{407, 0}";
},
{
name = top;
position = "{518, 705}";
}
);
paths = (
{
closed = 1;
nodes = (
"208 0 LINE",
"268 380 LINE",
"245 380 LINE",
"366 103 LINE",
"476 103 LINE",
"684 379 LINE",
"664 379 LINE",
"604 0 LINE",
"791 0 LINE",
"902 705 LINE",
"734 705 LINE",
"437 293 LINE",
"473 293 LINE",
"305 705 LINE",
"133 705 LINE",
"22 0 LINE"
);
}
);
};
guideLines = (
{
position = "{154, 341}";
},
{
angle = 180;
position = "{422, 103}";
showMeasurement = 1;
}
);
layerId = "5B4126D3-DE9F-4159-B940-B7B1ABEC53A3";
paths = (
{
closed = 1;
nodes = (
"207 0 LINE",
"267 380 LINE",
"244 380 LINE",
"366 103 LINE",
"476 103 LINE",
"687 379 LINE",
"663 379 LINE",
"603 0 LINE",
"790 0 LINE",
"901 705 LINE",
"732 705 LINE",
"427 293 LINE",
"463 293 LINE",
"303 705 LINE",
"132 705 LINE",
"21 0 LINE"
);
}
);
width = 888;
}
);
leftKerningGroup = H;
leftMetricsKey = "=H+2";
rightKerningGroup = H;
rightMetricsKey = "=H+2";
unicode = 004D;
userData = {
anchors = (
);
b = {
};
com.typemytype.robofont.layerData = {
b = {
anchors = (
);
components = (
);
contours = (
);
lib = {
};
name = M;
unicodes = (
);
width = 1899;
};
};
components = (
);
contours = (
);
lib = {
};
name = M;
unicodes = (
);
width = 1984;
};
},
{
color = 8;
glyphname = N;
lastChange = "2019-08-19 13:53:20 +0000";
layers = (
{
anchors = (
{
name = bottom;
position = "{328, 0}";
},
{
name = top;
position = "{440, 705}";
}
);
background = {
anchors = (
{
name = bottom;
position = "{327, 0}";
},
{
name = top;
position = "{439, 705}";
}
);
paths = (
{
closed = 1;
nodes = (
"96 0 LINE",
"201 663 LINE",
"180 663 LINE",
"563 0 LINE",
"597 0 LINE",
"709 705 LINE",
"670 705 LINE",
"565 42 LINE",
"587 42 LINE",
"204 705 LINE",
"169 705 LINE",
"57 0 LINE"
);
}
);
};
layerId = "80A9362C-6FC3-40B9-AFF8-C1622415CC09";
paths = (
{
closed = 1;
nodes = (
"97 0 LINE",
"202 663 LINE",
"183 663 LINE",
"564 0 LINE",
"598 0 LINE",
"710 705 LINE",
"671 705 LINE",
"565 42 LINE",
"585 42 LINE",
"205 705 LINE",
"170 705 LINE",
"58 0 LINE"
);
}
);
width = 733;
},
{
anchors = (
{
name = bottom;
position = "{341, 0}";
},
{
name = top;
position = "{451, 705}";
}
);
background = {
anchors = (
{
name = bottom;
position = "{342, 0}";
},
{
name = top;
position = "{452, 705}";
}
);
paths = (
{
closed = 1;
nodes = (
"212 0 LINE",
"276 403 LINE",
"247 403 LINE",
"513 0 LINE",
"664 0 LINE",
"775 705 LINE",
"582 705 LINE",
"519 302 LINE",
"549 302 LINE",
"282 705 LINE",
"131 705 LINE",
"20 0 LINE"
);
}
);
};
layerId = "5B4126D3-DE9F-4159-B940-B7B1ABEC53A3";
paths = (
{
closed = 1;
nodes = (
"211 0 LINE",
"275 403 LINE",
"246 421 LINE",
"512 0 LINE",
"663 0 LINE",
"774 705 LINE",
"581 705 LINE",
"518 302 LINE",
"548 284 LINE",
"281 705 LINE",
"130 705 LINE",
"19 0 LINE"
);
}
);
width = 759;
}
);
leftKerningGroup = H;
leftMetricsKey = H;
rightKerningGroup = H;
rightMetricsKey = H;
unicode = 004E;
userData = {
anchors = (
);
b = {
};
com.typemytype.robofont.layerData = {
b = {
anchors = (
);
components = (
);
contours = (
);
lib = {
};
name = N;
unicodes = (
);
width = 1499;
};
};
components = (
);
contours = (
);
lib = {
};
name = N;
unicodes = (
);
width = 1557;
};
},
{
color = 1;
glyphname = Eng;
lastChange = "2019-08-20 08:25:17 +0000";
layers = (
{
anchors = (
{
name = bottom;
position = "{328, 0}";
},
{
name = top;
position = "{440, 705}";
}
);
background = {
anchors = (
{
name = bottom;
position = "{327, 0}";
},
{
name = top;
position = "{439, 705}";
}
);
paths = (
{
closed = 1;
nodes = (
"709 705 LINE",
"670 705 LINE",
"565 42 LINE",
"587 42 LINE",
"204 705 LINE",
"169 705 LINE",
"57 0 LINE",
"96 0 LINE",
"201 663 LINE",
"180 663 LINE",
"563 0 LINE",
"562 25 LINE",
"555 -22 LINE SMOOTH",
"542 -102 OFFCURVE",
"497 -147 OFFCURVE",
"426 -152 CURVE SMOOTH",
"385 -155 LINE",
"382 -193 LINE",
"425 -190 LINE SMOOTH",
"516 -184 OFFCURVE",
"578 -124 OFFCURVE",
"594 -21 CURVE SMOOTH"
);
}
);
};
layerId = "80A9362C-6FC3-40B9-AFF8-C1622415CC09";
paths = (
{
closed = 1;
nodes = (
"426 -190 LINE SMOOTH",
"517 -184 OFFCURVE",
"579 -124 OFFCURVE",
"595 -21 CURVE SMOOTH",
"710 705 LINE",
"672 705 LINE",
"567 40 LINE",
"589 40 LINE",
"204 705 LINE",
"170 705 LINE",
"58 0 LINE",
"96 0 LINE",
"202 665 LINE",
"181 665 LINE",
"564 0 LINE",
"564 25 LINE",
"557 -22 LINE SMOOTH",
"544 -102 OFFCURVE",
"498 -148 OFFCURVE",
"427 -153 CURVE SMOOTH",
"386 -156 LINE",
"383 -193 LINE"
);
}
);
width = 733;
},
{
anchors = (
{
name = bottom;
position = "{341, 0}";
},
{
name = top;
position = "{451, 705}";
}
);
background = {
anchors = (
{
name = bottom;
position = "{342, 0}";
},
{
name = top;
position = "{452, 705}";
}
);
paths = (
{
closed = 1;
nodes = (
"775 705 LINE",
"582 705 LINE",
"519 302 LINE",
"549 302 LINE",
"282 705 LINE",
"131 705 LINE",
"20 0 LINE",
"212 0 LINE",
"276 403 LINE",
"247 403 LINE",
"513 0 LINE",
"483 74 LINE",
"473 7 LINE SMOOTH",
"467 -28 OFFCURVE",
"447 -43 OFFCURVE",
"409 -47 CURVE SMOOTH",
"353 -53 LINE",
"345 -193 LINE",
"390 -190 LINE SMOOTH",
"577 -177 OFFCURVE",
"645 -120 OFFCURVE",
"669 36 CURVE SMOOTH"
);
}
);
};
layerId = "5B4126D3-DE9F-4159-B940-B7B1ABEC53A3";
paths = (
{
closed = 1;
nodes = (
"389 -190 LINE SMOOTH",
"576 -177 OFFCURVE",
"644 -120 OFFCURVE",
"668 36 CURVE SMOOTH",
"774 705 LINE",
"581 705 LINE",
"518 302 LINE",
"548 302 LINE",
"281 705 LINE",
"130 705 LINE",
"19 0 LINE",
"211 0 LINE",
"275 403 LINE",
"246 403 LINE",
"512 0 LINE",
"482 74 LINE",
"472 7 LINE SMOOTH",
"466 -28 OFFCURVE",
"446 -43 OFFCURVE",
"408 -47 CURVE SMOOTH",
"352 -53 LINE",
"344 -193 LINE"
);
}
);
width = 759;
}
);
leftKerningGroup = H;
leftMetricsKey = N;
widthMetricsKey = N;
rightKerningGroup = H;
unicode = 014A;
userData = {
com.typemytype.robofont.layerData = {
b = {
anchors = (
);
components = (
);
contours = (
);
lib = {
};
name = Eng;
unicodes = (
);
width = 1495;
};
};
};
},
{
color = 8;
glyphname = O;
lastChange = "2019-08-19 13:53:20 +0000";
layers = (
{
anchors = (
{
name = Qtail;
position = "{315, -8}";
},
{
name = bottom;
position = "{316, 0}";
},
{
name = center;
position = "{373, 353}";
},
{
name = ogonek;
position = "{371, 0}";
},
{
name = top;
position = "{428, 705}";
},
{
name = topleft;
position = "{79, 705}";
},
{
name = topright;
position = "{501, 705}";
}
);
background = {
anchors = (
{
name = Qtail;
position = "{335, -8}";
},
{
name = bottom;
position = "{336, 0}";
},
{
name = center;
position = "{393, 353}";
},
{
name = ogonek;
position = "{391, 0}";
},
{
name = top;
position = "{448, 705}";
},
{
name = topleft;
position = "{99, 705}";
},
{
name = topright;
position = "{521, 705}";
}
);
paths = (
{
closed = 1;
nodes = (
"526 -8 OFFCURVE",
"666 130 OFFCURVE",
"701 353 CURVE SMOOTH",
"737 576 OFFCURVE",
"641 713 OFFCURVE",
"449 713 CURVE SMOOTH",
"257 713 OFFCURVE",
"120 576 OFFCURVE",
"84 352 CURVE SMOOTH",
"49 130 OFFCURVE",
"145 -8 OFFCURVE",
"335 -8 CURVE SMOOTH"
);
},
{
closed = 1;
nodes = (
"175 33 OFFCURVE",
"97 151 OFFCURVE",
"129 353 CURVE SMOOTH",
"161 555 OFFCURVE",
"276 672 OFFCURVE",
"443 672 CURVE SMOOTH",
"612 672 OFFCURVE",
"688 556 OFFCURVE",
"656 353 CURVE SMOOTH",
"624 150 OFFCURVE",
"510 33 OFFCURVE",
"342 33 CURVE SMOOTH"
);
}
);
};
layerId = "80A9362C-6FC3-40B9-AFF8-C1622415CC09";
paths = (
{
closed = 1;
nodes = (
"579 -9 OFFCURVE",
"707 191 OFFCURVE",
"707 422 CURVE SMOOTH",
"707 601 OFFCURVE",
"604 714 OFFCURVE",
"429 714 CURVE SMOOTH",
"209 714 OFFCURVE",
"81 514 OFFCURVE",
"81 283 CURVE SMOOTH",
"81 104 OFFCURVE",
"184 -9 OFFCURVE",
"359 -9 CURVE SMOOTH"
);
},
{
closed = 1;
nodes = (
"209 32 OFFCURVE",
"126 124 OFFCURVE",
"126 282 CURVE SMOOTH",
"126 487 OFFCURVE",
"230 673 OFFCURVE",
"427 673 CURVE SMOOTH",
"579 673 OFFCURVE",
"662 581 OFFCURVE",
"662 423 CURVE SMOOTH",
"662 218 OFFCURVE",
"558 32 OFFCURVE",
"361 32 CURVE SMOOTH"
);
}
);
width = 753;
},
{
anchors = (
{
name = Qtail;
position = "{371, -12}";
},
{
name = bottom;
position = "{373, 0}";
},
{
name = center;
position = "{429, 353}";
},
{
name = ogonek;
position = "{437, 0}";
},
{
name = top;
position = "{483, 705}";
},
{
name = topleft;
position = "{103, 705}";
},
{
name = topright;
position = "{549, 705}";
}
);
background = {
anchors = (
{
name = Qtail;
position = "{366, -12}";
},
{
name = bottom;
position = "{368, 0}";
},
{
name = center;
position = "{424, 353}";
},
{
name = ogonek;
position = "{432, 0}";
},
{
name = top;
position = "{478, 705}";
},
{
name = topleft;
position = "{98, 705}";
},
{
name = topright;
position = "{544, 705}";
}
);
paths = (
{
closed = 1;
nodes = (
"585 -12 OFFCURVE",
"756 135 OFFCURVE",
"791 354 CURVE SMOOTH",
"825 572 OFFCURVE",
"700 717 OFFCURVE",
"482 717 CURVE SMOOTH",
"265 717 OFFCURVE",
"93 572 OFFCURVE",
"59 354 CURVE SMOOTH",
"24 136 OFFCURVE",
"150 -12 OFFCURVE",
"367 -12 CURVE SMOOTH"
);
},
{
closed = 1;
nodes = (
"300 161 OFFCURVE",
"255 232 OFFCURVE",
"274 353 CURVE SMOOTH",
"293 474 OFFCURVE",
"361 544 OFFCURVE",
"455 544 CURVE SMOOTH",
"550 544 OFFCURVE",
"596 473 OFFCURVE",
"577 353 CURVE SMOOTH",
"558 233 OFFCURVE",
"489 161 OFFCURVE",
"394 161 CURVE SMOOTH"
);
}
);
};
layerId = "5B4126D3-DE9F-4159-B940-B7B1ABEC53A3";
paths = (
{
closed = 1;
nodes = (
"633 -12 OFFCURVE",
"794 166 OFFCURVE",
"794 399 CURVE SMOOTH",
"794 588 OFFCURVE",
"658 717 OFFCURVE",
"453 717 CURVE SMOOTH",
"218 717 OFFCURVE",
"57 540 OFFCURVE",
"57 307 CURVE SMOOTH",
"57 118 OFFCURVE",
"193 -12 OFFCURVE",
"398 -12 CURVE SMOOTH"
);
},
{
closed = 1;
nodes = (
"320 161 OFFCURVE",
"272 215 OFFCURVE",
"272 309 CURVE SMOOTH",
"272 429 OFFCURVE",
"329 544 OFFCURVE",
"446 544 CURVE SMOOTH",
"531 544 OFFCURVE",
"579 490 OFFCURVE",
"579 396 CURVE SMOOTH",
"579 276 OFFCURVE",
"522 161 OFFCURVE",
"405 161 CURVE SMOOTH"
);
}
);
width = 817;
}
);
leftKerningGroup = O;
rightKerningGroup = O;
rightMetricsKey = "=|";
unicode = 004F;
userData = {
anchors = (
);
b = {
};
com.typemytype.robofont.guides = (
);
com.typemytype.robofont.layerData = {
b = {
anchors = (
);
components = (
);
contours = (
);
lib = {
};
name = O;
unicodes = (
);
width = 1597;
};
};
components = (
);
contours = (
);
lib = {
};
name = O;
unicodes = (
);
width = 1604;
};
},
{
color = 1;
glyphname = OE;
lastChange = "2019-08-19 13:53:20 +0000";
layers = (
{
anchors = (
{
name = bottom;
position = "{547, 0}";
},
{
name = top;
position = "{659, 705}";
}
);
background = {
anchors = (
{
name = bottom;
position = "{546, 0}";
},
{
name = top;
position = "{658, 705}";
}
);
paths = (
{
closed = 1;
nodes = (
"1061 705 LINE",
"485 705 LINE SMOOTH",
"264 705 OFFCURVE",
"121 583 OFFCURVE",
"84 353 CURVE SMOOTH",
"48 123 OFFCURVE",
"152 0 OFFCURVE",
"373 0 CURVE SMOOTH",
"949 0 LINE",
"956 39 LINE",
"574 39 LINE",
"621 338 LINE",
"983 338 LINE",
"989 377 LINE",
"627 377 LINE",
"673 666 LINE",
"1055 666 LINE"
);
},
{
closed = 1;
nodes = (
"384 39 LINE SMOOTH",
"181 39 OFFCURVE",
"96 145 OFFCURVE",
"129 353 CURVE SMOOTH",
"162 561 OFFCURVE",
"280 666 OFFCURVE",
"483 666 CURVE SMOOTH",
"631 666 LINE",
"532 39 LINE"
);
}
);
};
layerId = "80A9362C-6FC3-40B9-AFF8-C1622415CC09";
paths = (
{
closed = 1;
nodes = (
"950 0 LINE",
"956 38 LINE",
"573 38 LINE",
"621 338 LINE",
"984 338 LINE",
"990 377 LINE",
"627 377 LINE",
"673 667 LINE",
"1056 667 LINE",
"1062 705 LINE",
"486 705 LINE SMOOTH",
"265 705 OFFCURVE",
"122 583 OFFCURVE",
"85 353 CURVE SMOOTH",
"49 123 OFFCURVE",
"153 0 OFFCURVE",
"374 0 CURVE SMOOTH"
);
},
{
closed = 1;
nodes = (
"180 38 OFFCURVE",
"96 144 OFFCURVE",
"129 353 CURVE SMOOTH",
"162 562 OFFCURVE",
"280 667 OFFCURVE",
"484 667 CURVE SMOOTH",
"632 667 LINE",
"532 38 LINE",
"384 38 LINE SMOOTH"
);
}
);
width = 1039;
},
{
anchors = (
{
name = bottom;
position = "{569, 0}";
},
{
name = top;
position = "{680, 705}";
}
);
background = {
anchors = (
{
name = bottom;
position = "{570, 0}";
},
{
name = top;
position = "{681, 705}";
}
);
paths = (
{
closed = 1;
nodes = (
"1091 705 LINE",
"506 705 LINE SMOOTH",
"257 705 OFFCURVE",
"94 575 OFFCURVE",
"59 353 CURVE SMOOTH",
"23 130 OFFCURVE",
"146 0 OFFCURVE",
"395 0 CURVE SMOOTH",
"980 0 LINE",
"1005 158 LINE",
"693 158 LINE",
"712 279 LINE",
"1002 279 LINE",
"1027 437 LINE",
"737 437 LINE",
"754 547 LINE",
"1066 547 LINE"
);
},
{
closed = 1;
nodes = (
"433 167 LINE SMOOTH",
"305 167 OFFCURVE",
"254 227 OFFCURVE",
"274 353 CURVE SMOOTH",
"294 479 OFFCURVE",
"365 538 OFFCURVE",
"492 538 CURVE SMOOTH",
"556 538 LINE",
"497 167 LINE"
);
}
);
};
layerId = "5B4126D3-DE9F-4159-B940-B7B1ABEC53A3";
paths = (
{
closed = 1;
nodes = (
"979 0 LINE",
"1004 158 LINE",
"692 158 LINE",
"711 279 LINE",
"1001 279 LINE",
"1026 437 LINE",
"736 437 LINE",
"753 547 LINE",
"1065 547 LINE",
"1090 705 LINE",
"505 705 LINE SMOOTH",
"256 705 OFFCURVE",
"93 575 OFFCURVE",
"58 353 CURVE SMOOTH",
"22 130 OFFCURVE",
"145 0 OFFCURVE",
"394 0 CURVE SMOOTH"
);
},
{
closed = 1;
nodes = (
"304 167 OFFCURVE",
"253 227 OFFCURVE",
"273 353 CURVE SMOOTH",
"293 479 OFFCURVE",
"364 538 OFFCURVE",
"491 538 CURVE SMOOTH",
"555 538 LINE",
"496 167 LINE",
"432 167 LINE SMOOTH"
);
}
);
width = 1071;
}
);
leftKerningGroup = O;
leftMetricsKey = O;
rightKerningGroup = E;
rightMetricsKey = E;
unicode = 0152;
},
{
color = 8;
glyphname = P;
lastChange = "2019-08-21 08:19:27 +0000";
layers = (
{
anchors = (
{
name = bottom;
position = "{278, 0}";
},
{
name = top;
position = "{390, 705}";
}
);
background = {
anchors = (
{
name = bottom;
position = "{277, 0}";
},
{
name = top;
position = "{389, 705}";
}
);
paths = (
{
closed = 1;
nodes = (
"169 705 LINE",
"57 0 LINE",
"99 0 LINE",
"146 297 LINE",
"359 297 LINE SMOOTH",
"507 297 OFFCURVE",
"600 370 OFFCURVE",
"621 501 CURVE SMOOTH",
"641 632 OFFCURVE",
"572 705 OFFCURVE",
"424 705 CURVE SMOOTH"
);
},
{
closed = 1;
nodes = (
"153 336 LINE",
"205 666 LINE",
"417 666 LINE SMOOTH",
"541 666 OFFCURVE",
"594 609 OFFCURVE",
"577 501 CURVE SMOOTH",
"560 393 OFFCURVE",
"489 336 OFFCURVE",
"365 336 CURVE SMOOTH"
);
}
);
};
layerId = "80A9362C-6FC3-40B9-AFF8-C1622415CC09";
paths = (
{
closed = 1;
nodes = (
"100 0 LINE",
"147 297 LINE",
"375 297 LINE SMOOTH",
"536 297 OFFCURVE",
"624 386 OFFCURVE",
"624 525 CURVE SMOOTH",
"624 652 OFFCURVE",
"543 705 OFFCURVE",
"410 705 CURVE SMOOTH",
"170 705 LINE",
"58 0 LINE"
);
},
{
closed = 1;
nodes = (
"206 666 LINE",
"410 666 LINE SMOOTH",
"521 666 OFFCURVE",
"580 621 OFFCURVE",
"580 521 CURVE SMOOTH",
"580 405 OFFCURVE",
"509 336 OFFCURVE",
"375 336 CURVE SMOOTH",
"153 336 LINE"
);
}
);
width = 619;
},
{
anchors = (
{
name = bottom;
position = "{306, 0}";
},
{
name = top;
position = "{417, 705}";
}
);
background = {
anchors = (
{
name = bottom;
position = "{307, 0}";
},
{
name = top;
position = "{418, 705}";
}
);
paths = (
{
closed = 1;
nodes = (
"131 705 LINE",
"20 0 LINE",
"227 0 LINE",
"264 234 LINE",
"410 234 LINE SMOOTH",
"571 234 OFFCURVE",
"678 323 OFFCURVE",
"701 470 CURVE SMOOTH",
"724 616 OFFCURVE",
"645 705 OFFCURVE",
"484 705 CURVE SMOOTH"
);
},
{
closed = 1;
nodes = (
"289 392 LINE",
"313 547 LINE",
"421 547 LINE SMOOTH",
"482 547 OFFCURVE",
"512 522 OFFCURVE",
"504 470 CURVE SMOOTH",
"496 417 OFFCURVE",
"458 392 OFFCURVE",
"397 392 CURVE SMOOTH"
);
}
);
};
layerId = "5B4126D3-DE9F-4159-B940-B7B1ABEC53A3";
paths = (
{
closed = 1;
nodes = (
"226 0 LINE",
"263 234 LINE",
"419 234 LINE SMOOTH",
"596 234 OFFCURVE",
"701 327 OFFCURVE",
"701 498 CURVE SMOOTH",
"701 625 OFFCURVE",
"616 705 OFFCURVE",
"458 705 CURVE SMOOTH",
"130 705 LINE",
"19 0 LINE"
);
},
{
closed = 1;
nodes = (
"312 547 LINE",
"410 547 LINE SMOOTH",
"475 547 OFFCURVE",
"504 527 OFFCURVE",
"504 480 CURVE SMOOTH",
"504 423 OFFCURVE",
"471 392 OFFCURVE",
"406 392 CURVE SMOOTH",
"288 392 LINE"
);
}
);
width = 685;
}
);
leftKerningGroup = H;
leftMetricsKey = H;
rightKerningGroup = P;
unicode = 0050;
userData = {
anchors = (
);
b = {
};
com.typemytype.robofont.layerData = {
b = {
anchors = (
);
components = (
);
contours = (
{
points = (
{
segmentType = curve;
smooth = 1;
x = 266;
y = 0;
},
{
segmentType = line;
smooth = 1;
x = 1035;
y = 0;
},
{
smooth = 0;
x = 1084;
y = 0;
},
{
smooth = 0;
x = 1108;
y = 34;
},
{
segmentType = curve;
smooth = 1;
x = 1108;
y = 71;
},
{
smooth = 0;
x = 1108;
y = 107;
},
{
smooth = 0;
x = 1084;
y = 141;
},
{
segmentType = curve;
smooth = 1;
x = 1035;
y = 141;
},
{
segmentType = line;
smooth = 0;
x = 356;
y = 141;
},
{
segmentType = line;
smooth = 0;
x = 356;
y = 665;
},
{
segmentType = line;
smooth = 1;
x = 975;
y = 665;
},
{
smooth = 0;
x = 1024;
y = 665;
},
{
smooth = 0;
x = 1049;
y = 698;
},
{
segmentType = curve;
smooth = 1;
x = 1049;
y = 734;
},
{
smooth = 0;
x = 1049;
y = 770;
},
{
smooth = 0;
x = 1026;
y = 803;
},
{
segmentType = curve;
smooth = 1;
x = 975;
y = 803;
},
{
segmentType = line;
smooth = 0;
x = 356;
y = 803;
},
{
segmentType = line;
smooth = 0;
x = 356;
y = 1285;
},
{
segmentType = line;
smooth = 1;
x = 1007;
y = 1285;
},
{
smooth = 0;
x = 1056;
y = 1285;
},
{
smooth = 0;
x = 1080;
y = 1319;
},
{
segmentType = curve;
smooth = 1;
x = 1080;
y = 1356;
},
{
smooth = 0;
x = 1080;
y = 1392;
},
{
smooth = 0;
x = 1056;
y = 1426;
},
{
segmentType = curve;
smooth = 1;
x = 1007;
y = 1426;
},
{
segmentType = line;
smooth = 1;
x = 261;
y = 1426;
},
{
smooth = 0;
x = 213;
y = 1426;
},
{
smooth = 0;
x = 178;
y = 1383;
},
{
segmentType = curve;
smooth = 1;
x = 178;
y = 1340;
},
{
segmentType = line;
smooth = 1;
x = 178;
y = 86;
},
{
smooth = 0;
x = 178;
y = 41;
},
{
smooth = 0;
x = 222;
y = 0;
}
);
}
);
lib = {
};
name = P;
unicodes = (
);
width = 1201;
};
};
components = (
);
contours = (
);
lib = {
};
name = P;
unicodes = (
);
width = 1319;
};
},
{
color = 1;
glyphname = Thorn;
lastChange = "2019-08-19 13:53:20 +0000";
layers = (
{
anchors = (
{
name = bottom;
position = "{278, 0}";
},
{
name = top;
position = "{390, 705}";
}
);
background = {
anchors = (
{
name = bottom;
position = "{277, 0}";
},
{
name = top;
position = "{389, 705}";
}
);
paths = (
{
closed = 1;
nodes = (
"189 569 LINE",
"211 705 LINE",
"169 705 LINE",
"57 0 LINE",
"99 0 LINE",
"125 161 LINE",
"338 161 LINE SMOOTH",
"486 161 OFFCURVE",
"578 234 OFFCURVE",
"599 365 CURVE SMOOTH",
"620 496 OFFCURVE",
"550 569 OFFCURVE",
"402 569 CURVE SMOOTH"
);
},
{
closed = 1;
nodes = (
"131 200 LINE",
"183 530 LINE",
"395 530 LINE SMOOTH",
"519 530 OFFCURVE",
"572 473 OFFCURVE",
"555 365 CURVE SMOOTH",
"538 257 OFFCURVE",
"467 200 OFFCURVE",
"343 200 CURVE SMOOTH"
);
}
);
};
layerId = "80A9362C-6FC3-40B9-AFF8-C1622415CC09";
paths = (
{
closed = 1;
nodes = (
"99 0 LINE",
"125 161 LINE",
"339 161 LINE SMOOTH",
"487 161 OFFCURVE",
"578 234 OFFCURVE",
"599 365 CURVE SMOOTH",
"620 496 OFFCURVE",
"551 569 OFFCURVE",
"403 569 CURVE SMOOTH",
"189 569 LINE",
"211 705 LINE",
"170 705 LINE",
"58 0 LINE"
);
},
{
closed = 1;
nodes = (
"183 531 LINE",
"396 531 LINE SMOOTH",
"520 531 OFFCURVE",
"573 473 OFFCURVE",
"556 365 CURVE SMOOTH",
"539 257 OFFCURVE",
"468 199 OFFCURVE",
"344 199 CURVE SMOOTH",
"131 199 LINE"
);
}
);
width = 616;
},
{
anchors = (
{
name = bottom;
position = "{310, 0}";
},
{
name = top;
position = "{420, 705}";
}
);
background = {
anchors = (
{
name = bottom;
position = "{311, 0}";
},
{
name = top;
position = "{421, 705}";
}
);
paths = (
{
closed = 1;
nodes = (
"322 603 LINE",
"338 705 LINE",
"131 705 LINE",
"20 0 LINE",
"227 0 LINE",
"248 132 LINE",
"398 132 LINE SMOOTH",
"559 132 OFFCURVE",
"665 222 OFFCURVE",
"688 368 CURVE SMOOTH",
"711 514 OFFCURVE",
"633 603 OFFCURVE",
"472 603 CURVE SMOOTH"
);
},
{
closed = 1;
nodes = (
"273 290 LINE",
"297 445 LINE",
"409 445 LINE SMOOTH",
"470 445 OFFCURVE",
"500 421 OFFCURVE",
"492 368 CURVE SMOOTH",
"484 315 OFFCURVE",
"446 290 OFFCURVE",
"385 290 CURVE SMOOTH"
);
}
);
};
layerId = "5B4126D3-DE9F-4159-B940-B7B1ABEC53A3";
paths = (
{
closed = 1;
nodes = (
"226 0 LINE",
"247 132 LINE",
"397 132 LINE SMOOTH",
"558 132 OFFCURVE",
"664 222 OFFCURVE",
"687 368 CURVE SMOOTH",
"710 514 OFFCURVE",
"632 603 OFFCURVE",
"471 603 CURVE SMOOTH",
"321 603 LINE",
"337 705 LINE",
"130 705 LINE",
"19 0 LINE"
);
},
{
closed = 1;
nodes = (
"296 445 LINE",
"408 445 LINE SMOOTH",
"469 445 OFFCURVE",
"499 421 OFFCURVE",
"491 368 CURVE SMOOTH",
"483 315 OFFCURVE",
"445 290 OFFCURVE",
"384 290 CURVE SMOOTH",
"272 290 LINE"
);
}
);
width = 687;
}
);
leftKerningGroup = H;
leftMetricsKey = H;
rightKerningGroup = THORN;
unicode = 00DE;
},
{
color = 0;
glyphname = R;
lastChange = "2019-08-21 07:55:44 +0000";
layers = (
{
background = {
anchors = (
{
name = bottom;
position = "{295, 0}";
},
{
name = top;
position = "{407, 705}";
}
);
paths = (
{
closed = 1;
nodes = (
"99 0 LINE",
"149 312 LINE",
"306 312 LINE SMOOTH",
"384 312 OFFCURVE",
"421 295 OFFCURVE",
"447 226 CURVE SMOOTH",
"533 0 LINE",
"579 0 LINE",
"487 242 LINE SMOOTH",
"464 302 OFFCURVE",
"434 327 OFFCURVE",
"383 327 CURVE SMOOTH",
"375 327 LINE",
"362 315 LINE",
"506 315 OFFCURVE",
"602 385 OFFCURVE",
"622 508 CURVE SMOOTH",
"642 635 OFFCURVE",
"572 705 OFFCURVE",
"424 705 CURVE SMOOTH",
"169 705 LINE",
"57 0 LINE"
);
},
{
closed = 1;
nodes = (
"205 666 LINE",
"414 666 LINE SMOOTH",
"540 666 OFFCURVE",
"594 612 OFFCURVE",
"578 509 CURVE SMOOTH",
"561 405 OFFCURVE",
"490 351 OFFCURVE",
"364 351 CURVE SMOOTH",
"155 351 LINE"
);
}
);
};
layerId = "80A9362C-6FC3-40B9-AFF8-C1622415CC09";
paths = (
{
closed = 1;
nodes = (
"100 0 LINE",
"150 312 LINE",
"317 312 LINE SMOOTH",
"395 312 OFFCURVE",
"428 288 OFFCURVE",
"454 221 CURVE SMOOTH",
"538 0 LINE",
"580 0 LINE",
"491 234 LINE SMOOTH",
"468 294 OFFCURVE",
"434 327 OFFCURVE",
"381 327 CURVE SMOOTH",
"373 327 LINE",
"383 316 LINE",
"534 316 OFFCURVE",
"624 392 OFFCURVE",
"624 520 CURVE SMOOTH",
"624 634 OFFCURVE",
"552 705 OFFCURVE",
"404 705 CURVE SMOOTH",
"170 705 LINE",
"58 0 LINE"
);
},
{
closed = 1;
nodes = (
"206 666 LINE",
"404 666 LINE SMOOTH",
"526 666 OFFCURVE",
"580 616 OFFCURVE",
"580 519 CURVE SMOOTH",
"580 412 OFFCURVE",
"510 353 OFFCURVE",
"389 352 CURVE SMOOTH",
"156 351 LINE"
);
}
);
width = 654;
},
{
anchors = (
{
name = bottom;
position = "{322, 0}";
},
{
name = top;
position = "{432, 705}";
}
);
background = {
anchors = (
{
name = bottom;
position = "{323, 0}";
},
{
name = top;
position = "{433, 705}";
}
);
paths = (
{
closed = 1;
nodes = (
"227 0 LINE",
"267 255 LINE",
"306 255 LINE SMOOTH",
"329 255 OFFCURVE",
"351 246 OFFCURVE",
"359 224 CURVE SMOOTH",
"447 0 LINE",
"674 0 LINE",
"598 193 LINE SMOOTH",
"577 248 OFFCURVE",
"535 276 OFFCURVE",
"478 276 CURVE SMOOTH",
"423 276 LINE",
"413 257 LINE",
"575 257 OFFCURVE",
"681 342 OFFCURVE",
"703 480 CURVE SMOOTH",
"725 620 OFFCURVE",
"645 705 OFFCURVE",
"484 705 CURVE SMOOTH",
"131 705 LINE",
"20 0 LINE"
);
},
{
closed = 1;
nodes = (
"313 547 LINE",
"421 547 LINE SMOOTH",
"482 547 OFFCURVE",
"513 523 OFFCURVE",
"505 474 CURVE SMOOTH",
"497 423 OFFCURVE",
"459 400 OFFCURVE",
"398 400 CURVE SMOOTH",
"290 400 LINE"
);
}
);
};
layerId = "5B4126D3-DE9F-4159-B940-B7B1ABEC53A3";
paths = (
{
closed = 1;
nodes = (
"226 0 LINE",
"266 255 LINE",
"313 254 LINE SMOOTH",
"346 253 OFFCURVE",
"364 242 OFFCURVE",
"376 211 CURVE SMOOTH",
"461 -1 LINE",
"673 0 LINE",
"602 178 LINE SMOOTH",
"574 249 OFFCURVE",
"524 276 OFFCURVE",
"467 276 CURVE SMOOTH",
"412 276 LINE",
"422 257 LINE",
"594 257 OFFCURVE",
"706 340 OFFCURVE",
"706 494 CURVE SMOOTH",
"706 628 OFFCURVE",
"614 705 OFFCURVE",
"451 705 CURVE SMOOTH",
"130 705 LINE",
"19 0 LINE"
);
},
{
closed = 1;
nodes = (
"312 547 LINE",
"410 547 LINE SMOOTH",
"475 547 OFFCURVE",
"505 526 OFFCURVE",
"505 482 CURVE SMOOTH",
"505 426 OFFCURVE",
"471 400 OFFCURVE",
"407 400 CURVE SMOOTH",
"289 400 LINE"
);
}
);
width = 712;
}
);
leftKerningGroup = H;
leftMetricsKey = H;
rightKerningGroup = R;
unicode = 0052;
userData = {
anchors = (
);
b = {
};
com.typemytype.robofont.guides = (
);
com.typemytype.robofont.layerData = {
b = {
anchors = (
);
components = (
);
contours = (
{
points = (
{
segmentType = curve;
smooth = 1;
x = 267;
y = 0;
},
{
smooth = 0;
x = 311;
y = 0;
},
{
smooth = 0;
x = 356;
y = 27;
},
{
segmentType = curve;
smooth = 1;
x = 356;
y = 84;
},
{
segmentType = line;
smooth = 0;
x = 356;
y = 628;
},
{
segmentType = line;
smooth = 1;
x = 669;
y = 628;
},
{
smooth = 0;
x = 962;
y = 628;
},
{
smooth = 0;
x = 1182;
y = 722;
},
{
segmentType = curve;
smooth = 1;
x = 1182;
y = 1026;
},
{
smooth = 0;
x = 1182;
y = 1324;
},
{
smooth = 0;
x = 993;
y = 1426;
},
{
segmentType = curve;
smooth = 1;
x = 684;
y = 1426;
},
{
segmentType = line;
smooth = 1;
x = 268;
y = 1426;
},
{
smooth = 0;
x = 217;
y = 1426;
},
{
smooth = 0;
x = 178;
y = 1387;
},
{
segmentType = curve;
smooth = 1;
x = 178;
y = 1339;
},
{
segmentType = line;
smooth = 1;
x = 178;
y = 84;
},
{
smooth = 0;
x = 178;
y = 28;
},
{
smooth = 0;
x = 222;
y = 0;
}
);
},
{
points = (
{
segmentType = line;
smooth = 0;
x = 356;
y = 764;
},
{
segmentType = line;
smooth = 0;
x = 356;
y = 1285;
},
{
segmentType = line;
smooth = 1;
x = 684;
y = 1285;
},
{
smooth = 0;
x = 914;
y = 1285;
},
{
smooth = 0;
x = 1008;
y = 1210;
},
{
segmentType = curve;
smooth = 1;
x = 1008;
y = 1026;
},
{
smooth = 0;
x = 1008;
y = 838;
},
{
smooth = 0;
x = 901;
y = 764;
},
{
segmentType = curve;
smooth = 1;
x = 670;
y = 764;
}
);
}
);
lib = {
};
name = R;
unicodes = (
);
width = 1363;
};
};
components = (
);
contours = (
);
lib = {
};
name = R;
unicodes = (
);
width = 1408;
};
},
{
color = 0;
glyphname = S;
lastChange = "2019-08-20 16:04:05 +0000";
layers = (
{
anchors = (
{
name = bottom;
position = "{269, 0}";
},
{
name = top;
position = "{375, 705}";
}
);
background = {
anchors = (
{
name = bottom;
position = "{271, 0}";
},
{
name = top;
position = "{377, 705}";
}
);
paths = (
{
closed = 1;
nodes = (
"422 -8 OFFCURVE",
"527 69 OFFCURVE",
"545 180 CURVE SMOOTH",
"560 275 OFFCURVE",
"504 325 OFFCURVE",
"372 353 CURVE SMOOTH",
"276 373 LINE SMOOTH",
"179 393 OFFCURVE",
"142 435 OFFCURVE",
"155 513 CURVE SMOOTH",
"170 609 OFFCURVE",
"258 672 OFFCURVE",
"376 672 CURVE SMOOTH",
"461 672 OFFCURVE",
"520 647 OFFCURVE",
"573 586 CURVE",
"599 622 LINE",
"551 682 OFFCURVE",
"477 713 OFFCURVE",
"382 713 CURVE SMOOTH",
"241 713 OFFCURVE",
"129 632 OFFCURVE",
"111 513 CURVE SMOOTH",
"95 413 OFFCURVE",
"147 356 OFFCURVE",
"268 331 CURVE SMOOTH",
"364 311 LINE SMOOTH",
"472 288 OFFCURVE",
"512 251 OFFCURVE",
"501 179 CURVE SMOOTH",
"487 91 OFFCURVE",
"410 33 OFFCURVE",
"277 33 CURVE SMOOTH",
"172 33 OFFCURVE",
"113 58 OFFCURVE",
"52 115 CURVE",
"26 79 LINE",
"81 22 OFFCURVE",
"160 -8 OFFCURVE",
"270 -8 CURVE SMOOTH"
);
}
);
};
layerId = "80A9362C-6FC3-40B9-AFF8-C1622415CC09";
paths = (
{
closed = 1;
nodes = (
"432 -8 OFFCURVE",
"542 62 OFFCURVE",
"542 188 CURVE SMOOTH",
"542 270 OFFCURVE",
"482 320 OFFCURVE",
"369 350 CURVE SMOOTH",
"274 375 LINE SMOOTH",
"187 398 OFFCURVE",
"150 434 OFFCURVE",
"150 503 CURVE SMOOTH",
"150 603 OFFCURVE",
"241 672 OFFCURVE",
"357 672 CURVE SMOOTH",
"436 672 OFFCURVE",
"509 645 OFFCURVE",
"569 585 CURVE",
"590 620 LINE",
"533 682 OFFCURVE",
"446 713 OFFCURVE",
"359 713 CURVE SMOOTH",
"218 713 OFFCURVE",
"106 626 OFFCURVE",
"106 503 CURVE SMOOTH",
"106 412 OFFCURVE",
"161 363 OFFCURVE",
"265 334 CURVE SMOOTH",
"360 308 LINE SMOOTH",
"456 282 OFFCURVE",
"498 246 OFFCURVE",
"498 184 CURVE SMOOTH",
"498 89 OFFCURVE",
"413 33 OFFCURVE",
"296 33 CURVE SMOOTH",
"198 33 OFFCURVE",
"119 53 OFFCURVE",
"49 115 CURVE",
"30 81 LINE",
"96 16 OFFCURVE",
"193 -8 OFFCURVE",
"294 -8 CURVE SMOOTH"
);
}
);
width = 598;
},
{
anchors = (
{
name = bottom;
position = "{337, 0}";
},
{
name = top;
position = "{346, 705}";
}
);
background = {
anchors = (
{
name = bottom;
position = "{295, 0}";
},
{
name = top;
position = "{415, 705}";
}
);
paths = (
{
closed = 1;
nodes = (
"474 -12 OFFCURVE",
"609 80 OFFCURVE",
"632 222 CURVE SMOOTH",
"648 325 OFFCURVE",
"596 392 OFFCURVE",
"471 420 CURVE SMOOTH",
"356 445 LINE SMOOTH",
"303 457 OFFCURVE",
"289 471 OFFCURVE",
"293 492 CURVE SMOOTH",
"298 525 OFFCURVE",
"337 548 OFFCURVE",
"405 548 CURVE SMOOTH",
"480 548 OFFCURVE",
"546 527 OFFCURVE",
"589 493 CURVE",
"670 643 LINE",
"622 688 OFFCURVE",
"530 717 OFFCURVE",
"433 717 CURVE SMOOTH",
"250 717 OFFCURVE",
"111 623 OFFCURVE",
"89 482 CURVE SMOOTH",
"72 375 OFFCURVE",
"123 307 OFFCURVE",
"248 280 CURVE SMOOTH",
"363 254 LINE SMOOTH",
"415 242 OFFCURVE",
"431 228 OFFCURVE",
"427 205 CURVE SMOOTH",
"423 179 OFFCURVE",
"395 157 OFFCURVE",
"315 157 CURVE SMOOTH",
"234 157 OFFCURVE",
"146 184 OFFCURVE",
"92 222 CURVE",
"11 62 LINE",
"69 17 OFFCURVE",
"176 -12 OFFCURVE",
"288 -12 CURVE SMOOTH"
);
}
);
};
layerId = "5B4126D3-DE9F-4159-B940-B7B1ABEC53A3";
paths = (
{
closed = 1;
nodes = (
"493 -12 OFFCURVE",
"631 72 OFFCURVE",
"631 222 CURVE SMOOTH",
"631 324 OFFCURVE",
"565 385 OFFCURVE",
"469 412 CURVE SMOOTH",
"355 444 LINE SMOOTH",
"307 458 OFFCURVE",
"290 467 OFFCURVE",
"290 492 CURVE SMOOTH",
"290 531 OFFCURVE",
"331 548 OFFCURVE",
"385 548 CURVE SMOOTH",
"454 548 OFFCURVE",
"544 518 OFFCURVE",
"594 480 CURVE",
"664 623 LINE",
"594 683 OFFCURVE",
"497 717 OFFCURVE",
"406 717 CURVE SMOOTH",
"223 717 OFFCURVE",
"87 628 OFFCURVE",
"87 478 CURVE SMOOTH",
"87 375 OFFCURVE",
"150 314 OFFCURVE",
"247 287 CURVE SMOOTH",
"361 255 LINE SMOOTH",
"408 242 OFFCURVE",
"426 228 OFFCURVE",
"426 206 CURVE SMOOTH",
"426 172 OFFCURVE",
"387 157 OFFCURVE",
"332 157 CURVE SMOOTH",
"247 157 OFFCURVE",
"148 184 OFFCURVE",
"90 227 CURVE",
"12 78 LINE",
"94 10 OFFCURVE",
"212 -12 OFFCURVE",
"315 -12 CURVE SMOOTH"
);
}
);
width = 661;
}
);
leftKerningGroup = S;
rightKerningGroup = S;
unicode = 0053;
userData = {
anchors = (
);
b = {
};
com.typemytype.robofont.layerData = {
b = {
anchors = (
);
components = (
);
contours = (
);
lib = {
};
name = S;
unicodes = (
);
width = 1274;
};
};
components = (
);
contours = (
);
lib = {
};
name = S;
unicodes = (
);
width = 1317;
};
},
{
color = 1;
glyphname = Germandbls;
lastChange = "2019-08-19 13:53:20 +0000";
layers = (
{
background = {
paths = (
{
closed = 1;
nodes = (
"99 0 LINE",
"173 467 LINE SMOOTH",
"195 604 OFFCURVE",
"283 673 OFFCURVE",
"427 673 CURVE SMOOTH",
"546 673 OFFCURVE",
"604 621 OFFCURVE",
"588 524 CURVE SMOOTH",
"573 427 OFFCURVE",
"499 374 OFFCURVE",
"396 374 CURVE SMOOTH",
"276 374 LINE",
"269 335 LINE",
"416 335 LINE SMOOTH",
"537 335 OFFCURVE",
"588 281 OFFCURVE",
"573 186 CURVE SMOOTH",
"558 91 OFFCURVE",
"490 33 OFFCURVE",
"380 33 CURVE SMOOTH",
"310 33 OFFCURVE",
"259 50 OFFCURVE",
"215 97 CURVE",
"187 62 LINE",
"226 17 OFFCURVE",
"292 -7 OFFCURVE",
"373 -7 CURVE SMOOTH",
"507 -7 OFFCURVE",
"597 62 OFFCURVE",
"617 186 CURVE SMOOTH",
"633 290 OFFCURVE",
"577 354 OFFCURVE",
"475 367 CURVE",
"473 353 LINE",
"557 370 OFFCURVE",
"619 440 OFFCURVE",
"633 529 CURVE SMOOTH",
"651 643 OFFCURVE",
"572 713 OFFCURVE",
"432 713 CURVE SMOOTH",
"269 713 OFFCURVE",
"157 630 OFFCURVE",
"132 470 CURVE SMOOTH",
"57 0 LINE"
);
}
);
};
layerId = "80A9362C-6FC3-40B9-AFF8-C1622415CC09";
paths = (
{
closed = 1;
nodes = (
"507 -7 OFFCURVE",
"597 62 OFFCURVE",
"617 186 CURVE SMOOTH",
"633 290 OFFCURVE",
"577 354 OFFCURVE",
"475 367 CURVE",
"473 353 LINE",
"557 370 OFFCURVE",
"619 440 OFFCURVE",
"633 529 CURVE SMOOTH",
"651 643 OFFCURVE",
"572 713 OFFCURVE",
"433 713 CURVE SMOOTH",
"270 713 OFFCURVE",
"158 630 OFFCURVE",
"133 470 CURVE SMOOTH",
"58 0 LINE",
"99 0 LINE",
"173 467 LINE SMOOTH",
"195 605 OFFCURVE",
"283 674 OFFCURVE",
"428 674 CURVE SMOOTH",
"547 674 OFFCURVE",
"605 622 OFFCURVE",
"589 524 CURVE SMOOTH",
"574 427 OFFCURVE",
"500 374 OFFCURVE",
"397 374 CURVE SMOOTH",
"276 374 LINE",
"269 335 LINE",
"417 335 LINE SMOOTH",
"538 335 OFFCURVE",
"589 281 OFFCURVE",
"574 186 CURVE SMOOTH",
"559 90 OFFCURVE",
"490 32 OFFCURVE",
"380 32 CURVE SMOOTH",
"310 32 OFFCURVE",
"259 49 OFFCURVE",
"215 96 CURVE",
"188 62 LINE",
"226 17 OFFCURVE",
"293 -7 OFFCURVE",
"374 -7 CURVE SMOOTH"
);
}
);
width = 697;
},
{
background = {
paths = (
{
closed = 1;
nodes = (
"227 0 LINE",
"295 432 LINE SMOOTH",
"308 515 OFFCURVE",
"355 554 OFFCURVE",
"443 554 CURVE SMOOTH",
"510 554 OFFCURVE",
"539 533 OFFCURVE",
"533 492 CURVE SMOOTH",
"526 451 OFFCURVE",
"494 429 OFFCURVE",
"439 429 CURVE SMOOTH",
"378 429 LINE",
"353 274 LINE",
"427 274 LINE SMOOTH",
"501 274 OFFCURVE",
"531 254 OFFCURVE",
"524 210 CURVE SMOOTH",
"518 173 OFFCURVE",
"487 148 OFFCURVE",
"446 148 CURVE SMOOTH",
"406 148 OFFCURVE",
"375 159 OFFCURVE",
"337 184 CURVE",
"261 39 LINE",
"312 2 OFFCURVE",
"364 -12 OFFCURVE",
"445 -12 CURVE SMOOTH",
"595 -12 OFFCURVE",
"696 67 OFFCURVE",
"717 195 CURVE SMOOTH",
"732 293 OFFCURVE",
"680 364 OFFCURVE",
"587 375 CURVE",
"584 354 LINE",
"667 383 OFFCURVE",
"720 444 OFFCURVE",
"732 520 CURVE SMOOTH",
"751 641 OFFCURVE",
"655 716 OFFCURVE",
"481 716 CURVE SMOOTH",
"255 716 OFFCURVE",
"118 618 OFFCURVE",
"88 432 CURVE SMOOTH",
"20 0 LINE"
);
}
);
};
layerId = "5B4126D3-DE9F-4159-B940-B7B1ABEC53A3";
paths = (
{
closed = 1;
nodes = (
"593 -12 OFFCURVE",
"694 67 OFFCURVE",
"715 195 CURVE SMOOTH",
"730 293 OFFCURVE",
"678 364 OFFCURVE",
"585 375 CURVE",
"582 354 LINE",
"665 383 OFFCURVE",
"718 444 OFFCURVE",
"730 520 CURVE SMOOTH",
"749 641 OFFCURVE",
"653 716 OFFCURVE",
"479 716 CURVE SMOOTH",
"253 716 OFFCURVE",
"116 618 OFFCURVE",
"86 432 CURVE SMOOTH",
"18 0 LINE",
"225 0 LINE",
"293 432 LINE SMOOTH",
"306 515 OFFCURVE",
"353 554 OFFCURVE",
"441 554 CURVE SMOOTH",
"508 554 OFFCURVE",
"537 533 OFFCURVE",
"531 492 CURVE SMOOTH",
"524 451 OFFCURVE",
"492 429 OFFCURVE",
"437 429 CURVE SMOOTH",
"376 429 LINE",
"351 274 LINE",
"425 274 LINE SMOOTH",
"499 274 OFFCURVE",
"529 254 OFFCURVE",
"522 210 CURVE SMOOTH",
"516 173 OFFCURVE",
"485 148 OFFCURVE",
"444 148 CURVE SMOOTH",
"404 148 OFFCURVE",
"373 159 OFFCURVE",
"335 184 CURVE",
"259 39 LINE",
"310 2 OFFCURVE",
"362 -12 OFFCURVE",
"443 -12 CURVE SMOOTH"
);
}
);
width = 757;
}
);
leftKerningGroup = H;
leftMetricsKey = H;
rightKerningGroup = Germandbls;
rightMetricsKey = B;
unicode = 1E9E;
},
{
color = 1;
glyphname = Schwa;
lastChange = "2019-08-19 13:53:20 +0000";
layers = (
{
anchors = (
{
name = bottom;
position = "{333, 0}";
},
{
name = top;
position = "{445, 705}";
}
);
background = {
anchors = (
{
name = bottom;
position = "{332, 0}";
},
{
name = top;
position = "{444, 705}";
}
);
paths = (
{
closed = 1;
nodes = (
"526 -8 OFFCURVE",
"666 129 OFFCURVE",
"701 353 CURVE SMOOTH",
"737 577 OFFCURVE",
"632 713 OFFCURVE",
"429 713 CURVE SMOOTH",
"318 713 OFFCURVE",
"227 681 OFFCURVE",
"152 618 CURVE",
"168 583 LINE",
"246 646 OFFCURVE",
"316 672 OFFCURVE",
"422 672 CURVE SMOOTH",
"603 672 OFFCURVE",
"688 556 OFFCURVE",
"656 353 CURVE SMOOTH",
"624 151 OFFCURVE",
"508 33 OFFCURVE",
"346 33 CURVE SMOOTH",
"166 33 OFFCURVE",
"95 146 OFFCURVE",
"128 353 CURVE",
"114 337 LINE",
"659 337 LINE",
"665 376 LINE",
"88 376 LINE",
"83 348 LINE SMOOTH",
"49 132 OFFCURVE",
"130 -8 OFFCURVE",
"340 -8 CURVE SMOOTH"
);
}
);
};
layerId = "80A9362C-6FC3-40B9-AFF8-C1622415CC09";
paths = (
{
closed = 1;
nodes = (
"527 -8 OFFCURVE",
"666 129 OFFCURVE",
"701 353 CURVE SMOOTH",
"737 577 OFFCURVE",
"633 713 OFFCURVE",
"430 713 CURVE SMOOTH",
"319 713 OFFCURVE",
"228 681 OFFCURVE",
"153 618 CURVE",
"169 584 LINE",
"247 647 OFFCURVE",
"317 673 OFFCURVE",
"423 673 CURVE SMOOTH",
"604 673 OFFCURVE",
"690 556 OFFCURVE",
"658 353 CURVE SMOOTH",
"626 151 OFFCURVE",
"508 32 OFFCURVE",
"346 32 CURVE SMOOTH",
"165 32 OFFCURVE",
"95 146 OFFCURVE",
"128 353 CURVE",
"114 337 LINE",
"660 337 LINE",
"666 376 LINE",
"89 376 LINE",
"84 348 LINE SMOOTH",
"50 132 OFFCURVE",
"131 -8 OFFCURVE",
"341 -8 CURVE SMOOTH"
);
}
);
width = 750;
},
{
anchors = (
{
name = bottom;
position = "{373, 0}";
},
{
name = top;
position = "{484, 705}";
}
);
background = {
anchors = (
{
name = bottom;
position = "{374, 0}";
},
{
name = top;
position = "{485, 705}";
}
);
paths = (
{
closed = 1;
nodes = (
"584 -12 OFFCURVE",
"756 132 OFFCURVE",
"790 351 CURVE SMOOTH",
"826 577 OFFCURVE",
"691 717 OFFCURVE",
"458 717 CURVE SMOOTH",
"332 717 OFFCURVE",
"218 688 OFFCURVE",
"137 645 CURVE",
"178 489 LINE",
"249 525 OFFCURVE",
"329 544 OFFCURVE",
"403 544 CURVE SMOOTH",
"539 544 OFFCURVE",
"597 480 OFFCURVE",
"577 353 CURVE SMOOTH",
"555 215 OFFCURVE",
"492 152 OFFCURVE",
"392 152 CURVE SMOOTH",
"291 152 OFFCURVE",
"247 215 OFFCURVE",
"269 353 CURVE",
"202 274 LINE",
"618 274 LINE",
"643 429 LINE",
"71 429 LINE",
"61 369 LINE SMOOTH",
"26 145 OFFCURVE",
"133 -12 OFFCURVE",
"376 -12 CURVE SMOOTH"
);
}
);
};
layerId = "5B4126D3-DE9F-4159-B940-B7B1ABEC53A3";
paths = (
{
closed = 1;
nodes = (
"583 -12 OFFCURVE",
"755 132 OFFCURVE",
"789 351 CURVE SMOOTH",
"825 577 OFFCURVE",
"690 717 OFFCURVE",
"457 717 CURVE SMOOTH",
"331 717 OFFCURVE",
"217 688 OFFCURVE",
"136 645 CURVE",
"177 489 LINE",
"248 525 OFFCURVE",
"328 544 OFFCURVE",
"402 544 CURVE SMOOTH",
"538 544 OFFCURVE",
"596 480 OFFCURVE",
"576 353 CURVE SMOOTH",
"554 215 OFFCURVE",
"491 152 OFFCURVE",
"391 152 CURVE SMOOTH",
"290 152 OFFCURVE",
"246 215 OFFCURVE",
"268 353 CURVE",
"201 274 LINE",
"617 274 LINE",
"642 429 LINE",
"70 429 LINE",
"60 369 LINE SMOOTH",
"25 145 OFFCURVE",
"132 -12 OFFCURVE",
"375 -12 CURVE SMOOTH"
);
}
);
width = 814;
}
);
leftKerningGroup = O;
leftMetricsKey = O;
rightKerningGroup = O;
rightMetricsKey = O;
unicode = 018F;
},
{
color = 8;
glyphname = T;
lastChange = "2019-08-19 13:53:20 +0000";
layers = (
{
anchors = (
{
name = bottom;
position = "{254, 0}";
},
{
name = center;
position = "{311, 358}";
},
{
name = top;
position = "{366, 705}";
}
);
background = {
anchors = (
{
name = bottom;
position = "{254, 0}";
},
{
name = center;
position = "{311, 358}";
},
{
name = top;
position = "{366, 705}";
}
);
paths = (
{
closed = 1;
nodes = (
"275 0 LINE",
"381 666 LINE",
"650 666 LINE",
"656 705 LINE",
"76 705 LINE",
"70 666 LINE",
"339 666 LINE",
"233 0 LINE"
);
}
);
};
layerId = "80A9362C-6FC3-40B9-AFF8-C1622415CC09";
paths = (
{
closed = 1;
nodes = (
"274 0 LINE",
"380 667 LINE",
"650 667 LINE",
"656 705 LINE",
"76 705 LINE",
"70 667 LINE",
"339 667 LINE",
"233 0 LINE"
);
}
);
width = 586;
},
{
anchors = (
{
name = bottom;
position = "{289, 0}";
},
{
name = center;
position = "{344, 358}";
},
{
name = top;
position = "{399, 705}";
}
);
background = {
anchors = (
{
name = bottom;
position = "{288, 0}";
},
{
name = center;
position = "{343, 358}";
},
{
name = top;
position = "{398, 705}";
}
);
paths = (
{
closed = 1;
nodes = (
"391 0 LINE",
"476 538 LINE",
"693 538 LINE",
"719 705 LINE",
"79 705 LINE",
"53 538 LINE",
"269 538 LINE",
"184 0 LINE"
);
}
);
};
layerId = "5B4126D3-DE9F-4159-B940-B7B1ABEC53A3";
paths = (
{
closed = 1;
nodes = (
"392 0 LINE",
"477 538 LINE",
"694 538 LINE",
"720 705 LINE",
"80 705 LINE",
"54 538 LINE",
"270 538 LINE",
"185 0 LINE"
);
}
);
width = 655;
}
);
leftKerningGroup = T;
rightKerningGroup = T;
unicode = 0054;
userData = {
anchors = (
);
b = {
};
com.typemytype.robofont.layerData = {
b = {
anchors = (
);
components = (
);
contours = (
{
points = (
{
segmentType = curve;
smooth = 1;
x = 581;
y = 0;
},
{
segmentType = line;
smooth = 1;
x = 1350;
y = 0;
},
{
smooth = 0;
x = 1399;
y = 0;
},
{
smooth = 0;
x = 1423;
y = 34;
},
{
segmentType = curve;
smooth = 1;
x = 1423;
y = 71;
},
{
smooth = 0;
x = 1423;
y = 107;
},
{
smooth = 0;
x = 1399;
y = 141;
},
{
segmentType = curve;
smooth = 1;
x = 1350;
y = 141;
},
{
segmentType = line;
smooth = 0;
x = 671;
y = 141;
},
{
segmentType = line;
smooth = 0;
x = 671;
y = 665;
},
{
segmentType = line;
smooth = 1;
x = 1290;
y = 665;
},
{
smooth = 0;
x = 1339;
y = 665;
},
{
smooth = 0;
x = 1364;
y = 698;
},
{
segmentType = curve;
smooth = 1;
x = 1364;
y = 734;
},
{
smooth = 0;
x = 1364;
y = 770;
},
{
smooth = 0;
x = 1341;
y = 803;
},
{
segmentType = curve;
smooth = 1;
x = 1290;
y = 803;
},
{
segmentType = line;
smooth = 0;
x = 671;
y = 803;
},
{
segmentType = line;
smooth = 0;
x = 671;
y = 1285;
},
{
segmentType = line;
smooth = 1;
x = 1322;
y = 1285;
},
{
smooth = 0;
x = 1371;
y = 1285;
},
{
smooth = 0;
x = 1395;
y = 1319;
},
{
segmentType = curve;
smooth = 1;
x = 1395;
y = 1356;
},
{
smooth = 0;
x = 1395;
y = 1392;
},
{
smooth = 0;
x = 1371;
y = 1426;
},
{
segmentType = curve;
smooth = 1;
x = 1322;
y = 1426;
},
{
segmentType = line;
smooth = 1;
x = 576;
y = 1426;
},
{
smooth = 0;
x = 528;
y = 1426;
},
{
smooth = 0;
x = 493;
y = 1383;
},
{
segmentType = curve;
smooth = 1;
x = 493;
y = 1340;
},
{
segmentType = line;
smooth = 1;
x = 493;
y = 86;
},
{
smooth = 0;
x = 493;
y = 41;
},
{
smooth = 0;
x = 537;
y = 0;
}
);
}
);
lib = {
};
name = T;
unicodes = (
);
width = 1158;
};
};
components = (
);
contours = (
);
lib = {
};
name = T;
unicodes = (
);
width = 1199;
};
},
{
color = 8;
glyphname = U;
lastChange = "2019-08-21 09:48:00 +0000";
layers = (
{
anchors = (
{
name = bottom;
position = "{321, 0}";
},
{
name = ogonek;
position = "{378, 0}";
},
{
name = top;
position = "{433, 705}";
},
{
name = topright;
position = "{661, 705}";
}
);
background = {
anchors = (
{
name = bottom;
position = "{321, 0}";
},
{
name = ogonek;
position = "{378, 0}";
},
{
name = top;
position = "{433, 705}";
},
{
name = topright;
position = "{661, 705}";
}
);
paths = (
{
closed = 1;
nodes = (
"496 -8 OFFCURVE",
"605 90 OFFCURVE",
"633 271 CURVE SMOOTH",
"702 705 LINE",
"660 705 LINE",
"592 277 LINE SMOOTH",
"566 113 OFFCURVE",
"477 33 OFFCURVE",
"327 33 CURVE SMOOTH",
"177 33 OFFCURVE",
"112 113 OFFCURVE",
"138 277 CURVE SMOOTH",
"206 705 LINE",
"164 705 LINE",
"95 271 LINE SMOOTH",
"67 90 OFFCURVE",
"144 -8 OFFCURVE",
"320 -8 CURVE SMOOTH"
);
}
);
};
layerId = "80A9362C-6FC3-40B9-AFF8-C1622415CC09";
paths = (
{
closed = 1;
nodes = (
"506 -8 OFFCURVE",
"602 91 OFFCURVE",
"630 261 CURVE SMOOTH",
"703 705 LINE",
"661 705 LINE",
"590 271 LINE SMOOTH",
"564 114 OFFCURVE",
"480 33 OFFCURVE",
"329 33 CURVE SMOOTH",
"178 33 OFFCURVE",
"111 114 OFFCURVE",
"138 280 CURVE SMOOTH",
"207 705 LINE",
"165 705 LINE",
"96 279 LINE SMOOTH",
"66 91 OFFCURVE",
"152 -8 OFFCURVE",
"327 -8 CURVE SMOOTH"
);
}
);
width = 721;
},
{
anchors = (
{
name = bottom;
position = "{338, 0}";
},
{
name = ogonek;
position = "{396, 0}";
},
{
name = top;
position = "{449, 705}";
},
{
name = topright;
position = "{629, 705}";
}
);
background = {
anchors = (
{
name = bottom;
position = "{339, 0}";
},
{
name = ogonek;
position = "{397, 0}";
},
{
name = top;
position = "{450, 705}";
},
{
name = topright;
position = "{630, 705}";
}
);
paths = (
{
closed = 1;
nodes = (
"547 -12 OFFCURVE",
"673 93 OFFCURVE",
"707 305 CURVE SMOOTH",
"770 705 LINE",
"568 705 LINE",
"505 302 LINE SMOOTH",
"490 208 OFFCURVE",
"440 161 OFFCURVE",
"364 161 CURVE SMOOTH",
"288 161 OFFCURVE",
"255 208 OFFCURVE",
"270 302 CURVE SMOOTH",
"333 705 LINE",
"126 705 LINE",
"63 305 LINE SMOOTH",
"29 93 OFFCURVE",
"127 -12 OFFCURVE",
"337 -12 CURVE SMOOTH"
);
}
);
};
layerId = "5B4126D3-DE9F-4159-B940-B7B1ABEC53A3";
paths = (
{
closed = 1;
nodes = (
"579 -12 OFFCURVE",
"672 90 OFFCURVE",
"703 285 CURVE SMOOTH",
"769 705 LINE",
"567 705 LINE",
"502 292 LINE SMOOTH",
"488 205 OFFCURVE",
"445 161 OFFCURVE",
"369 161 CURVE SMOOTH",
"293 161 OFFCURVE",
"254 208 OFFCURVE",
"269 302 CURVE SMOOTH",
"332 705 LINE",
"125 705 LINE",
"65 323 LINE SMOOTH",
"29 93 OFFCURVE",
"159 -12 OFFCURVE",
"358 -12 CURVE SMOOTH"
);
}
);
width = 748;
}
);
leftKerningGroup = U;
rightKerningGroup = U;
unicode = 0055;
userData = {
anchors = (
);
b = {
};
com.typemytype.robofont.layerData = {
b = {
anchors = (
);
components = (
);
contours = (
);
lib = {
};
name = U;
unicodes = (
);
width = 1490;
};
};
components = (
);
contours = (
);
lib = {
};
name = U;
unicodes = (
);
width = 1513;
};
},
{
color = 8;
glyphname = V;
lastChange = "2019-08-19 13:53:20 +0000";
layers = (
{
anchors = (
{
name = bottom;
position = "{295, 0}";
},
{
name = top;
position = "{406, 705}";
}
);
background = {
anchors = (
{
name = bottom;
position = "{295, 0}";
},
{
name = top;
position = "{406, 705}";
}
);
paths = (
{
closed = 1;
nodes = (
"317 0 LINE",
"732 705 LINE",
"688 705 LINE",
"288 24 LINE",
"311 24 LINE",
"126 705 LINE",
"81 705 LINE",
"272 0 LINE"
);
}
);
};
layerId = "80A9362C-6FC3-40B9-AFF8-C1622415CC09";
paths = (
{
closed = 1;
nodes = (
"316 0 LINE",
"732 705 LINE",
"684 705 LINE",
"284 24 LINE",
"308 24 LINE",
"124 705 LINE",
"81 705 LINE",
"271 0 LINE"
);
}
);
width = 666;
},
{
anchors = (
{
name = bottom;
position = "{338, 0}";
},
{
name = top;
position = "{448, 705}";
}
);
background = {
anchors = (
{
name = bottom;
position = "{339, 0}";
},
{
name = top;
position = "{449, 705}";
}
);
paths = (
{
closed = 1;
nodes = (
"420 0 LINE",
"855 705 LINE",
"643 705 LINE",
"342 194 LINE",
"403 194 LINE",
"264 705 LINE",
"44 705 LINE",
"257 0 LINE"
);
}
);
};
layerId = "5B4126D3-DE9F-4159-B940-B7B1ABEC53A3";
paths = (
{
closed = 1;
nodes = (
"419 0 LINE",
"854 705 LINE",
"631 705 LINE",
"330 194 LINE",
"391 194 LINE",
"252 705 LINE",
"43 705 LINE",
"256 0 LINE"
);
}
);
width = 751;
}
);
leftKerningGroup = V;
rightKerningGroup = V;
unicode = 0056;
userData = {
anchors = (
);
b = {
};
com.typemytype.robofont.guides = (
);
com.typemytype.robofont.layerData = {
b = {
anchors = (
);
components = (
);
contours = (
{
points = (
{
segmentType = curve;
smooth = 1;
x = 644;
y = "-5";
},
{
smooth = 0;
x = 712;
y = "-5";
},
{
smooth = 0;
x = 764;
y = 38;
},
{
segmentType = curve;
smooth = 1;
x = 793;
y = 117;
},
{
segmentType = line;
smooth = 1;
x = 1243;
y = 1324;
},
{
smooth = 0;
x = 1247;
y = 1335;
},
{
smooth = 0;
x = 1248;
y = 1342;
},
{
segmentType = curve;
smooth = 1;
x = 1248;
y = 1351;
},
{
smooth = 0;
x = 1248;
y = 1395;
},
{
smooth = 0;
x = 1203;
y = 1427;
},
{
segmentType = curve;
smooth = 1;
x = 1160;
y = 1427;
},
{
smooth = 0;
x = 1125;
y = 1427;
},
{
smooth = 0;
x = 1090;
y = 1408;
},
{
segmentType = curve;
smooth = 1;
x = 1076;
y = 1369;
},
{
segmentType = line;
smooth = 0;
x = 651;
y = 192;
},
{
segmentType = line;
smooth = 0;
x = 650;
y = 190;
},
{
segmentType = line;
smooth = 1;
x = 214;
y = 1370;
},
{
smooth = 0;
x = 200;
y = 1407;
},
{
smooth = 0;
x = 170;
y = 1427;
},
{
segmentType = curve;
smooth = 1;
x = 135;
y = 1427;
},
{
smooth = 0;
x = 90;
y = 1427;
},
{
smooth = 0;
x = 43;
y = 1392;
},
{
segmentType = curve;
smooth = 1;
x = 43;
y = 1344;
},
{
smooth = 0;
x = 43;
y = 1336;
},
{
smooth = 0;
x = 44;
y = 1326;
},
{
segmentType = curve;
smooth = 0;
x = 48;
y = 1318;
},
{
segmentType = line;
smooth = 1;
x = 501;
y = 117;
},
{
smooth = 0;
x = 532;
y = 35;
},
{
smooth = 0;
x = 581;
y = "-5";
}
);
}
);
lib = {
};
name = V;
unicodes = (
);
width = 1289;
};
};
components = (
);
contours = (
);
lib = {
};
name = V;
unicodes = (
);
width = 1365;
};
},
{
color = 8;
glyphname = W;
lastChange = "2019-08-19 13:53:20 +0000";
layers = (
{
anchors = (
{
name = bottom;
position = "{507, 0}";
},
{
name = top;
position = "{618, 705}";
}
);
background = {
anchors = (
{
name = bottom;
position = "{507, 0}";
},
{
name = top;
position = "{618, 705}";
}
);
paths = (
{
closed = 1;
nodes = (
"284 0 LINE",
"623 671 LINE",
"603 671 LINE",
"727 0 LINE",
"770 0 LINE",
"1126 705 LINE",
"1083 705 LINE",
"737 19 LINE",
"765 19 LINE",
"637 705 LINE",
"598 705 LINE",
"252 19 LINE",
"282 19 LINE",
"155 705 LINE",
"111 705 LINE",
"243 0 LINE"
);
}
);
};
layerId = "80A9362C-6FC3-40B9-AFF8-C1622415CC09";
paths = (
{
closed = 1;
nodes = (
"284 0 LINE",
"622 671 LINE",
"602 671 LINE",
"727 0 LINE",
"770 0 LINE",
"1126 705 LINE",
"1080 705 LINE",
"735 19 LINE",
"763 19 LINE",
"635 705 LINE",
"596 705 LINE",
"250 19 LINE",
"280 19 LINE",
"153 705 LINE",
"111 705 LINE",
"243 0 LINE"
);
}
);
width = 1091;
},
{
anchors = (
{
name = bottom;
position = "{527, 0}";
},
{
name = top;
position = "{639, 705}";
}
);
background = {
anchors = (
{
name = bottom;
position = "{528, 0}";
},
{
name = top;
position = "{640, 705}";
}
);
paths = (
{
closed = 1;
nodes = (
"387 0 LINE",
"610 424 LINE",
"584 424 LINE",
"669 0 LINE",
"833 0 LINE",
"1200 705 LINE",
"1002 705 LINE",
"762 224 LINE",
"804 224 LINE",
"719 705 LINE",
"573 705 LINE",
"324 224 LINE",
"373 224 LINE",
"290 705 LINE",
"79 705 LINE",
"222 0 LINE"
);
}
);
};
layerId = "5B4126D3-DE9F-4159-B940-B7B1ABEC53A3";
paths = (
{
closed = 1;
nodes = (
"386 0 LINE",
"609 424 LINE",
"583 424 LINE",
"668 0 LINE",
"832 0 LINE",
"1199 705 LINE",
"991 705 LINE",
"751 224 LINE",
"793 224 LINE",
"708 705 LINE",
"562 705 LINE",
"313 224 LINE",
"362 224 LINE",
"279 705 LINE",
"78 705 LINE",
"221 0 LINE"
);
}
);
width = 1130;
}
);
leftKerningGroup = V;
rightKerningGroup = V;
unicode = 0057;
userData = {
anchors = (
);
b = {
};
com.typemytype.robofont.layerData = {
b = {
anchors = (
);
components = (
);
contours = (
);
lib = {
};
name = W;
unicodes = (
);
width = 2126;
};
};
components = (
);
contours = (
);
lib = {
};
name = W;
unicodes = (
);
width = 2070;
};
},
{
color = 8;
glyphname = X;
lastChange = "2019-08-19 13:53:20 +0000";
layers = (
{
anchors = (
{
name = bottom;
position = "{278, 0}";
},
{
name = top;
position = "{390, 705}";
}
);
background = {
anchors = (
{
name = bottom;
position = "{277, 0}";
},
{
name = top;
position = "{389, 705}";
}
);
paths = (
{
closed = 1;
nodes = (
"665 705 LINE",
"615 705 LINE",
"334 387 LINE",
"346 387 LINE",
"162 705 LINE",
"112 705 LINE",
"313 357 LINE",
"314 367 LINE",
"-15 0 LINE",
"36 0 LINE",
"342 342 LINE",
"321 342 LINE",
"517 0 LINE",
"568 0 LINE",
"355 367 LINE",
"354 357 LINE"
);
}
);
};
guideLines = (
{
position = "{168, 362}";
}
);
layerId = "80A9362C-6FC3-40B9-AFF8-C1622415CC09";
paths = (
{
closed = 1;
nodes = (
"39 0 LINE",
"347 342 LINE",
"325 342 LINE",
"522 0 LINE",
"568 0 LINE",
"354 371 LINE",
"351 352 LINE",
"665 705 LINE",
"612 705 LINE",
"330 387 LINE",
"343 387 LINE",
"160 705 LINE",
"114 705 LINE",
"315 357 LINE",
"318 368 LINE",
"-14 0 LINE"
);
}
);
width = 630;
},
{
anchors = (
{
name = bottom;
position = "{314, 0}";
},
{
name = top;
position = "{423, 705}";
}
);
background = {
anchors = (
{
name = bottom;
position = "{317, 0}";
},
{
name = top;
position = "{426, 705}";
}
);
paths = (
{
closed = 1;
nodes = (
"811 705 LINE",
"570 705 LINE",
"354 457 LINE",
"421 457 LINE",
"283 705 LINE",
"43 705 LINE",
"283 308 LINE",
"297 402 LINE",
"-72 0 LINE",
"168 0 LINE",
"387 250 LINE",
"322 250 LINE",
"463 0 LINE",
"703 0 LINE",
"460 402 LINE",
"446 308 LINE"
);
}
);
};
layerId = "5B4126D3-DE9F-4159-B940-B7B1ABEC53A3";
paths = (
{
closed = 1;
nodes = (
"175 0 LINE",
"388 250 LINE",
"329 250 LINE",
"472 0 LINE",
"700 0 LINE",
"457 402 LINE",
"447 308 LINE",
"808 705 LINE",
"557 705 LINE",
"345 457 LINE",
"404 457 LINE",
"266 705 LINE",
"40 705 LINE",
"280 308 LINE",
"290 402 LINE",
"-75 0 LINE"
);
}
);
width = 703;
}
);
leftKerningGroup = X;
rightKerningGroup = X;
unicode = 0058;
userData = {
anchors = (
);
b = {
};
com.typemytype.robofont.layerData = {
b = {
anchors = (
);
components = (
);
contours = (
{
points = (
{
segmentType = curve;
smooth = 1;
x = 151;
y = 0;
},
{
smooth = 0;
x = 176;
y = 0;
},
{
smooth = 0;
x = 201;
y = 12;
},
{
segmentType = curve;
smooth = 1;
x = 222;
y = 41;
},
{
segmentType = line;
smooth = 0;
x = 641;
y = 616;
},
{
segmentType = line;
smooth = 0;
x = 746;
y = 734;
},
{
segmentType = line;
smooth = 1;
x = 1175;
y = 1310;
},
{
smooth = 0;
x = 1186;
y = 1325;
},
{
smooth = 0;
x = 1190;
y = 1338;
},
{
segmentType = curve;
smooth = 1;
x = 1190;
y = 1353;
},
{
smooth = 0;
x = 1190;
y = 1393;
},
{
smooth = 0;
x = 1153;
y = 1426;
},
{
segmentType = curve;
smooth = 1;
x = 1110;
y = 1426;
},
{
smooth = 0;
x = 1083;
y = 1426;
},
{
smooth = 0;
x = 1058;
y = 1414;
},
{
segmentType = curve;
smooth = 1;
x = 1037;
y = 1385;
},
{
segmentType = line;
smooth = 0;
x = 648;
y = 844;
},
{
segmentType = line;
smooth = 0;
x = 542;
y = 732;
},
{
segmentType = line;
smooth = 1;
x = 84;
y = 121;
},
{
smooth = 0;
x = 73;
y = 106;
},
{
smooth = 0;
x = 68;
y = 91;
},
{
segmentType = curve;
smooth = 1;
x = 68;
y = 76;
},
{
smooth = 0;
x = 68;
y = 35;
},
{
smooth = 0;
x = 108;
y = 0;
}
);
},
{
points = (
{
segmentType = curve;
smooth = 1;
x = 1104;
y = 0;
},
{
smooth = 0;
x = 1151;
y = 0;
},
{
smooth = 0;
x = 1200;
y = 40;
},
{
segmentType = curve;
smooth = 1;
x = 1200;
y = 85;
},
{
smooth = 0;
x = 1200;
y = 98;
},
{
smooth = 0;
x = 1195;
y = 113;
},
{
segmentType = curve;
smooth = 0;
x = 1186;
y = 126;
},
{
segmentType = line;
smooth = 0;
x = 272;
y = 1385;
},
{
smooth = 0;
x = 252;
y = 1414;
},
{
smooth = 0;
x = 225;
y = 1426;
},
{
segmentType = curve;
smooth = 1;
x = 197;
y = 1426;
},
{
smooth = 0;
x = 149;
y = 1426;
},
{
smooth = 0;
x = 100;
y = 1388;
},
{
segmentType = curve;
smooth = 1;
x = 100;
y = 1343;
},
{
smooth = 0;
x = 100;
y = 1328;
},
{
smooth = 0;
x = 105;
y = 1315;
},
{
segmentType = curve;
smooth = 0;
x = 114;
y = 1303;
},
{
segmentType = line;
smooth = 0;
x = 1033;
y = 40;
},
{
smooth = 0;
x = 1052;
y = 13;
},
{
smooth = 0;
x = 1076;
y = 0;
}
);
}
);
lib = {
};
name = X;
unicodes = (
);
width = 1274;
};
};
components = (
);
contours = (
);
lib = {
};
name = X;
unicodes = (
);
width = 1322;
};
},
{
color = 8;
glyphname = Y;
lastChange = "2019-08-19 13:53:20 +0000";
layers = (
{
anchors = (
{
name = bottom;
position = "{249, 0}";
},
{
name = top;
position = "{361, 705}";
},
{
name = topleft;
position = "{90, 705}";
}
);
background = {
anchors = (
{
name = bottom;
position = "{249, 0}";
},
{
name = top;
position = "{361, 705}";
},
{
name = topleft;
position = "{90, 705}";
}
);
paths = (
{
closed = 1;
nodes = (
"270 0 LINE",
"328 367 LINE",
"312 328 LINE",
"651 705 LINE",
"604 705 LINE",
"302 368 LINE",
"317 368 LINE",
"121 705 LINE",
"72 705 LINE",
"291 328 LINE",
"286 367 LINE",
"228 0 LINE"
);
}
);
};
layerId = "80A9362C-6FC3-40B9-AFF8-C1622415CC09";
paths = (
{
closed = 1;
nodes = (
"270 0 LINE",
"328 367 LINE",
"311 328 LINE",
"651 705 LINE",
"599 705 LINE",
"296 368 LINE",
"312 368 LINE",
"117 705 LINE",
"72 705 LINE",
"290 328 LINE",
"286 367 LINE",
"228 0 LINE"
);
}
);
width = 577;
},
{
anchors = (
{
name = bottom;
position = "{289, 0}";
},
{
name = top;
position = "{398, 705}";
},
{
name = topleft;
position = "{87, 705}";
}
);
background = {
anchors = (
{
name = bottom;
position = "{290, 0}";
},
{
name = top;
position = "{399, 705}";
},
{
name = topleft;
position = "{88, 705}";
}
);
paths = (
{
closed = 1;
nodes = (
"392 0 LINE",
"449 359 LINE",
"389 247 LINE",
"774 705 LINE",
"543 705 LINE",
"345 462 LINE",
"384 462 LINE",
"262 705 LINE",
"24 705 LINE",
"266 247 LINE",
"242 359 LINE",
"185 0 LINE"
);
}
);
};
layerId = "5B4126D3-DE9F-4159-B940-B7B1ABEC53A3";
paths = (
{
closed = 1;
nodes = (
"391 0 LINE",
"448 359 LINE",
"388 247 LINE",
"773 705 LINE",
"528 705 LINE",
"330 462 LINE",
"369 462 LINE",
"247 705 LINE",
"23 705 LINE",
"265 247 LINE",
"241 359 LINE",
"184 0 LINE"
);
}
);
width = 652;
}
);
leftKerningGroup = Y;
rightKerningGroup = Y;
unicode = 0059;
userData = {
anchors = (
);
b = {
};
com.typemytype.robofont.guides = (
);
com.typemytype.robofont.layerData = {
b = {
anchors = (
);
components = (
);
contours = (
{
points = (
{
segmentType = curve;
smooth = 1;
x = 641;
y = 0;
},
{
smooth = 0;
x = 685;
y = 0;
},
{
smooth = 0;
x = 730;
y = 29;
},
{
segmentType = curve;
smooth = 1;
x = 730;
y = 85;
},
{
segmentType = line;
smooth = 0;
x = 730;
y = 1285;
},
{
segmentType = line;
smooth = 1;
x = 1115;
y = 1285;
},
{
smooth = 0;
x = 1164;
y = 1285;
},
{
smooth = 0;
x = 1190;
y = 1319;
},
{
segmentType = curve;
smooth = 1;
x = 1190;
y = 1355;
},
{
smooth = 0;
x = 1190;
y = 1392;
},
{
smooth = 0;
x = 1166;
y = 1426;
},
{
segmentType = curve;
smooth = 1;
x = 1115;
y = 1426;
},
{
segmentType = line;
smooth = 1;
x = 160;
y = 1426;
},
{
smooth = 0;
x = 111;
y = 1426;
},
{
smooth = 0;
x = 86;
y = 1392;
},
{
segmentType = curve;
smooth = 1;
x = 86;
y = 1355;
},
{
smooth = 0;
x = 86;
y = 1319;
},
{
smooth = 0;
x = 111;
y = 1285;
},
{
segmentType = curve;
smooth = 1;
x = 160;
y = 1285;
},
{
segmentType = line;
smooth = 0;
x = 552;
y = 1285;
},
{
segmentType = line;
smooth = 1;
x = 552;
y = 85;
},
{
smooth = 0;
x = 552;
y = 29;
},
{
smooth = 0;
x = 596;
y = 0;
}
);
}
);
lib = {
};
name = Y;
unicodes = (
);
width = 1278;
};
};
components = (
);
contours = (
);
lib = {
};
name = Y;
unicodes = (
);
width = 1321;
};
},
{
color = 8;
glyphname = Z;
lastChange = "2019-08-19 13:53:20 +0000";
layers = (
{
anchors = (
{
name = bottom;
position = "{263, 0}";
},
{
name = top;
position = "{374, 705}";
}
);
background = {
anchors = (
{
name = bottom;
position = "{262, 0}";
},
{
name = top;
position = "{373, 705}";
}
);
paths = (
{
closed = 1;
nodes = (
"513 0 LINE",
"520 39 LINE",
"56 39 LINE",
"52 16 LINE",
"606 674 LINE",
"611 705 LINE",
"122 705 LINE",
"116 666 LINE",
"566 666 LINE",
"569 689 LINE",
"15 31 LINE",
"10 0 LINE"
);
}
);
};
layerId = "80A9362C-6FC3-40B9-AFF8-C1622415CC09";
paths = (
{
closed = 1;
nodes = (
"514 0 LINE",
"520 39 LINE",
"56 39 LINE",
"56 16 LINE",
"607 674 LINE",
"612 705 LINE",
"123 705 LINE",
"116 666 LINE",
"566 666 LINE",
"566 689 LINE",
"16 31 LINE",
"11 0 LINE"
);
}
);
width = 575;
},
{
anchors = (
{
name = bottom;
position = "{287, 0}";
},
{
name = top;
position = "{398, 705}";
}
);
background = {
anchors = (
{
name = bottom;
position = "{286, 0}";
},
{
name = top;
position = "{397, 705}";
}
);
paths = (
{
closed = 1;
nodes = (
"574 0 LINE",
"601 169 LINE",
"225 169 LINE",
"215 112 LINE",
"645 553 LINE",
"669 705 LINE",
"116 705 LINE",
"90 536 LINE",
"450 536 LINE",
"459 593 LINE",
"29 152 LINE",
"5 0 LINE"
);
}
);
};
layerId = "5B4126D3-DE9F-4159-B940-B7B1ABEC53A3";
paths = (
{
closed = 1;
nodes = (
"575 0 LINE",
"602 169 LINE",
"226 169 LINE",
"232 112 LINE",
"646 553 LINE",
"670 705 LINE",
"117 705 LINE",
"91 536 LINE",
"451 536 LINE",
"444 593 LINE",
"30 152 LINE",
"6 0 LINE"
);
}
);
width = 634;
}
);
leftKerningGroup = Z;
rightKerningGroup = Z;
unicode = 005A;
userData = {
anchors = (
);
b = {
};
com.typemytype.robofont.layerData = {
b = {
anchors = (
);
components = (
);
contours = (
{
points = (
{
segmentType = curve;
smooth = 1;
x = 266;
y = 0;
},
{
segmentType = line;
smooth = 1;
x = 1035;
y = 0;
},
{
smooth = 0;
x = 1084;
y = 0;
},
{
smooth = 0;
x = 1108;
y = 34;
},
{
segmentType = curve;
smooth = 1;
x = 1108;
y = 71;
},
{
smooth = 0;
x = 1108;
y = 107;
},
{
smooth = 0;
x = 1084;
y = 141;
},
{
segmentType = curve;
smooth = 1;
x = 1035;
y = 141;
},
{
segmentType = line;
smooth = 0;
x = 356;
y = 141;
},
{
segmentType = line;
smooth = 0;
x = 356;
y = 665;
},
{
segmentType = line;
smooth = 1;
x = 975;
y = 665;
},
{
smooth = 0;
x = 1024;
y = 665;
},
{
smooth = 0;
x = 1049;
y = 698;
},
{
segmentType = curve;
smooth = 1;
x = 1049;
y = 734;
},
{
smooth = 0;
x = 1049;
y = 770;
},
{
smooth = 0;
x = 1026;
y = 803;
},
{
segmentType = curve;
smooth = 1;
x = 975;
y = 803;
},
{
segmentType = line;
smooth = 0;
x = 356;
y = 803;
},
{
segmentType = line;
smooth = 0;
x = 356;
y = 1285;
},
{
segmentType = line;
smooth = 1;
x = 1007;
y = 1285;
},
{
smooth = 0;
x = 1056;
y = 1285;
},
{
smooth = 0;
x = 1080;
y = 1319;
},
{
segmentType = curve;
smooth = 1;
x = 1080;
y = 1356;
},
{
smooth = 0;
x = 1080;
y = 1392;
},
{
smooth = 0;
x = 1056;
y = 1426;
},
{
segmentType = curve;
smooth = 1;
x = 1007;
y = 1426;
},
{
segmentType = line;
smooth = 1;
x = 261;
y = 1426;
},
{
smooth = 0;
x = 213;
y = 1426;
},
{
smooth = 0;
x = 178;
y = 1383;
},
{
segmentType = curve;
smooth = 1;
x = 178;
y = 1340;
},
{
segmentType = line;
smooth = 1;
x = 178;
y = 86;
},
{
smooth = 0;
x = 178;
y = 41;
},
{
smooth = 0;
x = 222;
y = 0;
}
);
}
);
lib = {
};
name = Z;
unicodes = (
);
width = 1165;
};
};
components = (
);
contours = (
);
lib = {
};
name = Z;
unicodes = (
);
width = 1222;
};
},
{
color = 8;
glyphname = a;
lastChange = "2019-08-21 10:52:27 +0000";
layers = (
{
background = {
anchors = (
{
name = bottom;
position = "{225, 0}";
},
{
name = ogonek;
position = "{394, 0}";
},
{
name = top;
position = "{305, 484}";
}
);
paths = (
{
closed = 1;
nodes = (
"290 -8 OFFCURVE",
"354 39 OFFCURVE",
"380 120 CURVE",
"372 120 LINE",
"353 0 LINE",
"394 0 LINE",
"441 302 LINE SMOOTH",
"459 420 OFFCURVE",
"418 492 OFFCURVE",
"301 492 CURVE SMOOTH",
"233 492 OFFCURVE",
"170 470 OFFCURVE",
"112 432 CURVE",
"131 397 LINE",
"196 437 OFFCURVE",
"239 453 OFFCURVE",
"300 453 CURVE SMOOTH",
"392 453 OFFCURVE",
"412 397 OFFCURVE",
"399 312 CURVE SMOOTH",
"382 202 LINE SMOOTH",
"366 96 OFFCURVE",
"300 31 OFFCURVE",
"204 31 CURVE SMOOTH",
"138 31 OFFCURVE",
"92 69 OFFCURVE",
"93 125 CURVE SMOOTH",
"95 237 OFFCURVE",
"197 238 OFFCURVE",
"363 238 CURVE SMOOTH",
"400 238 LINE",
"406 275 LINE",
"364 275 LINE SMOOTH",
"167 275 OFFCURVE",
"49 263 OFFCURVE",
"47 128 CURVE SMOOTH",
"46 49 OFFCURVE",
"116 -8 OFFCURVE",
"199 -8 CURVE SMOOTH"
);
}
);
};
guideLines = (
{
angle = 118.4956;
position = "{122, 415}";
}
);
layerId = "80A9362C-6FC3-40B9-AFF8-C1622415CC09";
paths = (
{
closed = 1;
nodes = (
"278 -8 OFFCURVE",
"355 32 OFFCURVE",
"381 116 CURVE",
"371 116 LINE",
"353 0 LINE",
"394 0 LINE",
"442 302 LINE SMOOTH",
"461 422 OFFCURVE",
"409 492 OFFCURVE",
"292 492 CURVE SMOOTH",
"225 492 OFFCURVE",
"155 470 OFFCURVE",
"109 436 CURVE",
"127 400 LINE",
"178 437 OFFCURVE",
"229 453 OFFCURVE",
"290 453 CURVE SMOOTH",
"383 453 OFFCURVE",
"413 405 OFFCURVE",
"402 315 CURVE SMOOTH",
"382 191 LINE SMOOTH",
"365 89 OFFCURVE",
"289 30 OFFCURVE",
"209 30 CURVE SMOOTH",
"148 30 OFFCURVE",
"94 66 OFFCURVE",
"94 136 CURVE SMOOTH",
"94 212 OFFCURVE",
"152 238 OFFCURVE",
"341 238 CURVE SMOOTH",
"400 238 LINE",
"406 275 LINE",
"325 275 LINE SMOOTH",
"129 275 OFFCURVE",
"47 235 OFFCURVE",
"47 134 CURVE SMOOTH",
"47 48 OFFCURVE",
"122 -8 OFFCURVE",
"206 -8 CURVE SMOOTH"
);
}
);
width = 515;
},
{
anchors = (
{
name = bottom;
position = "{237, 0}";
},
{
name = ogonek;
position = "{443, 0}";
},
{
name = top;
position = "{320, 494}";
}
);
background = {
paths = (
{
closed = 1;
nodes = (
"258 -12 OFFCURVE",
"309 28 OFFCURVE",
"326 85 CURVE",
"323 89 LINE",
"309 0 LINE",
"495 0 LINE",
"536 261 LINE SMOOTH",
"562 424 OFFCURVE",
"457 506 OFFCURVE",
"304 506 CURVE SMOOTH",
"214 506 OFFCURVE",
"117 483 OFFCURVE",
"65 444 CURVE",
"104 313 LINE",
"174 350 OFFCURVE",
"232 361 OFFCURVE",
"282 361 CURVE SMOOTH",
"332 361 OFFCURVE",
"359 337 OFFCURVE",
"353 300 CURVE SMOOTH",
"335 188 LINE SMOOTH",
"328 145 OFFCURVE",
"293 118 OFFCURVE",
"254 118 CURVE SMOOTH",
"221 118 OFFCURVE",
"200 131 OFFCURVE",
"200 159 CURVE SMOOTH",
"200 196 OFFCURVE",
"245 207 OFFCURVE",
"282 207 CURVE SMOOTH",
"356 207 LINE",
"370 295 LINE",
"269 294 LINE SMOOTH",
"113 292 OFFCURVE",
"9 267 OFFCURVE",
"9 136 CURVE SMOOTH",
"9 49 OFFCURVE",
"102 -12 OFFCURVE",
"191 -12 CURVE SMOOTH"
);
}
);
};
guideLines = (
{
position = "{214, 157}";
},
{
angle = -73.4212;
position = "{85, 378}";
}
);
layerId = "5B4126D3-DE9F-4159-B940-B7B1ABEC53A3";
paths = (
{
closed = 1;
nodes = (
"255 -12 OFFCURVE",
"302 27 OFFCURVE",
"321 86 CURVE",
"316 86 LINE",
"302 0 LINE",
"495 0 LINE",
"535 254 LINE SMOOTH",
"556 387 OFFCURVE",
"501 506 OFFCURVE",
"307 506 CURVE SMOOTH",
"212 506 OFFCURVE",
"114 479 OFFCURVE",
"57 444 CURVE",
"97 307 LINE",
"161 341 OFFCURVE",
"220 353 OFFCURVE",
"272 353 CURVE SMOOTH",
"336 353 OFFCURVE",
"349 334 OFFCURVE",
"343 296 CURVE SMOOTH",
"326 187 LINE SMOOTH",
"320 146 OFFCURVE",
"293 121 OFFCURVE",
"252 121 CURVE SMOOTH",
"223 121 OFFCURVE",
"206 138 OFFCURVE",
"206 161 CURVE SMOOTH",
"206 183 OFFCURVE",
"237 199 OFFCURVE",
"284 199 CURVE SMOOTH",
"351 199 LINE",
"365 299 LINE",
"287 299 LINE SMOOTH",
"92 299 OFFCURVE",
"4 252 OFFCURVE",
"4 147 CURVE SMOOTH",
"4 65 OFFCURVE",
"77 -12 OFFCURVE",
"183 -12 CURVE SMOOTH"
);
}
);
width = 576;
},
{
anchors = (
{
name = bottom;
position = "{237, 0}";
},
{
name = ogonek;
position = "{443, 0}";
},
{
name = top;
position = "{320, 494}";
}
);
associatedMasterId = "5B4126D3-DE9F-4159-B940-B7B1ABEC53A3";
guideLines = (
{
position = "{214, 157}";
},
{
angle = -73.4212;
position = "{85, 378}";
}
);
layerId = "B6185236-692E-4101-A0E1-BDC629CEE8BD";
name = "Bold [177]";
paths = (
{
closed = 1;
nodes = (
"255 -12 OFFCURVE",
"302 27 OFFCURVE",
"321 86 CURVE",
"316 86 LINE",
"302 0 LINE",
"495 0 LINE",
"535 254 LINE SMOOTH",
"556 387 OFFCURVE",
"501 506 OFFCURVE",
"307 506 CURVE SMOOTH",
"212 506 OFFCURVE",
"114 479 OFFCURVE",
"57 444 CURVE",
"97 310 LINE",
"161 344 OFFCURVE",
"220 356 OFFCURVE",
"272 356 CURVE SMOOTH",
"336 356 OFFCURVE",
"351 334 OFFCURVE",
"345 296 CURVE SMOOTH",
"328 187 LINE SMOOTH",
"322 146 OFFCURVE",
"293 121 OFFCURVE",
"252 121 CURVE SMOOTH",
"219 121 OFFCURVE",
"202 138 OFFCURVE",
"202 161 CURVE SMOOTH",
"202 190 OFFCURVE",
"233 206 OFFCURVE",
"284 206 CURVE SMOOTH",
"351 206 LINE",
"365 296 LINE",
"287 296 LINE SMOOTH",
"92 296 OFFCURVE",
"4 252 OFFCURVE",
"4 147 CURVE SMOOTH",
"4 65 OFFCURVE",
"77 -12 OFFCURVE",
"183 -12 CURVE SMOOTH"
);
}
);
width = 576;
}
);
leftKerningGroup = a;
rightKerningGroup = n;
rightMetricsKey = n;
unicode = 0061;
userData = {
anchors = (
);
b = {
};
com.typemytype.robofont.layerData = {
b = {
anchors = (
);
components = (
);
contours = (
);
lib = {
};
name = a;
unicodes = (
);
width = 1040;
};
};
components = (
);
contours = (
);
lib = {
};
name = a;
unicodes = (
);
width = 1101;
};
},
{
color = 1;
glyphname = ae;
lastChange = "2019-08-20 08:25:20 +0000";
layers = (
{
anchors = (
{
name = bottom;
position = "{376, 0}";
},
{
name = top;
position = "{453, 484}";
}
);
background = {
anchors = (
{
name = bottom;
position = "{376, 0}";
},
{
name = top;
position = "{453, 484}";
}
);
paths = (
{
closed = 1;
nodes = (
"807 237 LINE",
"811 260 LINE SMOOTH",
"833 405 OFFCURVE",
"774 492 OFFCURVE",
"654 492 CURVE SMOOTH",
"558 492 OFFCURVE",
"480 443 OFFCURVE",
"432 354 CURVE",
"452 354 LINE",
"454 444 OFFCURVE",
"410 492 OFFCURVE",
"309 492 CURVE SMOOTH",
"242 492 OFFCURVE",
"170 470 OFFCURVE",
"113 434 CURVE",
"128 399 LINE",
"191 438 OFFCURVE",
"243 453 OFFCURVE",
"305 453 CURVE SMOOTH",
"387 453 OFFCURVE",
"419 411 OFFCURVE",
"404 312 CURVE SMOOTH",
"387 208 LINE SMOOTH",
"371 105 OFFCURVE",
"296 31 OFFCURVE",
"201 31 CURVE SMOOTH",
"123 31 OFFCURVE",
"82 75 OFFCURVE",
"92 139 CURVE SMOOTH",
"105 217 OFFCURVE",
"161 237 OFFCURVE",
"359 237 CURVE SMOOTH",
"402 237 LINE",
"408 274 LINE",
"363 274 LINE SMOOTH",
"140 274 OFFCURVE",
"63 243 OFFCURVE",
"46 135 CURVE SMOOTH",
"33 55 OFFCURVE",
"96 -8 OFFCURVE",
"192 -8 CURVE SMOOTH",
"294 -8 OFFCURVE",
"375 57 OFFCURVE",
"408 160 CURVE",
"390 160 LINE",
"398 50 OFFCURVE",
"467 -8 OFFCURVE",
"583 -8 CURVE SMOOTH",
"648 -8 OFFCURVE",
"723 18 OFFCURVE",
"771 60 CURVE",
"756 94 LINE",
"697 50 OFFCURVE",
"644 31 OFFCURVE",
"585 31 CURVE SMOOTH",
"467 31 OFFCURVE",
"415 109 OFFCURVE",
"436 243 CURVE SMOOTH",
"437 250 LINE SMOOTH",
"456 373 OFFCURVE",
"537 454 OFFCURVE",
"644 454 CURVE SMOOTH",
"748 454 OFFCURVE",
"791 380 OFFCURVE",
"772 263 CURVE",
"790 274 LINE",
"432 274 LINE",
"426 237 LINE"
);
}
);
};
layerId = "80A9362C-6FC3-40B9-AFF8-C1622415CC09";
paths = (
{
closed = 1;
nodes = (
"294 -8 OFFCURVE",
"375 57 OFFCURVE",
"408 160 CURVE",
"390 160 LINE",
"398 50 OFFCURVE",
"467 -8 OFFCURVE",
"583 -8 CURVE SMOOTH",
"648 -8 OFFCURVE",
"723 18 OFFCURVE",
"771 60 CURVE",
"756 93 LINE",
"697 49 OFFCURVE",
"644 30 OFFCURVE",
"585 30 CURVE SMOOTH",
"467 30 OFFCURVE",
"414 109 OFFCURVE",
"435 243 CURVE SMOOTH",
"436 250 LINE SMOOTH",
"455 373 OFFCURVE",
"537 454 OFFCURVE",
"644 454 CURVE SMOOTH",
"748 454 OFFCURVE",
"792 380 OFFCURVE",
"773 263 CURVE",
"791 274 LINE",
"431 274 LINE",
"425 237 LINE",
"807 237 LINE",
"811 260 LINE SMOOTH",
"833 405 OFFCURVE",
"774 492 OFFCURVE",
"654 492 CURVE SMOOTH",
"558 492 OFFCURVE",
"480 443 OFFCURVE",
"432 353 CURVE",
"452 353 LINE",
"454 444 OFFCURVE",
"410 492 OFFCURVE",
"309 492 CURVE SMOOTH",
"242 492 OFFCURVE",
"170 470 OFFCURVE",
"113 434 CURVE",
"128 400 LINE",
"191 439 OFFCURVE",
"243 454 OFFCURVE",
"305 454 CURVE SMOOTH",
"387 454 OFFCURVE",
"419 411 OFFCURVE",
"404 312 CURVE SMOOTH",
"387 208 LINE SMOOTH",
"371 105 OFFCURVE",
"296 30 OFFCURVE",
"201 30 CURVE SMOOTH",
"123 30 OFFCURVE",
"81 75 OFFCURVE",
"91 139 CURVE SMOOTH",
"104 217 OFFCURVE",
"160 237 OFFCURVE",
"359 237 CURVE SMOOTH",
"402 237 LINE",
"408 274 LINE",
"363 274 LINE SMOOTH",
"140 274 OFFCURVE",
"63 243 OFFCURVE",
"46 135 CURVE SMOOTH",
"33 55 OFFCURVE",
"96 -8 OFFCURVE",
"192 -8 CURVE SMOOTH"
);
}
);
width = 856;
},
{
anchors = (
{
name = bottom;
position = "{374, 0}";
},
{
name = top;
position = "{452, 494}";
}
);
background = {
anchors = (
{
name = bottom;
position = "{376, 0}";
},
{
name = top;
position = "{454, 494}";
}
);
paths = (
{
closed = 1;
nodes = (
"846 207 LINE",
"852 247 LINE SMOOTH",
"877 404 OFFCURVE",
"795 505 OFFCURVE",
"644 505 CURVE SMOOTH",
"573 505 OFFCURVE",
"511 484 OFFCURVE",
"461 435 CURVE",
"501 435 LINE",
"472 486 OFFCURVE",
"404 505 OFFCURVE",
"321 505 CURVE SMOOTH",
"243 505 OFFCURVE",
"133 479 OFFCURVE",
"76 444 CURVE",
"105 313 LINE",
"169 346 OFFCURVE",
"238 361 OFFCURVE",
"288 361 CURVE SMOOTH",
"340 361 OFFCURVE",
"357 346 OFFCURVE",
"351 309 CURVE SMOOTH",
"332 193 LINE SMOOTH",
"325 146 OFFCURVE",
"290 117 OFFCURVE",
"248 117 CURVE SMOOTH",
"211 117 OFFCURVE",
"197 135 OFFCURVE",
"201 161 CURVE SMOOTH",
"206 190 OFFCURVE",
"241 207 OFFCURVE",
"300 207 CURVE SMOOTH",
"350 207 LINE",
"364 296 LINE",
"319 296 LINE SMOOTH",
"112 296 OFFCURVE",
"27 260 OFFCURVE",
"10 153 CURVE SMOOTH",
"-5 58 OFFCURVE",
"64 -12 OFFCURVE",
"198 -12 CURVE SMOOTH",
"295 -12 OFFCURVE",
"367 27 OFFCURVE",
"408 101 CURVE",
"380 101 LINE",
"409 26 OFFCURVE",
"488 -12 OFFCURVE",
"597 -12 CURVE SMOOTH",
"670 -12 OFFCURVE",
"753 10 OFFCURVE",
"812 46 CURVE",
"784 177 LINE",
"739 150 OFFCURVE",
"679 134 OFFCURVE",
"628 134 CURVE SMOOTH",
"543 134 OFFCURVE",
"517 165 OFFCURVE",
"531 255 CURVE SMOOTH",
"532 262 LINE SMOOTH",
"545 343 OFFCURVE",
"578 377 OFFCURVE",
"632 377 CURVE SMOOTH",
"682 377 OFFCURVE",
"704 349 OFFCURVE",
"694 285 CURVE",
"711 296 LINE",
"529 296 LINE",
"515 207 LINE"
);
}
);
};
layerId = "5B4126D3-DE9F-4159-B940-B7B1ABEC53A3";
paths = (
{
closed = 1;
nodes = (
"293 -12 OFFCURVE",
"365 27 OFFCURVE",
"406 101 CURVE",
"378 101 LINE",
"407 26 OFFCURVE",
"486 -12 OFFCURVE",
"595 -12 CURVE SMOOTH",
"668 -12 OFFCURVE",
"751 10 OFFCURVE",
"810 46 CURVE",
"782 177 LINE",
"737 150 OFFCURVE",
"677 134 OFFCURVE",
"626 134 CURVE SMOOTH",
"541 134 OFFCURVE",
"515 165 OFFCURVE",
"529 255 CURVE SMOOTH",
"530 262 LINE SMOOTH",
"543 343 OFFCURVE",
"576 377 OFFCURVE",
"630 377 CURVE SMOOTH",
"680 377 OFFCURVE",
"702 349 OFFCURVE",
"692 285 CURVE",
"709 296 LINE",
"527 296 LINE",
"513 207 LINE",
"844 207 LINE",
"850 247 LINE SMOOTH",
"875 404 OFFCURVE",
"793 505 OFFCURVE",
"642 505 CURVE SMOOTH",
"571 505 OFFCURVE",
"509 484 OFFCURVE",
"459 435 CURVE",
"499 435 LINE",
"470 486 OFFCURVE",
"402 505 OFFCURVE",
"319 505 CURVE SMOOTH",
"241 505 OFFCURVE",
"131 479 OFFCURVE",
"74 444 CURVE",
"103 313 LINE",
"167 346 OFFCURVE",
"236 361 OFFCURVE",
"286 361 CURVE SMOOTH",
"338 361 OFFCURVE",
"355 346 OFFCURVE",
"349 309 CURVE SMOOTH",
"330 193 LINE SMOOTH",
"323 146 OFFCURVE",
"288 117 OFFCURVE",
"246 117 CURVE SMOOTH",
"209 117 OFFCURVE",
"195 135 OFFCURVE",
"199 161 CURVE SMOOTH",
"204 190 OFFCURVE",
"239 207 OFFCURVE",
"298 207 CURVE SMOOTH",
"348 207 LINE",
"362 296 LINE",
"317 296 LINE SMOOTH",
"110 296 OFFCURVE",
"25 260 OFFCURVE",
"8 153 CURVE SMOOTH",
"-7 58 OFFCURVE",
"62 -12 OFFCURVE",
"196 -12 CURVE SMOOTH"
);
}
);
width = 870;
}
);
leftKerningGroup = a;
leftMetricsKey = a;
rightKerningGroup = e;
rightMetricsKey = e;
unicode = 00E6;
userData = {
com.typemytype.robofont.layerData = {
b = {
anchors = (
);
components = (
);
contours = (
);
lib = {
};
name = ae;
unicodes = (
);
width = 1734;
};
};
};
},
{
color = 1;
glyphname = a.ss01;
lastChange = "2019-08-21 08:22:05 +0000";
layers = (
{
anchors = (
{
name = bottom;
position = "{244, 0}";
},
{
name = center;
position = "{290, 245}";
},
{
name = ogonek;
position = "{447, 0}";
},
{
name = stroke;
position = "{468, 580}";
},
{
name = top;
position = "{321, 484}";
},
{
name = topright;
position = "{610, 705}";
}
);
background = {
paths = (
{
closed = 1;
nodes = (
"333 -8 OFFCURVE",
"401 42 OFFCURVE",
"438 126 CURVE",
"425 126 LINE",
"405 0 LINE",
"447 0 LINE",
"525 484 LINE",
"483 484 LINE",
"463 358 LINE",
"467 356 LINE",
"445 453 OFFCURVE",
"376 492 OFFCURVE",
"297 492 CURVE SMOOTH",
"150 492 OFFCURVE",
"52 363 OFFCURVE",
"52 204 CURVE SMOOTH",
"52 68 OFFCURVE",
"128 -8 OFFCURVE",
"245 -8 CURVE SMOOTH"
);
},
{
closed = 1;
nodes = (
"152 31 OFFCURVE",
"95 88 OFFCURVE",
"95 197 CURVE SMOOTH",
"95 334 OFFCURVE",
"165 453 OFFCURVE",
"295 453 CURVE SMOOTH",
"390 453 OFFCURVE",
"447 396 OFFCURVE",
"447 287 CURVE SMOOTH",
"447 150 OFFCURVE",
"377 31 OFFCURVE",
"247 31 CURVE SMOOTH"
);
}
);
};
guideLines = (
{
angle = 260.9807;
position = "{474, 421}";
}
);
layerId = "80A9362C-6FC3-40B9-AFF8-C1622415CC09";
paths = (
{
closed = 1;
nodes = (
"467 356 LINE",
"447 453 OFFCURVE",
"376 492 OFFCURVE",
"297 492 CURVE SMOOTH",
"150 492 OFFCURVE",
"52 363 OFFCURVE",
"52 204 CURVE SMOOTH",
"52 68 OFFCURVE",
"128 -8 OFFCURVE",
"245 -8 CURVE SMOOTH",
"333 -8 OFFCURVE",
"404 42 OFFCURVE",
"438 126 CURVE",
"425 126 LINE",
"405 0 LINE",
"447 0 LINE",
"525 484 LINE",
"483 484 LINE",
"463 358 LINE"
);
},
{
closed = 1;
nodes = (
"390 453 OFFCURVE",
"447 396 OFFCURVE",
"447 287 CURVE SMOOTH",
"447 150 OFFCURVE",
"377 31 OFFCURVE",
"247 31 CURVE SMOOTH",
"152 31 OFFCURVE",
"95 88 OFFCURVE",
"95 197 CURVE SMOOTH",
"95 334 OFFCURVE",
"165 453 OFFCURVE",
"295 453 CURVE SMOOTH"
);
}
);
width = 572;
},
{
anchors = (
{
name = bottom;
position = "{273, 0}";
},
{
name = center;
position = "{302, 247}";
},
{
name = ogonek;
position = "{514, 0}";
},
{
name = stroke;
position = "{486, 594}";
},
{
name = top;
position = "{349, 484}";
},
{
name = topright;
position = "{684, 705}";
}
);
background = {
paths = (
{
closed = 1;
nodes = (
"280 -12 OFFCURVE",
"335 18 OFFCURVE",
"365 84 CURVE",
"360 84 LINE",
"346 0 LINE",
"543 0 LINE",
"621 494 LINE",
"424 494 LINE",
"413 418 LINE",
"418 418 LINE",
"398 471 OFFCURVE",
"339 506 OFFCURVE",
"277 506 CURVE SMOOTH",
"128 506 OFFCURVE",
"25 389 OFFCURVE",
"25 209 CURVE SMOOTH",
"25 73 OFFCURVE",
"114 -12 OFFCURVE",
"217 -12 CURVE SMOOTH"
);
},
{
closed = 1;
nodes = (
"249 134 OFFCURVE",
"224 164 OFFCURVE",
"224 218 CURVE SMOOTH",
"224 304 OFFCURVE",
"260 360 OFFCURVE",
"314 360 CURVE SMOOTH",
"361 360 OFFCURVE",
"386 331 OFFCURVE",
"386 277 CURVE SMOOTH",
"386 191 OFFCURVE",
"350 134 OFFCURVE",
"296 134 CURVE SMOOTH"
);
}
);
};
layerId = "5B4126D3-DE9F-4159-B940-B7B1ABEC53A3";
paths = (
{
closed = 1;
nodes = (
"419 418 LINE",
"397 471 OFFCURVE",
"340 506 OFFCURVE",
"267 506 CURVE SMOOTH",
"129 506 OFFCURVE",
"26 389 OFFCURVE",
"26 209 CURVE SMOOTH",
"26 73 OFFCURVE",
"112 -12 OFFCURVE",
"213 -12 CURVE SMOOTH",
"285 -12 OFFCURVE",
"340 30 OFFCURVE",
"368 84 CURVE",
"360 84 LINE",
"347 0 LINE",
"544 0 LINE",
"621 494 LINE",
"424 494 LINE",
"412 418 LINE"
);
},
{
closed = 1;
nodes = (
"250 134 OFFCURVE",
"225 163 OFFCURVE",
"225 217 CURVE SMOOTH",
"225 303 OFFCURVE",
"259 360 OFFCURVE",
"315 360 CURVE SMOOTH",
"362 360 OFFCURVE",
"387 330 OFFCURVE",
"387 276 CURVE SMOOTH",
"387 190 OFFCURVE",
"353 134 OFFCURVE",
"297 134 CURVE SMOOTH"
);
}
);
width = 627;
}
);
leftKerningGroup = o;
leftMetricsKey = o;
rightKerningGroup = u;
rightMetricsKey = "=|n";
userData = {
anchors = (
);
b = {
};
com.typemytype.robofont.layerData = {
b = {
anchors = (
);
components = (
);
contours = (
);
lib = {
};
name = p;
unicodes = (
);
width = 1181;
};
};
components = (
);
contours = (
);
lib = {
};
name = p;
unicodes = (
);
width = 1207;
};
},
{
color = 8;
glyphname = b;
lastChange = "2019-08-21 08:31:23 +0000";
layers = (
{
anchors = (
{
name = bottom;
position = "{272, 0}";
},
{
name = top;
position = "{374, 705}";
}
);
background = {
anchors = (
{
name = bottom;
position = "{271, 0}";
},
{
name = center;
position = "{302, 242}";
},
{
name = ogonek;
position = "{322, 0}";
},
{
name = top;
position = "{373, 705}";
},
{
name = topright;
position = "{386, 484}";
}
);
components = (
{
name = o;
transform = "{1, 0, 0, 1, 30, 0}";
}
);
};
layerId = "80A9362C-6FC3-40B9-AFF8-C1622415CC09";
paths = (
{
closed = 1;
nodes = (
"421 -8 OFFCURVE",
"519 121 OFFCURVE",
"519 280 CURVE SMOOTH",
"519 416 OFFCURVE",
"443 492 OFFCURVE",
"326 492 CURVE SMOOTH",
"238 492 OFFCURVE",
"167 442 OFFCURVE",
"133 358 CURVE",
"146 358 LINE",
"200 705 LINE",
"158 705 LINE",
"47 0 LINE",
"89 0 LINE",
"108 126 LINE",
"104 128 LINE",
"124 31 OFFCURVE",
"195 -8 OFFCURVE",
"274 -8 CURVE SMOOTH"
);
},
{
closed = 1;
nodes = (
"181 31 OFFCURVE",
"124 88 OFFCURVE",
"124 197 CURVE SMOOTH",
"124 334 OFFCURVE",
"194 453 OFFCURVE",
"324 453 CURVE SMOOTH",
"419 453 OFFCURVE",
"476 396 OFFCURVE",
"476 287 CURVE SMOOTH",
"476 150 OFFCURVE",
"406 31 OFFCURVE",
"276 31 CURVE SMOOTH"
);
}
);
width = 571;
},
{
anchors = (
{
name = bottom;
position = "{265, 0}";
},
{
name = top;
position = "{398, 705}";
}
);
background = {
paths = (
{
closed = 1;
nodes = (
"515 -12 OFFCURVE",
"603 125 OFFCURVE",
"603 285 CURVE SMOOTH",
"603 412 OFFCURVE",
"537 506 OFFCURVE",
"428 506 CURVE SMOOTH",
"346 506 OFFCURVE",
"295 466 OFFCURVE",
"263 410 CURVE",
"271 410 LINE",
"312 674 LINE",
"112 674 LINE",
"6 0 LINE",
"203 0 LINE",
"215 76 LINE",
"210 76 LINE",
"222 23 OFFCURVE",
"286 -12 OFFCURVE",
"356 -12 CURVE SMOOTH"
);
},
{
closed = 1;
nodes = (
"267 134 OFFCURVE",
"242 163 OFFCURVE",
"242 217 CURVE SMOOTH",
"242 303 OFFCURVE",
"278 360 OFFCURVE",
"332 360 CURVE SMOOTH",
"379 360 OFFCURVE",
"404 330 OFFCURVE",
"404 276 CURVE SMOOTH",
"404 190 OFFCURVE",
"368 134 OFFCURVE",
"314 134 CURVE SMOOTH"
);
}
);
};
guideLines = (
{
angle = 81.2838;
position = "{295, 562}";
}
);
layerId = "5B4126D3-DE9F-4159-B940-B7B1ABEC53A3";
paths = (
{
closed = 1;
nodes = (
"209 76 LINE",
"230 23 OFFCURVE",
"287 -12 OFFCURVE",
"361 -12 CURVE SMOOTH",
"499 -12 OFFCURVE",
"602 105 OFFCURVE",
"602 285 CURVE SMOOTH",
"602 421 OFFCURVE",
"520 506 OFFCURVE",
"415 506 CURVE SMOOTH",
"339 506 OFFCURVE",
"284 465 OFFCURVE",
"258 410 CURVE",
"271 410 LINE",
"317 705 LINE",
"117 705 LINE",
"5 0 LINE",
"202 0 LINE",
"214 76 LINE"
);
},
{
closed = 1;
nodes = (
"378 360 OFFCURVE",
"403 331 OFFCURVE",
"403 277 CURVE SMOOTH",
"403 191 OFFCURVE",
"369 134 OFFCURVE",
"313 134 CURVE SMOOTH",
"266 134 OFFCURVE",
"241 164 OFFCURVE",
"241 218 CURVE SMOOTH",
"241 304 OFFCURVE",
"275 360 OFFCURVE",
"331 360 CURVE SMOOTH"
);
}
);
width = 627;
}
);
leftKerningGroup = h;
leftMetricsKey = n;
rightKerningGroup = o;
rightMetricsKey = o;
unicode = 0062;
userData = {
anchors = (
);
b = {
};
com.typemytype.robofont.layerData = {
b = {
anchors = (
);
components = (
);
contours = (
{
points = (
{
segmentType = curve;
smooth = 1;
x = 238;
y = 1425;
},
{
smooth = 0;
x = 198;
y = 1425;
},
{
smooth = 0;
x = 158;
y = 1400;
},
{
segmentType = curve;
smooth = 1;
x = 158;
y = 1351;
},
{
segmentType = line;
smooth = 1;
x = 158;
y = 76;
},
{
smooth = 0;
x = 158;
y = 27;
},
{
smooth = 0;
x = 197;
y = 3;
},
{
segmentType = curve;
smooth = 1;
x = 237;
y = 3;
},
{
smooth = 0;
x = 297;
y = 3;
},
{
smooth = 0;
x = 318;
y = 38;
},
{
segmentType = curve;
smooth = 1;
x = 318;
y = 76;
},
{
segmentType = line;
smooth = 0;
x = 318;
y = 183;
},
{
smooth = 0;
x = 384;
y = 46;
},
{
smooth = 0;
x = 516;
y = "-20";
},
{
segmentType = curve;
smooth = 1;
x = 666;
y = "-20";
},
{
smooth = 0;
x = 957;
y = "-20";
},
{
smooth = 0;
x = 1095;
y = 225;
},
{
segmentType = curve;
smooth = 1;
x = 1095;
y = 502;
},
{
smooth = 0;
x = 1095;
y = 777;
},
{
smooth = 0;
x = 939;
y = 1013;
},
{
segmentType = curve;
smooth = 1;
x = 650;
y = 1013;
},
{
smooth = 0;
x = 503;
y = 1013;
},
{
smooth = 0;
x = 376;
y = 942;
},
{
segmentType = curve;
smooth = 0;
x = 318;
y = 814;
},
{
segmentType = line;
smooth = 1;
x = 318;
y = 1351;
},
{
smooth = 0;
x = 318;
y = 1400;
},
{
smooth = 0;
x = 278;
y = 1425;
}
);
},
{
points = (
{
segmentType = curve;
smooth = 1;
x = 632;
y = 903;
},
{
smooth = 0;
x = 859;
y = 903;
},
{
smooth = 0;
x = 935;
y = 685;
},
{
segmentType = curve;
smooth = 1;
x = 935;
y = 496;
},
{
smooth = 0;
x = 935;
y = 316;
},
{
smooth = 0;
x = 869;
y = 93;
},
{
segmentType = curve;
smooth = 0;
x = 645;
y = 90;
},
{
smooth = 0;
x = 395;
y = 90;
},
{
smooth = 0;
x = 319;
y = 279;
},
{
segmentType = curve;
smooth = 1;
x = 319;
y = 501;
},
{
smooth = 0;
x = 319;
y = 701;
},
{
smooth = 0;
x = 407;
y = 903;
}
);
}
);
lib = {
};
name = b;
unicodes = (
);
width = 1181;
};
};
components = (
);
contours = (
);
lib = {
};
name = b;
unicodes = (
);
width = 1203;
};
},
{
color = 1;
glyphname = c;
lastChange = "2019-08-20 15:07:34 +0000";
layers = (
{
background = {
anchors = (
{
name = bottom;
position = "{234, 0}";
},
{
name = top;
position = "{311, 484}";
}
);
components = (
{
name = o;
}
);
};
guideLines = (
{
angle = 233.427;
position = "{458, 403}";
}
);
layerId = "80A9362C-6FC3-40B9-AFF8-C1622415CC09";
paths = (
{
closed = 1;
nodes = (
"307 -8 OFFCURVE",
"370 15 OFFCURVE",
"406 50 CURVE",
"389 84 LINE",
"350 49 OFFCURVE",
"294 31 OFFCURVE",
"246 31 CURVE SMOOTH",
"149 31 OFFCURVE",
"94 90 OFFCURVE",
"94 199 CURVE SMOOTH",
"94 353 OFFCURVE",
"174 453 OFFCURVE",
"293 453 CURVE SMOOTH",
"355 453 OFFCURVE",
"400 429 OFFCURVE",
"440 379 CURVE",
"462 409 LINE",
"426 457 OFFCURVE",
"370 492 OFFCURVE",
"295 492 CURVE SMOOTH",
"151 492 OFFCURVE",
"51 373 OFFCURVE",
"51 198 CURVE SMOOTH",
"51 72 OFFCURVE",
"126 -8 OFFCURVE",
"244 -8 CURVE SMOOTH"
);
}
);
width = 459;
},
{
background = {
components = (
{
name = o;
}
);
};
guideLines = (
{
angle = 62.5398;
position = "{488, 380}";
}
);
layerId = "5B4126D3-DE9F-4159-B940-B7B1ABEC53A3";
paths = (
{
closed = 1;
nodes = (
"349 -12 OFFCURVE",
"412 3 OFFCURVE",
"460 30 CURVE",
"414 165 LINE",
"395 154 OFFCURVE",
"353 137 OFFCURVE",
"315 137 CURVE SMOOTH",
"262 137 OFFCURVE",
"229 169 OFFCURVE",
"229 231 CURVE SMOOTH",
"229 294 OFFCURVE",
"267 357 OFFCURVE",
"343 357 CURVE SMOOTH",
"378 357 OFFCURVE",
"419 343 OFFCURVE",
"459 302 CURVE",
"524 431 LINE",
"462 489 OFFCURVE",
"386 506 OFFCURVE",
"324 506 CURVE SMOOTH",
"147 506 OFFCURVE",
"26 388 OFFCURVE",
"26 220 CURVE SMOOTH",
"26 77 OFFCURVE",
"130 -12 OFFCURVE",
"285 -12 CURVE SMOOTH"
);
}
);
width = 494;
}
);
leftKerningGroup = o;
leftMetricsKey = o;
rightKerningGroup = c;
unicode = 0063;
userData = {
anchors = (
);
b = {
};
com.typemytype.robofont.layerData = {
b = {
anchors = (
);
components = (
);
contours = (
);
lib = {
};
name = c;
unicodes = (
);
width = 956.14099;
};
};
components = (
);
contours = (
);
lib = {
};
name = c;
unicodes = (
);
width = 992;
};
},
{
color = 1;
glyphname = d;
lastChange = "2019-08-21 08:28:47 +0000";
layers = (
{
anchors = (
{
name = bottom;
position = "{251, 0}";
},
{
name = center;
position = "{290, 245}";
},
{
name = stroke;
position = "{468, 580}";
},
{
name = top;
position = "{328, 484}";
},
{
name = topright;
position = "{610, 705}";
}
);
background = {
paths = (
{
closed = 1;
nodes = (
"333 -8 OFFCURVE",
"401 42 OFFCURVE",
"438 126 CURVE",
"425 126 LINE",
"405 0 LINE",
"447 0 LINE",
"559 705 LINE",
"517 705 LINE",
"463 358 LINE",
"467 356 LINE",
"445 453 OFFCURVE",
"376 492 OFFCURVE",
"297 492 CURVE SMOOTH",
"150 492 OFFCURVE",
"52 363 OFFCURVE",
"52 204 CURVE SMOOTH",
"52 68 OFFCURVE",
"128 -8 OFFCURVE",
"245 -8 CURVE SMOOTH"
);
},
{
closed = 1;
nodes = (
"152 31 OFFCURVE",
"95 88 OFFCURVE",
"95 197 CURVE SMOOTH",
"95 334 OFFCURVE",
"165 453 OFFCURVE",
"295 453 CURVE SMOOTH",
"390 453 OFFCURVE",
"447 396 OFFCURVE",
"447 287 CURVE SMOOTH",
"447 150 OFFCURVE",
"377 31 OFFCURVE",
"247 31 CURVE SMOOTH"
);
}
);
};
guideLines = (
{
angle = 260.9935;
position = "{490, 532}";
}
);
layerId = "80A9362C-6FC3-40B9-AFF8-C1622415CC09";
paths = (
{
closed = 1;
nodes = (
"467 356 LINE",
"447 453 OFFCURVE",
"376 492 OFFCURVE",
"297 492 CURVE SMOOTH",
"150 492 OFFCURVE",
"52 363 OFFCURVE",
"52 204 CURVE SMOOTH",
"52 68 OFFCURVE",
"128 -8 OFFCURVE",
"245 -8 CURVE SMOOTH",
"333 -8 OFFCURVE",
"404 42 OFFCURVE",
"438 126 CURVE",
"425 126 LINE",
"405 0 LINE",
"447 0 LINE",
"559 705 LINE",
"517 705 LINE",
"463 358 LINE"
);
},
{
closed = 1;
nodes = (
"390 453 OFFCURVE",
"447 396 OFFCURVE",
"447 287 CURVE SMOOTH",
"447 150 OFFCURVE",
"377 31 OFFCURVE",
"247 31 CURVE SMOOTH",
"152 31 OFFCURVE",
"95 88 OFFCURVE",
"95 197 CURVE SMOOTH",
"95 334 OFFCURVE",
"165 453 OFFCURVE",
"295 453 CURVE SMOOTH"
);
}
);
width = 571;
},
{
anchors = (
{
name = bottom;
position = "{277, 0}";
},
{
name = center;
position = "{304, 247}";
},
{
name = stroke;
position = "{488, 594}";
},
{
name = top;
position = "{353, 484}";
},
{
name = topright;
position = "{686, 705}";
}
);
background = {
paths = (
{
closed = 1;
nodes = (
"281 -12 OFFCURVE",
"336 18 OFFCURVE",
"366 84 CURVE",
"361 84 LINE",
"347 0 LINE",
"544 0 LINE",
"655 705 LINE",
"455 705 LINE",
"411 418 LINE",
"419 418 LINE",
"399 471 OFFCURVE",
"340 506 OFFCURVE",
"278 506 CURVE SMOOTH",
"129 506 OFFCURVE",
"26 389 OFFCURVE",
"26 209 CURVE SMOOTH",
"26 73 OFFCURVE",
"115 -12 OFFCURVE",
"218 -12 CURVE SMOOTH"
);
},
{
closed = 1;
nodes = (
"250 134 OFFCURVE",
"225 164 OFFCURVE",
"225 218 CURVE SMOOTH",
"225 304 OFFCURVE",
"261 360 OFFCURVE",
"315 360 CURVE SMOOTH",
"362 360 OFFCURVE",
"387 331 OFFCURVE",
"387 277 CURVE SMOOTH",
"387 191 OFFCURVE",
"351 134 OFFCURVE",
"297 134 CURVE SMOOTH"
);
}
);
};
layerId = "5B4126D3-DE9F-4159-B940-B7B1ABEC53A3";
paths = (
{
closed = 1;
nodes = (
"419 418 LINE",
"398 471 OFFCURVE",
"341 506 OFFCURVE",
"267 506 CURVE SMOOTH",
"129 506 OFFCURVE",
"26 389 OFFCURVE",
"26 209 CURVE SMOOTH",
"26 73 OFFCURVE",
"108 -12 OFFCURVE",
"213 -12 CURVE SMOOTH",
"289 -12 OFFCURVE",
"344 29 OFFCURVE",
"370 84 CURVE",
"360 84 LINE",
"347 0 LINE",
"544 0 LINE",
"655 705 LINE",
"455 705 LINE",
"410 418 LINE"
);
},
{
closed = 1;
nodes = (
"250 134 OFFCURVE",
"225 163 OFFCURVE",
"225 217 CURVE SMOOTH",
"225 303 OFFCURVE",
"259 360 OFFCURVE",
"315 360 CURVE SMOOTH",
"362 360 OFFCURVE",
"387 330 OFFCURVE",
"387 276 CURVE SMOOTH",
"387 190 OFFCURVE",
"353 134 OFFCURVE",
"297 134 CURVE SMOOTH"
);
}
);
width = 627;
}
);
leftKerningGroup = o;
leftMetricsKey = o;
rightKerningGroup = H;
rightMetricsKey = "=|n";
unicode = 0064;
userData = {
anchors = (
);
b = {
};
com.typemytype.robofont.layerData = {
b = {
anchors = (
);
components = (
);
contours = (
);
lib = {
};
name = d;
unicodes = (
);
width = 1181;
};
};
components = (
);
contours = (
);
lib = {
};
name = d;
unicodes = (
);
width = 1207;
};
},
{
color = 1;
glyphname = eth;
lastChange = "2019-08-20 08:25:17 +0000";
layers = (
{
background = {
paths = (
{
closed = 1;
nodes = (
"373 -8 OFFCURVE",
"464 90 OFFCURVE",
"494 281 CURVE SMOOTH",
"529 503 OFFCURVE",
"443 644 OFFCURVE",
"239 710 CURVE",
"222 677 LINE",
"411 618 OFFCURVE",
"485 480 OFFCURVE",
"453 286 CURVE",
"472 286 LINE",
"465 399 OFFCURVE",
"407 454 OFFCURVE",
"305 454 CURVE SMOOTH",
"173 454 OFFCURVE",
"72 363 OFFCURVE",
"50 223 CURVE SMOOTH",
"27 83 OFFCURVE",
"98 -8 OFFCURVE",
"229 -8 CURVE SMOOTH"
);
},
{
closed = 1;
nodes = (
"126 31 OFFCURVE",
"73 101 OFFCURVE",
"93 223 CURVE SMOOTH",
"112 342 OFFCURVE",
"189 415 OFFCURVE",
"296 415 CURVE SMOOTH",
"403 415 OFFCURVE",
"458 342 OFFCURVE",
"439 223 CURVE SMOOTH",
"420 104 OFFCURVE",
"341 31 OFFCURVE",
"234 31 CURVE SMOOTH"
);
},
{
closed = 1;
nodes = (
"505 677 LINE",
"496 710 LINE",
"174 583 LINE",
"182 550 LINE"
);
}
);
};
layerId = "80A9362C-6FC3-40B9-AFF8-C1622415CC09";
paths = (
{
closed = 1;
nodes = (
"373 -8 OFFCURVE",
"463 90 OFFCURVE",
"493 281 CURVE SMOOTH",
"528 503 OFFCURVE",
"442 644 OFFCURVE",
"239 710 CURVE",
"222 678 LINE",
"411 618 OFFCURVE",
"485 480 OFFCURVE",
"453 286 CURVE",
"472 286 LINE",
"465 399 OFFCURVE",
"407 454 OFFCURVE",
"305 454 CURVE SMOOTH",
"173 454 OFFCURVE",
"72 363 OFFCURVE",
"50 223 CURVE SMOOTH",
"27 83 OFFCURVE",
"98 -8 OFFCURVE",
"229 -8 CURVE SMOOTH"
);
},
{
closed = 1;
nodes = (
"125 32 OFFCURVE",
"74 101 OFFCURVE",
"94 223 CURVE SMOOTH",
"113 342 OFFCURVE",
"188 414 OFFCURVE",
"296 414 CURVE SMOOTH",
"403 414 OFFCURVE",
"456 342 OFFCURVE",
"437 223 CURVE SMOOTH",
"418 104 OFFCURVE",
"341 32 OFFCURVE",
"234 32 CURVE SMOOTH"
);
},
{
closed = 1;
nodes = (
"504 677 LINE",
"495 710 LINE",
"174 583 LINE",
"183 551 LINE"
);
}
);
width = 540;
},
{
background = {
paths = (
{
closed = 1;
nodes = (
"446 -12 OFFCURVE",
"574 108 OFFCURVE",
"603 294 CURVE SMOOTH",
"629 455 OFFCURVE",
"532 676 OFFCURVE",
"222 719 CURVE",
"169 594 LINE",
"328 570 OFFCURVE",
"445 473 OFFCURVE",
"425 341 CURVE",
"458 341 LINE",
"439 418 OFFCURVE",
"389 445 OFFCURVE",
"309 445 CURVE SMOOTH",
"163 445 OFFCURVE",
"43 351 OFFCURVE",
"23 221 CURVE SMOOTH",
"1 85 OFFCURVE",
"98 -12 OFFCURVE",
"259 -12 CURVE SMOOTH"
);
},
{
closed = 1;
nodes = (
"241 137 OFFCURVE",
"216 169 OFFCURVE",
"224 220 CURVE SMOOTH",
"232 270 OFFCURVE",
"267 302 OFFCURVE",
"316 302 CURVE SMOOTH",
"369 302 OFFCURVE",
"390 270 OFFCURVE",
"382 220 CURVE SMOOTH",
"374 171 OFFCURVE",
"341 137 OFFCURVE",
"290 137 CURVE SMOOTH"
);
},
{
closed = 1;
nodes = (
"606 640 LINE",
"581 719 LINE",
"139 524 LINE",
"164 445 LINE"
);
}
);
};
layerId = "5B4126D3-DE9F-4159-B940-B7B1ABEC53A3";
paths = (
{
closed = 1;
nodes = (
"445 -9 OFFCURVE",
"573 108 OFFCURVE",
"602 294 CURVE SMOOTH",
"628 455 OFFCURVE",
"531 676 OFFCURVE",
"221 719 CURVE",
"168 594 LINE",
"327 570 OFFCURVE",
"444 473 OFFCURVE",
"424 341 CURVE",
"457 341 LINE",
"438 418 OFFCURVE",
"388 445 OFFCURVE",
"308 445 CURVE SMOOTH",
"162 445 OFFCURVE",
"42 351 OFFCURVE",
"22 221 CURVE SMOOTH",
"0 85 OFFCURVE",
"97 -9 OFFCURVE",
"258 -9 CURVE SMOOTH"
);
},
{
closed = 1;
nodes = (
"241 140 OFFCURVE",
"215 170 OFFCURVE",
"223 221 CURVE SMOOTH",
"231 271 OFFCURVE",
"266 302 OFFCURVE",
"315 302 CURVE SMOOTH",
"368 302 OFFCURVE",
"389 271 OFFCURVE",
"381 221 CURVE SMOOTH",
"373 173 OFFCURVE",
"341 140 OFFCURVE",
"290 140 CURVE SMOOTH"
);
},
{
closed = 1;
nodes = (
"605 640 LINE",
"580 719 LINE",
"138 524 LINE",
"163 445 LINE"
);
}
);
width = 616;
}
);
leftKerningGroup = o;
leftMetricsKey = o;
rightKerningGroup = o;
unicode = 00F0;
userData = {
com.typemytype.robofont.layerData = {
b = {
anchors = (
);
components = (
);
contours = (
);
lib = {
};
name = eth;
unicodes = (
);
width = 1230;
};
};
};
},
{
color = 8;
glyphname = e;
lastChange = "2019-08-20 16:06:00 +0000";
layers = (
{
background = {
anchors = (
{
name = bottom;
position = "{278, 0}";
},
{
name = ogonek;
position = "{343, 0}";
},
{
name = top;
position = "{278, 484}";
}
);
paths = (
{
closed = 1;
nodes = (
"324 -8 OFFCURVE",
"399 20 OFFCURVE",
"437 60 CURVE",
"419 92 LINE",
"373 51 OFFCURVE",
"318 31 OFFCURVE",
"256 31 CURVE SMOOTH",
"132 31 OFFCURVE",
"77 116 OFFCURVE",
"98 245 CURVE SMOOTH",
"102 267 LINE SMOOTH",
"118 364 OFFCURVE",
"184 455 OFFCURVE",
"291 454 CURVE SMOOTH",
"405 453 OFFCURVE",
"460 376 OFFCURVE",
"442 259 CURVE",
"461 271 LINE",
"88 271 LINE",
"82 234 LINE",
"477 234 LINE",
"481 260 LINE SMOOTH",
"502 399 OFFCURVE",
"419 492 OFFCURVE",
"293 492 CURVE SMOOTH",
"145 492 OFFCURVE",
"52 355 OFFCURVE",
"52 200 CURVE SMOOTH",
"52 69 OFFCURVE",
"134 -8 OFFCURVE",
"255 -8 CURVE SMOOTH"
);
}
);
};
guideLines = (
{
angle = 261.2538;
position = "{441, 252}";
},
{
angle = 118.4956;
position = "{244, 415}";
}
);
layerId = "80A9362C-6FC3-40B9-AFF8-C1622415CC09";
paths = (
{
closed = 1;
nodes = (
"328 -8 OFFCURVE",
"401 15 OFFCURVE",
"444 61 CURVE",
"422 92 LINE",
"376 48 OFFCURVE",
"324 31 OFFCURVE",
"260 31 CURVE SMOOTH",
"138 31 OFFCURVE",
"76 118 OFFCURVE",
"97 246 CURVE SMOOTH",
"100 264 LINE SMOOTH",
"116 355 OFFCURVE",
"175 454 OFFCURVE",
"301 454 CURVE SMOOTH",
"418 454 OFFCURVE",
"453 364 OFFCURVE",
"440 259 CURVE",
"459 271 LINE",
"86 271 LINE",
"80 234 LINE",
"475 234 LINE",
"477 249 LINE SMOOTH",
"494 378 OFFCURVE",
"447 492 OFFCURVE",
"301 492 CURVE SMOOTH",
"148 492 OFFCURVE",
"52 363 OFFCURVE",
"52 204 CURVE SMOOTH",
"52 70 OFFCURVE",
"134 -8 OFFCURVE",
"263 -8 CURVE SMOOTH"
);
}
);
width = 526;
},
{
anchors = (
{
name = bottom;
position = "{273, 0}";
},
{
name = ogonek;
position = "{356, 0}";
},
{
name = top;
position = "{326, 494}";
}
);
background = {
paths = (
{
closed = 1;
nodes = (
"381 -12 OFFCURVE",
"467 10 OFFCURVE",
"515 45 CURVE",
"470 177 LINE",
"433 154 OFFCURVE",
"371 140 OFFCURVE",
"342 140 CURVE SMOOTH",
"241 140 OFFCURVE",
"209 175 OFFCURVE",
"223 257 CURVE SMOOTH",
"228 287 LINE SMOOTH",
"237 343 OFFCURVE",
"272 370 OFFCURVE",
"315 370 CURVE SMOOTH",
"360 370 OFFCURVE",
"389 341 OFFCURVE",
"383 286 CURVE",
"400 300 LINE",
"210 300 LINE",
"194 199 LINE",
"537 199 LINE",
"541 226 LINE SMOOTH",
"566 395 OFFCURVE",
"471 506 OFFCURVE",
"316 506 CURVE SMOOTH",
"162 506 OFFCURVE",
"52 409 OFFCURVE",
"31 280 CURVE SMOOTH",
"3 110 OFFCURVE",
"108 -12 OFFCURVE",
"317 -12 CURVE SMOOTH"
);
}
);
};
layerId = "5B4126D3-DE9F-4159-B940-B7B1ABEC53A3";
paths = (
{
closed = 1;
nodes = (
"382 -12 OFFCURVE",
"457 10 OFFCURVE",
"508 46 CURVE",
"469 177 LINE",
"430 150 OFFCURVE",
"378 135 OFFCURVE",
"327 135 CURVE SMOOTH",
"240 135 OFFCURVE",
"204 161 OFFCURVE",
"213 241 CURVE SMOOTH",
"218 274 LINE SMOOTH",
"228 337 OFFCURVE",
"250 376 OFFCURVE",
"311 376 CURVE SMOOTH",
"364 376 OFFCURVE",
"390 335 OFFCURVE",
"382 285 CURVE",
"400 296 LINE",
"201 296 LINE",
"188 207 LINE",
"534 207 LINE",
"539 237 LINE SMOOTH",
"565 400 OFFCURVE",
"475 505 OFFCURVE",
"315 505 CURVE SMOOTH",
"164 505 OFFCURVE",
"26 408 OFFCURVE",
"26 217 CURVE SMOOTH",
"26 74 OFFCURVE",
"128 -12 OFFCURVE",
"298 -12 CURVE SMOOTH"
);
}
);
width = 561;
},
{
anchors = (
{
name = bottom;
position = "{278, 0}";
},
{
name = ogonek;
position = "{361, 0}";
},
{
name = top;
position = "{331, 494}";
}
);
associatedMasterId = "5B4126D3-DE9F-4159-B940-B7B1ABEC53A3";
background = {
paths = (
{
closed = 1;
nodes = (
"362 -12 OFFCURVE",
"455 10 OFFCURVE",
"514 45 CURVE",
"479 177 LINE",
"427 148 OFFCURVE",
"361 134 OFFCURVE",
"312 134 CURVE SMOOTH",
"244 134 OFFCURVE",
"210 160 OFFCURVE",
"214 229 CURVE",
"219 249 LINE",
"230 330 OFFCURVE",
"266 377 OFFCURVE",
"325 377 CURVE SMOOTH",
"374 377 OFFCURVE",
"392 342 OFFCURVE",
"388 291 CURVE",
"405 296 LINE",
"181 296 LINE",
"173 205 LINE",
"539 205 LINE",
"544 240 LINE SMOOTH",
"570 397 OFFCURVE",
"482 505 OFFCURVE",
"324 505 CURVE SMOOTH",
"137 505 OFFCURVE",
"26 365 OFFCURVE",
"26 229 CURVE SMOOTH",
"26 94 OFFCURVE",
"114 -12 OFFCURVE",
"291 -12 CURVE SMOOTH"
);
}
);
};
layerId = "EF153D3B-ABE7-4FFA-A7F6-EBEEAB50A425";
name = "Bold ]177]";
paths = (
{
closed = 1;
nodes = (
"382 -12 OFFCURVE",
"462 10 OFFCURVE",
"513 46 CURVE",
"474 177 LINE",
"435 150 OFFCURVE",
"378 135 OFFCURVE",
"327 135 CURVE SMOOTH",
"240 135 OFFCURVE",
"204 161 OFFCURVE",
"213 241 CURVE SMOOTH",
"218 274 LINE SMOOTH",
"228 337 OFFCURVE",
"250 376 OFFCURVE",
"311 376 CURVE SMOOTH",
"364 376 OFFCURVE",
"390 335 OFFCURVE",
"382 285 CURVE",
"400 296 LINE",
"201 296 LINE",
"188 205 LINE",
"539 205 LINE",
"544 237 LINE SMOOTH",
"569 400 OFFCURVE",
"480 505 OFFCURVE",
"315 505 CURVE SMOOTH",
"164 505 OFFCURVE",
"26 408 OFFCURVE",
"26 217 CURVE SMOOTH",
"26 74 OFFCURVE",
"128 -12 OFFCURVE",
"298 -12 CURVE SMOOTH"
);
}
);
width = 566;
}
);
leftKerningGroup = o;
leftMetricsKey = o;
rightKerningGroup = e;
unicode = 0065;
userData = {
anchors = (
);
b = {
};
com.typemytype.robofont.layerData = {
b = {
anchors = (
);
components = (
);
contours = (
);
lib = {
};
name = e;
unicodes = (
);
width = 1132;
};
};
components = (
);
contours = (
);
lib = {
};
name = e;
unicodes = (
);
width = 1132;
};
},
{
color = 8;
glyphname = f;
lastChange = "2019-08-19 15:10:51 +0000";
layers = (
{
anchors = (
{
name = bottom;
position = "{88, 0}";
},
{
name = top;
position = "{200, 705}";
}
);
background = {
anchors = (
{
name = bottom;
position = "{87, 0}";
},
{
name = top;
position = "{199, 705}";
}
);
paths = (
{
closed = 1;
nodes = (
"205 611 OFFCURVE",
"252 661 OFFCURVE",
"337 667 CURVE SMOOTH",
"383 670 LINE",
"384 707 LINE",
"353 705 LINE SMOOTH",
"234 698 OFFCURVE",
"167 636 OFFCURVE",
"148 515 CURVE SMOOTH",
"141 473 LINE",
"153 484 LINE",
"46 484 LINE",
"40 448 LINE",
"137 448 LINE",
"66 0 LINE",
"108 0 LINE",
"179 448 LINE",
"325 448 LINE",
"331 484 LINE",
"185 484 LINE",
"190 515 LINE SMOOTH"
);
}
);
};
layerId = "80A9362C-6FC3-40B9-AFF8-C1622415CC09";
paths = (
{
closed = 1;
nodes = (
"108 0 LINE",
"178 448 LINE",
"325 448 LINE",
"331 484 LINE",
"183 484 LINE",
"189 528 LINE SMOOTH",
"201 616 OFFCURVE",
"253 662 OFFCURVE",
"337 667 CURVE SMOOTH",
"383 670 LINE",
"381 707 LINE",
"333 704 LINE SMOOTH",
"229 697 OFFCURVE",
"163 637 OFFCURVE",
"149 533 CURVE SMOOTH",
"139 461 LINE",
"153 484 LINE",
"46 484 LINE",
"40 448 LINE",
"136 448 LINE",
"66 0 LINE"
);
}
);
width = 306;
},
{
anchors = (
{
name = bottom;
position = "{153, 0}";
},
{
name = top;
position = "{264, 705}";
}
);
background = {
anchors = (
{
name = bottom;
position = "{153, 0}";
},
{
name = top;
position = "{264, 705}";
}
);
paths = (
{
closed = 1;
nodes = (
"339 546 OFFCURVE",
"364 562 OFFCURVE",
"440 567 CURVE SMOOTH",
"487 570 LINE",
"499 712 LINE",
"433 708 LINE SMOOTH",
"246 698 OFFCURVE",
"151 623 OFFCURVE",
"127 466 CURVE SMOOTH",
"123 441 LINE",
"189 494 LINE",
"39 494 LINE",
"16 347 LINE",
"108 347 LINE",
"53 0 LINE",
"253 0 LINE",
"308 347 LINE",
"428 347 LINE",
"451 494 LINE",
"331 494 LINE",
"333 505 LINE SMOOTH"
);
}
);
};
guideLines = (
{
angle = 260.9935;
position = "{80, 174}";
},
{
angle = 81.1546;
position = "{280, 174}";
},
{
angle = 266.7755;
position = "{487, 641}";
}
);
layerId = "5B4126D3-DE9F-4159-B940-B7B1ABEC53A3";
paths = (
{
closed = 1;
nodes = (
"252 0 LINE",
"307 347 LINE",
"427 347 LINE",
"451 494 LINE",
"325 494 LINE",
"325 499 LINE SMOOTH",
"327 540 OFFCURVE",
"355 563 OFFCURVE",
"431 567 CURVE SMOOTH",
"483 570 LINE",
"491 712 LINE",
"418 709 LINE SMOOTH",
"216 701 OFFCURVE",
"130 617 OFFCURVE",
"125 464 CURVE",
"123 431 LINE",
"172 494 LINE",
"39 494 LINE",
"16 347 LINE",
"108 347 LINE",
"52 0 LINE"
);
}
);
width = 413;
}
);
leftKerningGroup = f;
rightKerningGroup = f;
unicode = 0066;
userData = {
anchors = (
);
b = {
};
com.typemytype.robofont.layerData = {
b = {
anchors = (
);
components = (
);
contours = (
);
lib = {
};
name = f;
unicodes = (
);
width = 696;
};
};
components = (
);
contours = (
);
lib = {
};
name = f;
unicodes = (
);
width = 723;
};
},
{
color = 8;
glyphname = g;
lastChange = "2019-08-21 10:06:56 +0000";
layers = (
{
anchors = (
{
name = bottom;
position = "{250, 19}";
},
{
name = center;
position = "{296, 264}";
},
{
name = ogonek;
position = "{453, 19}";
},
{
name = stroke;
position = "{474, 599}";
},
{
name = top;
position = "{332, 484}";
},
{
name = topright;
position = "{616, 724}";
}
);
background = {
paths = (
{
closed = 1;
nodes = (
"361 -188 OFFCURVE",
"428 -126 OFFCURVE",
"449 6 CURVE SMOOTH",
"525 484 LINE",
"484 484 LINE",
"462 346 LINE",
"466 345 LINE",
"454 436 OFFCURVE",
"398 492 OFFCURVE",
"296 492 CURVE SMOOTH",
"152 492 OFFCURVE",
"54 364 OFFCURVE",
"54 212 CURVE SMOOTH",
"54 91 OFFCURVE",
"135 11 OFFCURVE",
"252 11 CURVE SMOOTH",
"340 11 OFFCURVE",
"405 55 OFFCURVE",
"437 139 CURVE",
"429 140 LINE",
"408 6 LINE SMOOTH",
"392 -95 OFFCURVE",
"333 -149 OFFCURVE",
"241 -149 CURVE SMOOTH",
"164 -149 OFFCURVE",
"110 -129 OFFCURVE",
"54 -77 CURVE",
"34 -111 LINE",
"82 -159 OFFCURVE",
"152 -188 OFFCURVE",
"239 -188 CURVE SMOOTH"
);
},
{
closed = 1;
nodes = (
"154 50 OFFCURVE",
"97 111 OFFCURVE",
"97 213 CURVE SMOOTH",
"97 339 OFFCURVE",
"169 453 OFFCURVE",
"294 453 CURVE SMOOTH",
"394 453 OFFCURVE",
"449 393 OFFCURVE",
"449 293 CURVE SMOOTH",
"449 165 OFFCURVE",
"379 50 OFFCURVE",
"254 50 CURVE SMOOTH"
);
}
);
};
guideLines = (
{
angle = 61.5044;
position = "{42, -99}";
},
{
angle = 243.435;
position = "{43, -93}";
}
);
layerId = "80A9362C-6FC3-40B9-AFF8-C1622415CC09";
paths = (
{
closed = 1;
nodes = (
"361 -188 OFFCURVE",
"428 -127 OFFCURVE",
"449 2 CURVE SMOOTH",
"526 484 LINE",
"484 484 LINE",
"462 346 LINE",
"471 345 LINE",
"454 439 OFFCURVE",
"394 492 OFFCURVE",
"296 492 CURVE SMOOTH",
"150 492 OFFCURVE",
"54 368 OFFCURVE",
"54 219 CURVE SMOOTH",
"54 95 OFFCURVE",
"129 11 OFFCURVE",
"251 11 CURVE SMOOTH",
"332 11 OFFCURVE",
"404 55 OFFCURVE",
"438 139 CURVE",
"430 140 LINE",
"408 0 LINE SMOOTH",
"392 -101 OFFCURVE",
"333 -149 OFFCURVE",
"241 -149 CURVE SMOOTH",
"162 -149 OFFCURVE",
"113 -125 OFFCURVE",
"53 -76 CURVE",
"34 -111 LINE",
"85 -159 OFFCURVE",
"156 -188 OFFCURVE",
"243 -188 CURVE SMOOTH"
);
},
{
closed = 1;
nodes = (
"393 453 OFFCURVE",
"450 392 OFFCURVE",
"450 287 CURVE SMOOTH",
"450 164 OFFCURVE",
"380 50 OFFCURVE",
"253 50 CURVE SMOOTH",
"154 50 OFFCURVE",
"97 111 OFFCURVE",
"97 216 CURVE SMOOTH",
"97 339 OFFCURVE",
"167 453 OFFCURVE",
"294 453 CURVE SMOOTH"
);
}
);
width = 573;
},
{
anchors = (
{
name = bottom;
position = "{250, 19}";
},
{
name = center;
position = "{296, 264}";
},
{
name = ogonek;
position = "{453, 19}";
},
{
name = stroke;
position = "{474, 599}";
},
{
name = top;
position = "{312, 484}";
},
{
name = topright;
position = "{616, 724}";
}
);
background = {
anchors = (
{
name = top;
position = "{351, 484}";
}
);
paths = (
{
closed = 1;
nodes = (
"424 -192 OFFCURVE",
"531 -110 OFFCURVE",
"558 57 CURVE SMOOTH",
"625 479 LINE",
"429 490 LINE",
"417 410 LINE",
"428 409 LINE",
"414 468 OFFCURVE",
"347 508 OFFCURVE",
"273 508 CURVE SMOOTH",
"124 508 OFFCURVE",
"24 376 OFFCURVE",
"24 221 CURVE SMOOTH",
"24 100 OFFCURVE",
"100 16 OFFCURVE",
"219 16 CURVE SMOOTH",
"284 16 OFFCURVE",
"350 49 OFFCURVE",
"378 96 CURVE",
"370 96 LINE",
"362 45 LINE SMOOTH",
"352 -18 OFFCURVE",
"314 -44 OFFCURVE",
"245 -44 CURVE SMOOTH",
"194 -44 OFFCURVE",
"102 -21 OFFCURVE",
"53 13 CURVE",
"-18 -119 LINE",
"43 -168 OFFCURVE",
"142 -192 OFFCURVE",
"254 -192 CURVE SMOOTH"
);
},
{
closed = 1;
nodes = (
"255 159 OFFCURVE",
"226 187 OFFCURVE",
"226 238 CURVE SMOOTH",
"226 297 OFFCURVE",
"258 359 OFFCURVE",
"320 359 CURVE SMOOTH",
"365 359 OFFCURVE",
"394 330 OFFCURVE",
"394 280 CURVE SMOOTH",
"394 221 OFFCURVE",
"361 159 OFFCURVE",
"300 159 CURVE SMOOTH"
);
}
);
};
guideLines = (
{
angle = 253.4212;
position = "{115, 275}";
},
{
angle = 261.0274;
position = "{427, 456}";
}
);
layerId = "5B4126D3-DE9F-4159-B940-B7B1ABEC53A3";
paths = (
{
closed = 1;
nodes = (
"436 -192 OFFCURVE",
"532 -113 OFFCURVE",
"556 41 CURVE SMOOTH",
"627 494 LINE",
"430 494 LINE",
"418 418 LINE",
"425 418 LINE",
"402 471 OFFCURVE",
"342 506 OFFCURVE",
"273 506 CURVE SMOOTH",
"124 506 OFFCURVE",
"27 374 OFFCURVE",
"27 229 CURVE SMOOTH",
"27 98 OFFCURVE",
"103 13 OFFCURVE",
"222 13 CURVE SMOOTH",
"287 13 OFFCURVE",
"350 39 OFFCURVE",
"379 95 CURVE",
"370 96 LINE",
"361 36 LINE SMOOTH",
"352 -26 OFFCURVE",
"307 -46 OFFCURVE",
"249 -46 CURVE SMOOTH",
"189 -46 OFFCURVE",
"107 -26 OFFCURVE",
"31 22 CURVE",
"-10 -116 LINE",
"71 -174 OFFCURVE",
"161 -192 OFFCURVE",
"267 -192 CURVE SMOOTH"
);
},
{
closed = 1;
nodes = (
"255 160 OFFCURVE",
"226 188 OFFCURVE",
"226 239 CURVE SMOOTH",
"226 298 OFFCURVE",
"258 360 OFFCURVE",
"320 360 CURVE SMOOTH",
"365 360 OFFCURVE",
"394 331 OFFCURVE",
"394 281 CURVE SMOOTH",
"394 222 OFFCURVE",
"361 160 OFFCURVE",
"300 160 CURVE SMOOTH"
);
}
);
width = 633;
}
);
leftKerningGroup = o;
leftMetricsKey = o;
rightKerningGroup = u;
rightMetricsKey = "=|n";
unicode = 0067;
userData = {
anchors = (
);
b = {
};
com.typemytype.robofont.layerData = {
b = {
anchors = (
);
components = (
);
contours = (
);
lib = {
};
name = g;
unicodes = (
);
width = 1167;
};
};
components = (
);
contours = (
);
lib = {
};
name = g;
unicodes = (
);
width = 1207;
};
},
{
color = 8;
glyphname = h;
lastChange = "2019-08-20 08:14:50 +0000";
layers = (
{
anchors = (
{
name = bottom;
position = "{239, 0}";
},
{
name = center;
position = "{278, 245}";
},
{
name = dot;
position = "{221, 353}";
},
{
name = stroke;
position = "{211, 580}";
},
{
name = top;
position = "{316, 484}";
},
{
name = topright;
position = "{242, 705}";
}
);
background = {
anchors = (
{
name = bottom;
position = "{238, 0}";
},
{
name = center;
position = "{277, 245}";
},
{
name = dot;
position = "{221, 353}";
},
{
name = stroke;
position = "{210, 580}";
},
{
name = top;
position = "{351, 705}";
},
{
name = topright;
position = "{242, 705}";
}
);
paths = (
{
closed = 1;
nodes = (
"248 492 OFFCURVE",
"174 450 OFFCURVE",
"134 366 CURVE",
"146 366 LINE",
"200 705 LINE",
"158 705 LINE",
"46 0 LINE",
"88 0 LINE",
"132 278 LINE SMOOTH",
"149 384 OFFCURVE",
"227 453 OFFCURVE",
"330 453 CURVE SMOOTH",
"422 453 OFFCURVE",
"454 406 OFFCURVE",
"437 304 CURVE SMOOTH",
"389 0 LINE",
"431 0 LINE",
"480 308 LINE SMOOTH",
"499 430 OFFCURVE",
"450 492 OFFCURVE",
"333 492 CURVE SMOOTH"
);
}
);
};
layerId = "80A9362C-6FC3-40B9-AFF8-C1622415CC09";
paths = (
{
closed = 1;
nodes = (
"89 0 LINE",
"132 266 LINE SMOOTH",
"150 380 OFFCURVE",
"228 453 OFFCURVE",
"331 453 CURVE SMOOTH",
"418 453 OFFCURVE",
"454 402 OFFCURVE",
"438 301 CURVE SMOOTH",
"390 0 LINE",
"432 0 LINE",
"479 295 LINE SMOOTH",
"500 428 OFFCURVE",
"440 492 OFFCURVE",
"333 492 CURVE SMOOTH",
"246 492 OFFCURVE",
"172 444 OFFCURVE",
"136 364 CURVE",
"147 364 LINE",
"201 705 LINE",
"159 705 LINE",
"47 0 LINE"
);
}
);
width = 554;
},
{
anchors = (
{
name = bottom;
position = "{271, 0}";
},
{
name = center;
position = "{310, 250}";
},
{
name = dot;
position = "{409, 350}";
},
{
name = stroke;
position = "{252, 594}";
},
{
name = top;
position = "{381, 705}";
},
{
name = topright;
position = "{338, 705}";
}
);
background = {
anchors = (
{
name = bottom;
position = "{270, 0}";
},
{
name = center;
position = "{309, 250}";
},
{
name = dot;
position = "{408, 350}";
},
{
name = stroke;
position = "{251, 594}";
},
{
name = top;
position = "{380, 705}";
},
{
name = topright;
position = "{337, 705}";
}
);
paths = (
{
closed = 1;
nodes = (
"365 505 OFFCURVE",
"300 471 OFFCURVE",
"254 413 CURVE",
"272 413 LINE",
"318 705 LINE",
"118 705 LINE",
"7 0 LINE",
"207 0 LINE",
"250 272 LINE SMOOTH",
"258 321 OFFCURVE",
"293 353 OFFCURVE",
"338 353 CURVE SMOOTH",
"370 353 OFFCURVE",
"385 334 OFFCURVE",
"376 280 CURVE SMOOTH",
"332 0 LINE",
"532 0 LINE",
"577 288 LINE SMOOTH",
"601 436 OFFCURVE",
"556 505 OFFCURVE",
"439 505 CURVE SMOOTH"
);
}
);
};
layerId = "5B4126D3-DE9F-4159-B940-B7B1ABEC53A3";
paths = (
{
closed = 1;
nodes = (
"205 0 LINE",
"245 252 LINE SMOOTH",
"256 319 OFFCURVE",
"284 353 OFFCURVE",
"330 353 CURVE SMOOTH",
"367 353 OFFCURVE",
"381 330 OFFCURVE",
"373 280 CURVE SMOOTH",
"329 0 LINE",
"529 0 LINE",
"573 281 LINE SMOOTH",
"597 432 OFFCURVE",
"529 506 OFFCURVE",
"427 506 CURVE SMOOTH",
"355 506 OFFCURVE",
"302 476 OFFCURVE",
"257 409 CURVE",
"268 404 LINE",
"317 705 LINE",
"117 705 LINE",
"5 0 LINE"
);
}
);
width = 610;
}
);
leftKerningGroup = h;
leftMetricsKey = n;
rightKerningGroup = n;
rightMetricsKey = n;
unicode = 0068;
userData = {
anchors = (
);
b = {
};
com.typemytype.robofont.layerData = {
b = {
anchors = (
);
components = (
);
contours = (
);
lib = {
};
name = h;
unicodes = (
);
width = 1148;
};
};
components = (
);
contours = {
};
lib = {
};
name = h;
points = {
};
segmentType = curve;
unicodes = (
);
width = 1195;
x = 137;
y = 113;
};
},
{
glyphname = idotless;
lastChange = "2019-08-19 13:53:20 +0000";
layers = (
{
anchors = (
{
name = bottom;
position = "{68, 0}";
},
{
name = ogonek;
position = "{89, 0}";
},
{
name = top;
position = "{145, 484}";
}
);
background = {
anchors = (
{
name = bottom;
position = "{67, 0}";
},
{
name = ogonek;
position = "{88, 0}";
},
{
name = top;
position = "{144, 484}";
}
);
paths = (
{
closed = 1;
nodes = (
"88 0 LINE",
"165 484 LINE",
"123 484 LINE",
"46 0 LINE"
);
}
);
};
layerId = "80A9362C-6FC3-40B9-AFF8-C1622415CC09";
paths = (
{
closed = 1;
nodes = (
"88 0 LINE",
"165 484 LINE",
"124 484 LINE",
"47 0 LINE"
);
}
);
width = 212;
},
{
anchors = (
{
name = bottom;
position = "{105, 0}";
},
{
name = ogonek;
position = "{155, 0}";
},
{
name = top;
position = "{181, 484}";
}
);
background = {
anchors = (
{
name = bottom;
position = "{107, 0}";
},
{
name = ogonek;
position = "{157, 0}";
},
{
name = top;
position = "{183, 484}";
}
);
paths = (
{
closed = 1;
nodes = (
"207 0 LINE",
"285 494 LINE",
"85 494 LINE",
"7 0 LINE"
);
}
);
};
layerId = "5B4126D3-DE9F-4159-B940-B7B1ABEC53A3";
paths = (
{
closed = 1;
nodes = (
"205 0 LINE",
"283 494 LINE",
"83 494 LINE",
"5 0 LINE"
);
}
);
width = 288;
}
);
leftKerningGroup = n;
leftMetricsKey = n;
rightKerningGroup = u;
rightMetricsKey = "=|";
unicode = 0131;
},
{
glyphname = jdotless;
lastChange = "2019-08-19 13:53:20 +0000";
layers = (
{
anchors = (
{
name = bottom;
position = "{70, 0}";
},
{
name = top;
position = "{147, 484}";
}
);
background = {
anchors = (
{
name = bottom;
position = "{70, 0}";
},
{
name = top;
position = "{147, 484}";
}
);
paths = (
{
closed = 1;
nodes = (
"126 484 LINE",
"46 -22 LINE SMOOTH",
"33 -102 OFFCURVE",
"-11 -147 OFFCURVE",
"-80 -152 CURVE SMOOTH",
"-121 -155 LINE",
"-124 -193 LINE",
"-81 -190 LINE SMOOTH",
"10 -184 OFFCURVE",
"72 -124 OFFCURVE",
"88 -21 CURVE SMOOTH",
"168 484 LINE"
);
}
);
};
layerId = "80A9362C-6FC3-40B9-AFF8-C1622415CC09";
paths = (
{
closed = 1;
nodes = (
"-79 -190 LINE SMOOTH",
"17 -183 OFFCURVE",
"70 -125 OFFCURVE",
"87 -22 CURVE SMOOTH",
"169 484 LINE",
"127 484 LINE",
"46 -22 LINE SMOOTH",
"33 -103 OFFCURVE",
"-10 -147 OFFCURVE",
"-79 -152 CURVE SMOOTH",
"-121 -155 LINE",
"-122 -193 LINE"
);
}
);
width = 216;
},
{
anchors = (
{
name = bottom;
position = "{112, 0}";
},
{
name = top;
position = "{188, 484}";
}
);
background = {
anchors = (
{
name = bottom;
position = "{112, 0}";
},
{
name = top;
position = "{188, 484}";
}
);
paths = (
{
closed = 1;
nodes = (
"91 494 LINE",
"14 7 LINE SMOOTH",
"8 -28 OFFCURVE",
"-8 -43 OFFCURVE",
"-47 -47 CURVE SMOOTH",
"-97 -53 LINE",
"-106 -193 LINE",
"-61 -190 LINE SMOOTH",
"126 -177 OFFCURVE",
"194 -120 OFFCURVE",
"218 36 CURVE SMOOTH",
"291 494 LINE"
);
}
);
};
layerId = "5B4126D3-DE9F-4159-B940-B7B1ABEC53A3";
paths = (
{
closed = 1;
nodes = (
"-47 -189 LINE SMOOTH",
"142 -174 OFFCURVE",
"193 -120 OFFCURVE",
"216 26 CURVE SMOOTH",
"291 494 LINE",
"91 494 LINE",
"14 7 LINE SMOOTH",
"8 -28 OFFCURVE",
"-13 -44 OFFCURVE",
"-52 -48 CURVE SMOOTH",
"-97 -53 LINE",
"-98 -193 LINE"
);
}
);
width = 297;
}
);
leftKerningGroup = j;
rightKerningGroup = l;
unicode = 0237;
},
{
color = 8;
glyphname = k;
lastChange = "2019-08-19 13:53:20 +0000";
layers = (
{
anchors = (
{
name = bottom;
position = "{196, 0}";
},
{
name = top;
position = "{308, 705}";
}
);
background = {
anchors = (
{
name = bottom;
position = "{195, 0}";
},
{
name = top;
position = "{307, 705}";
}
);
paths = (
{
closed = 1;
nodes = (
"158 267 LINE",
"152 231 LINE",
"478 484 LINE",
"418 484 LINE",
"132 260 LINE",
"130 260 LINE",
"200 705 LINE",
"158 705 LINE",
"46 0 LINE",
"88 0 LINE",
"126 237 LINE",
"128 237 LINE",
"369 0 LINE",
"428 0 LINE"
);
}
);
};
layerId = "80A9362C-6FC3-40B9-AFF8-C1622415CC09";
paths = (
{
closed = 1;
nodes = (
"89 0 LINE",
"127 237 LINE",
"129 237 LINE",
"374 0 LINE",
"431 0 LINE",
"159 264 LINE",
"149 225 LINE",
"478 484 LINE",
"419 484 LINE",
"133 260 LINE",
"131 260 LINE",
"201 705 LINE",
"159 705 LINE",
"47 0 LINE"
);
}
);
width = 470;
},
{
anchors = (
{
name = bottom;
position = "{259, 0}";
},
{
name = top;
position = "{370, 705}";
}
);
background = {
anchors = (
{
name = bottom;
position = "{260, 0}";
},
{
name = top;
position = "{371, 705}";
}
);
paths = (
{
closed = 1;
nodes = (
"428 294 LINE",
"418 227 LINE",
"668 494 LINE",
"435 494 LINE",
"256 300 LINE",
"254 300 LINE",
"318 705 LINE",
"118 705 LINE",
"7 0 LINE",
"207 0 LINE",
"238 200 LINE",
"240 200 LINE",
"356 0 LINE",
"594 0 LINE"
);
}
);
};
guideLines = (
{
angle = 120.9064;
position = "{321, 74}";
}
);
layerId = "5B4126D3-DE9F-4159-B940-B7B1ABEC53A3";
paths = (
{
closed = 1;
nodes = (
"206 0 LINE",
"238 208 LINE",
"240 208 LINE",
"365 0 LINE",
"593 0 LINE",
"419 294 LINE",
"424 227 LINE",
"667 494 LINE",
"430 494 LINE",
"255 300 LINE",
"253 300 LINE",
"317 705 LINE",
"117 705 LINE",
"6 0 LINE"
);
}
);
width = 596;
}
);
leftKerningGroup = h;
leftMetricsKey = l;
rightKerningGroup = k;
unicode = 006B;
userData = {
com.typemytype.robofont.layerData = {
b = {
anchors = (
);
components = (
);
contours = (
{
points = (
{
segmentType = line;
smooth = 0;
x = 318;
y = 536;
},
{
segmentType = line;
smooth = 1;
x = 793;
y = 27;
},
{
smooth = 0;
x = 809;
y = 9;
},
{
smooth = 0;
x = 828;
y = 1;
},
{
segmentType = curve;
smooth = 1;
x = 845;
y = 1;
},
{
smooth = 0;
x = 883;
y = 1;
},
{
smooth = 0;
x = 922;
y = 33;
},
{
segmentType = curve;
smooth = 1;
x = 922;
y = 71;
},
{
smooth = 0;
x = 922;
y = 84;
},
{
smooth = 0;
x = 918;
y = 99;
},
{
segmentType = curve;
smooth = 1;
x = 906;
y = 112;
},
{
segmentType = line;
smooth = 0;
x = 492;
y = 554;
},
{
segmentType = line;
smooth = 1;
x = 873;
y = 889;
},
{
smooth = 0;
x = 888;
y = 902;
},
{
smooth = 0;
x = 894;
y = 918;
},
{
segmentType = curve;
smooth = 1;
x = 894;
y = 933;
},
{
smooth = 0;
x = 894;
y = 968;
},
{
smooth = 0;
x = 858;
y = 1002;
},
{
segmentType = curve;
smooth = 1;
x = 821;
y = 1002;
},
{
smooth = 0;
x = 802;
y = 1002;
},
{
smooth = 0;
x = 785;
y = 994;
},
{
segmentType = curve;
smooth = 0;
x = 770;
y = 979;
},
{
segmentType = line;
smooth = 0;
x = 318;
y = 574;
}
);
}
);
lib = {
};
name = k;
unicodes = (
);
width = 984;
};
};
};
},
{
color = 1;
glyphname = kgreenlandic;
lastChange = "2019-08-19 13:53:20 +0000";
layers = (
{
anchors = (
{
name = bottom;
position = "{196, 0}";
},
{
name = top;
position = "{273, 484}";
}
);
background = {
anchors = (
{
name = bottom;
position = "{195, 0}";
},
{
name = top;
position = "{272, 484}";
}
);
paths = (
{
closed = 1;
nodes = (
"158 267 LINE",
"152 231 LINE",
"478 484 LINE",
"418 484 LINE",
"132 260 LINE",
"130 260 LINE",
"166 492 LINE",
"124 492 LINE",
"46 0 LINE",
"88 0 LINE",
"126 237 LINE",
"128 237 LINE",
"369 0 LINE",
"428 0 LINE"
);
}
);
};
layerId = "80A9362C-6FC3-40B9-AFF8-C1622415CC09";
paths = (
{
closed = 1;
nodes = (
"88 0 LINE",
"126 237 LINE",
"128 237 LINE",
"370 0 LINE",
"428 0 LINE",
"157 267 LINE",
"151 231 LINE",
"478 484 LINE",
"419 484 LINE",
"132 260 LINE",
"130 260 LINE",
"166 492 LINE",
"125 492 LINE",
"47 0 LINE"
);
}
);
width = 467;
},
{
anchors = (
{
name = bottom;
position = "{258, 0}";
},
{
name = top;
position = "{334, 484}";
}
);
background = {
anchors = (
{
name = bottom;
position = "{260, 0}";
},
{
name = top;
position = "{336, 484}";
}
);
paths = (
{
closed = 1;
nodes = (
"428 294 LINE",
"418 227 LINE",
"668 494 LINE",
"435 494 LINE",
"256 300 LINE",
"254 300 LINE",
"285 494 LINE",
"85 494 LINE",
"7 0 LINE",
"207 0 LINE",
"238 200 LINE",
"240 200 LINE",
"356 0 LINE",
"594 0 LINE"
);
}
);
};
layerId = "5B4126D3-DE9F-4159-B940-B7B1ABEC53A3";
paths = (
{
closed = 1;
nodes = (
"205 0 LINE",
"236 200 LINE",
"238 200 LINE",
"354 0 LINE",
"592 0 LINE",
"426 294 LINE",
"416 227 LINE",
"666 493 LINE",
"433 493 LINE",
"254 300 LINE",
"252 300 LINE",
"283 494 LINE",
"83 494 LINE",
"5 0 LINE"
);
}
);
width = 595;
}
);
leftKerningGroup = n;
leftMetricsKey = n;
rightKerningGroup = k;
rightMetricsKey = k;
unicode = 0138;
userData = {
com.typemytype.robofont.layerData = {
b = {
anchors = (
);
components = (
);
contours = (
);
lib = {
};
name = kgreenlandic;
unicodes = (
);
width = 1047;
};
};
};
},
{
color = 1;
glyphname = l;
lastChange = "2019-08-19 13:53:20 +0000";
layers = (
{
anchors = (
{
name = bottom;
position = "{143, 0}";
},
{
name = center;
position = "{125, 357}";
},
{
name = dot;
position = "{251, 353}";
},
{
name = top;
position = "{180, 705}";
},
{
name = topright;
position = "{250, 705}";
}
);
background = {
anchors = (
{
name = bottom;
position = "{142, 0}";
},
{
name = center;
position = "{124, 357}";
},
{
name = dot;
position = "{251, 353}";
},
{
name = top;
position = "{179, 705}";
},
{
name = topright;
position = "{250, 705}";
}
);
paths = (
{
closed = 1;
nodes = (
"191 -8 OFFCURVE",
"207 -6 OFFCURVE",
"226 -2 CURVE",
"235 37 LINE",
"220 33 OFFCURVE",
"204 31 OFFCURVE",
"187 31 CURVE SMOOTH",
"125 31 OFFCURVE",
"100 72 OFFCURVE",
"113 153 CURVE SMOOTH",
"200 705 LINE",
"158 705 LINE",
"69 146 LINE SMOOTH",
"54 48 OFFCURVE",
"93 -8 OFFCURVE",
"177 -8 CURVE SMOOTH"
);
}
);
};
layerId = "80A9362C-6FC3-40B9-AFF8-C1622415CC09";
paths = (
{
closed = 1;
nodes = (
"192 -8 OFFCURVE",
"208 -6 OFFCURVE",
"227 -2 CURVE",
"236 36 LINE",
"219 32 OFFCURVE",
"200 30 OFFCURVE",
"183 30 CURVE SMOOTH",
"122 30 OFFCURVE",
"99 73 OFFCURVE",
"113 153 CURVE SMOOTH",
"208 705 LINE",
"166 705 LINE",
"71 153 LINE SMOOTH",
"54 55 OFFCURVE",
"94 -8 OFFCURVE",
"178 -8 CURVE SMOOTH"
);
}
);
width = 257;
},
{
anchors = (
{
name = bottom;
position = "{163, 0}";
},
{
name = center;
position = "{163, 357}";
},
{
name = dot;
position = "{410, 350}";
},
{
name = top;
position = "{218, 705}";
},
{
name = topright;
position = "{349, 705}";
}
);
background = {
anchors = (
{
name = bottom;
position = "{163, 0}";
},
{
name = center;
position = "{163, 357}";
},
{
name = dot;
position = "{410, 350}";
},
{
name = top;
position = "{218, 705}";
},
{
name = topright;
position = "{349, 705}";
}
);
paths = (
{
closed = 1;
nodes = (
"241 -12 OFFCURVE",
"265 -9 OFFCURVE",
"298 -2 CURVE",
"330 150 LINE",
"317 149 OFFCURVE",
"303 148 OFFCURVE",
"290 148 CURVE SMOOTH",
"249 148 OFFCURVE",
"234 171 OFFCURVE",
"240 209 CURVE SMOOTH",
"318 705 LINE",
"118 705 LINE",
"39 204 LINE SMOOTH",
"16 58 OFFCURVE",
"64 -12 OFFCURVE",
"210 -12 CURVE SMOOTH"
);
}
);
};
layerId = "5B4126D3-DE9F-4159-B940-B7B1ABEC53A3";
paths = (
{
closed = 1;
nodes = (
"254 -12 OFFCURVE",
"275 -8 OFFCURVE",
"305 1 CURVE",
"330 152 LINE",
"317 149 OFFCURVE",
"303 148 OFFCURVE",
"290 148 CURVE SMOOTH",
"249 148 OFFCURVE",
"233 181 OFFCURVE",
"240 219 CURVE SMOOTH",
"323 705 LINE",
"123 705 LINE",
"40 219 LINE SMOOTH",
"15 73 OFFCURVE",
"74 -12 OFFCURVE",
"220 -12 CURVE SMOOTH"
);
}
);
width = 364;
}
);
leftKerningGroup = h;
rightKerningGroup = l;
unicode = 006C;
userData = {
com.typemytype.robofont.layerData = {
b = {
anchors = (
);
components = (
);
contours = (
);
lib = {
};
name = l;
unicodes = (
);
width = 511;
};
};
};
},
{
color = 8;
glyphname = m;
lastChange = "2019-08-19 13:53:20 +0000";
layers = (
{
anchors = (
{
name = bottom;
position = "{420, 0}";
},
{
name = top;
position = "{420, 484}";
}
);
background = {
anchors = (
{
name = bottom;
position = "{381, 0}";
},
{
name = top;
position = "{458, 484}";
}
);
paths = (
{
closed = 1;
nodes = (
"546 492 OFFCURVE",
"470 442 OFFCURVE",
"439 365 CURVE",
"454 365 LINE",
"453 450 OFFCURVE",
"408 492 OFFCURVE",
"320 492 CURVE SMOOTH",
"240 492 OFFCURVE",
"173 448 OFFCURVE",
"137 363 CURVE",
"147 363 LINE",
"166 484 LINE",
"125 484 LINE",
"48 0 LINE",
"90 0 LINE",
"134 278 LINE SMOOTH",
"151 384 OFFCURVE",
"221 453 OFFCURVE",
"313 453 CURVE SMOOTH",
"398 453 OFFCURVE",
"425 406 OFFCURVE",
"408 304 CURVE SMOOTH",
"360 0 LINE",
"402 0 LINE",
"446 278 LINE SMOOTH",
"463 384 OFFCURVE",
"533 453 OFFCURVE",
"625 453 CURVE SMOOTH",
"710 453 OFFCURVE",
"737 406 OFFCURVE",
"720 304 CURVE SMOOTH",
"672 0 LINE",
"714 0 LINE",
"763 308 LINE SMOOTH",
"783 431 OFFCURVE",
"738 492 OFFCURVE",
"632 492 CURVE SMOOTH"
);
}
);
};
layerId = "80A9362C-6FC3-40B9-AFF8-C1622415CC09";
paths = (
{
closed = 1;
nodes = (
"91 0 LINE",
"134 264 LINE SMOOTH",
"152 382 OFFCURVE",
"218 453 OFFCURVE",
"313 453 CURVE SMOOTH",
"394 453 OFFCURVE",
"425 403 OFFCURVE",
"409 301 CURVE SMOOTH",
"361 0 LINE",
"403 0 LINE",
"445 264 LINE SMOOTH",
"463 382 OFFCURVE",
"529 453 OFFCURVE",
"624 453 CURVE SMOOTH",
"705 453 OFFCURVE",
"736 403 OFFCURVE",
"720 301 CURVE SMOOTH",
"673 0 LINE",
"715 0 LINE",
"762 295 LINE SMOOTH",
"783 429 OFFCURVE",
"727 492 OFFCURVE",
"626 492 CURVE SMOOTH",
"536 492 OFFCURVE",
"471 443 OFFCURVE",
"441 364 CURVE",
"453 363 LINE",
"446 447 OFFCURVE",
"394 492 OFFCURVE",
"315 492 CURVE SMOOTH",
"234 492 OFFCURVE",
"172 445 OFFCURVE",
"138 364 CURVE",
"147 363 LINE",
"167 484 LINE",
"126 484 LINE",
"49 0 LINE"
);
}
);
width = 839;
},
{
anchors = (
{
name = bottom;
position = "{418, 0}";
},
{
name = top;
position = "{494, 484}";
}
);
background = {
anchors = (
{
name = bottom;
position = "{418, 0}";
},
{
name = top;
position = "{494, 484}";
}
);
paths = (
{
closed = 1;
nodes = (
"664 505 OFFCURVE",
"593 467 OFFCURVE",
"551 403 CURVE",
"565 403 LINE",
"551 472 OFFCURVE",
"502 505 OFFCURVE",
"433 505 CURVE SMOOTH",
"355 505 OFFCURVE",
"295 469 OFFCURVE",
"254 404 CURVE",
"268 404 LINE",
"282 494 LINE",
"87 494 LINE",
"9 0 LINE",
"209 0 LINE",
"251 265 LINE SMOOTH",
"260 323 OFFCURVE",
"287 353 OFFCURVE",
"328 353 CURVE SMOOTH",
"361 353 OFFCURVE",
"371 334 OFFCURVE",
"363 283 CURVE SMOOTH",
"318 0 LINE",
"518 0 LINE",
"560 265 LINE SMOOTH",
"569 323 OFFCURVE",
"596 353 OFFCURVE",
"638 353 CURVE SMOOTH",
"670 353 OFFCURVE",
"680 334 OFFCURVE",
"672 283 CURVE SMOOTH",
"627 0 LINE",
"827 0 LINE",
"872 288 LINE SMOOTH",
"896 437 OFFCURVE",
"853 505 OFFCURVE",
"738 505 CURVE SMOOTH"
);
}
);
};
guideLines = (
{
position = "{353, 431}";
}
);
layerId = "5B4126D3-DE9F-4159-B940-B7B1ABEC53A3";
paths = (
{
closed = 1;
nodes = (
"207 0 LINE",
"246 245 LINE SMOOTH",
"258 320 OFFCURVE",
"279 353 OFFCURVE",
"325 353 CURVE SMOOTH",
"357 353 OFFCURVE",
"369 336 OFFCURVE",
"361 283 CURVE SMOOTH",
"317 0 LINE",
"516 0 LINE",
"554 245 LINE SMOOTH",
"566 320 OFFCURVE",
"587 353 OFFCURVE",
"633 353 CURVE SMOOTH",
"665 353 OFFCURVE",
"677 336 OFFCURVE",
"669 283 CURVE SMOOTH",
"625 0 LINE",
"825 0 LINE",
"869 281 LINE SMOOTH",
"894 439 OFFCURVE",
"824 506 OFFCURVE",
"723 506 CURVE SMOOTH",
"647 506 OFFCURVE",
"587 474 OFFCURVE",
"550 409 CURVE",
"564 398 LINE",
"537 475 OFFCURVE",
"474 506 OFFCURVE",
"423 506 CURVE SMOOTH",
"353 506 OFFCURVE",
"302 478 OFFCURVE",
"259 408 CURVE",
"266 404 LINE",
"280 494 LINE",
"85 494 LINE",
"7 0 LINE"
);
}
);
width = 908;
}
);
leftKerningGroup = n;
leftMetricsKey = "=n+2";
rightKerningGroup = n;
rightMetricsKey = "=n+2";
unicode = 006D;
userData = {
anchors = (
);
b = {
};
com.typemytype.robofont.layerData = {
b = {
anchors = (
);
components = (
);
contours = (
);
lib = {
};
name = m;
unicodes = (
);
width = 1838;
};
};
components = (
);
contours = (
);
lib = {
};
name = m;
unicodes = (
);
width = 1877;
};
},
{
color = 8;
glyphname = n;
lastChange = "2019-08-20 08:12:57 +0000";
layers = (
{
anchors = (
{
name = bottom;
position = "{239, 0}";
},
{
name = top;
position = "{316, 484}";
}
);
background = {
anchors = (
{
name = bottom;
position = "{238, 0}";
},
{
name = top;
position = "{315, 484}";
}
);
paths = (
{
closed = 1;
nodes = (
"248 492 OFFCURVE",
"170 446 OFFCURVE",
"134 364 CURVE",
"145 364 LINE",
"164 484 LINE",
"123 484 LINE",
"46 0 LINE",
"88 0 LINE",
"132 278 LINE SMOOTH",
"149 384 OFFCURVE",
"227 453 OFFCURVE",
"330 453 CURVE SMOOTH",
"422 453 OFFCURVE",
"454 406 OFFCURVE",
"437 304 CURVE SMOOTH",
"389 0 LINE",
"431 0 LINE",
"480 308 LINE SMOOTH",
"500 432 OFFCURVE",
"450 492 OFFCURVE",
"333 492 CURVE SMOOTH"
);
}
);
};
layerId = "80A9362C-6FC3-40B9-AFF8-C1622415CC09";
paths = (
{
closed = 1;
nodes = (
"89 0 LINE",
"132 266 LINE SMOOTH",
"150 380 OFFCURVE",
"228 453 OFFCURVE",
"331 453 CURVE SMOOTH",
"418 453 OFFCURVE",
"454 402 OFFCURVE",
"438 301 CURVE SMOOTH",
"390 0 LINE",
"432 0 LINE",
"479 295 LINE SMOOTH",
"500 428 OFFCURVE",
"440 492 OFFCURVE",
"333 492 CURVE SMOOTH",
"246 492 OFFCURVE",
"170 444 OFFCURVE",
"136 364 CURVE",
"146 364 LINE",
"165 484 LINE",
"124 484 LINE",
"47 0 LINE"
);
}
);
width = 554;
},
{
anchors = (
{
name = bottom;
position = "{270, 0}";
},
{
name = top;
position = "{346, 484}";
}
);
background = {
anchors = (
{
name = bottom;
position = "{270, 0}";
},
{
name = top;
position = "{346, 484}";
}
);
paths = (
{
closed = 1;
nodes = (
"361 505 OFFCURVE",
"295 468 OFFCURVE",
"249 404 CURVE",
"266 404 LINE",
"280 494 LINE",
"85 494 LINE",
"7 0 LINE",
"207 0 LINE",
"250 272 LINE SMOOTH",
"258 321 OFFCURVE",
"293 353 OFFCURVE",
"338 353 CURVE SMOOTH",
"370 353 OFFCURVE",
"385 334 OFFCURVE",
"376 280 CURVE SMOOTH",
"332 0 LINE",
"532 0 LINE",
"577 288 LINE SMOOTH",
"601 436 OFFCURVE",
"556 505 OFFCURVE",
"439 505 CURVE SMOOTH"
);
}
);
};
layerId = "5B4126D3-DE9F-4159-B940-B7B1ABEC53A3";
paths = (
{
closed = 1;
nodes = (
"205 0 LINE",
"245 252 LINE SMOOTH",
"256 319 OFFCURVE",
"284 353 OFFCURVE",
"330 353 CURVE SMOOTH",
"367 353 OFFCURVE",
"381 330 OFFCURVE",
"373 280 CURVE SMOOTH",
"329 0 LINE",
"529 0 LINE",
"573 281 LINE SMOOTH",
"597 432 OFFCURVE",
"529 506 OFFCURVE",
"427 506 CURVE SMOOTH",
"355 506 OFFCURVE",
"302 476 OFFCURVE",
"257 409 CURVE",
"264 404 LINE",
"278 494 LINE",
"83 494 LINE",
"5 0 LINE"
);
}
);
width = 610;
}
);
leftKerningGroup = n;
rightKerningGroup = n;
unicode = 006E;
userData = {
anchors = (
);
b = {
};
com.typemytype.robofont.layerData = {
b = {
anchors = (
);
components = (
);
contours = (
);
lib = {
};
name = n;
unicodes = (
);
width = 1152;
};
};
components = (
);
contours = {
};
lib = {
};
name = n;
points = {
};
segmentType = curve;
unicodes = (
);
width = 1195;
x = 137;
y = 113;
};
},
{
color = 1;
glyphname = eng;
lastChange = "2019-08-20 08:25:20 +0000";
layers = (
{
background = {
paths = (
{
closed = 1;
nodes = (
"480 308 LINE SMOOTH",
"500 432 OFFCURVE",
"450 492 OFFCURVE",
"333 492 CURVE SMOOTH",
"248 492 OFFCURVE",
"170 446 OFFCURVE",
"134 364 CURVE",
"145 364 LINE",
"164 484 LINE",
"123 484 LINE",
"46 0 LINE",
"88 0 LINE",
"132 278 LINE SMOOTH",
"149 384 OFFCURVE",
"227 453 OFFCURVE",
"330 453 CURVE SMOOTH",
"422 453 OFFCURVE",
"454 406 OFFCURVE",
"437 304 CURVE SMOOTH",
"386 -22 LINE SMOOTH",
"373 -102 OFFCURVE",
"329 -147 OFFCURVE",
"260 -152 CURVE SMOOTH",
"219 -155 LINE",
"216 -193 LINE",
"259 -190 LINE SMOOTH",
"350 -184 OFFCURVE",
"412 -124 OFFCURVE",
"428 -21 CURVE SMOOTH"
);
}
);
};
layerId = "80A9362C-6FC3-40B9-AFF8-C1622415CC09";
paths = (
{
closed = 1;
nodes = (
"260 -190 LINE SMOOTH",
"350 -184 OFFCURVE",
"412 -124 OFFCURVE",
"428 -21 CURVE SMOOTH",
"480 308 LINE SMOOTH",
"500 432 OFFCURVE",
"450 492 OFFCURVE",
"333 492 CURVE SMOOTH",
"248 492 OFFCURVE",
"170 446 OFFCURVE",
"134 364 CURVE",
"145 364 LINE",
"164 484 LINE",
"124 484 LINE",
"47 0 LINE",
"88 0 LINE",
"132 278 LINE SMOOTH",
"149 384 OFFCURVE",
"227 454 OFFCURVE",
"331 454 CURVE SMOOTH",
"423 454 OFFCURVE",
"455 406 OFFCURVE",
"438 304 CURVE SMOOTH",
"387 -22 LINE SMOOTH",
"374 -102 OFFCURVE",
"330 -148 OFFCURVE",
"261 -153 CURVE SMOOTH",
"220 -156 LINE",
"217 -193 LINE"
);
}
);
width = 554;
},
{
background = {
paths = (
{
closed = 1;
nodes = (
"577 288 LINE SMOOTH",
"601 436 OFFCURVE",
"556 505 OFFCURVE",
"439 505 CURVE SMOOTH",
"361 505 OFFCURVE",
"295 468 OFFCURVE",
"249 404 CURVE",
"266 404 LINE",
"280 494 LINE",
"85 494 LINE",
"7 0 LINE",
"207 0 LINE",
"250 272 LINE SMOOTH",
"258 321 OFFCURVE",
"293 353 OFFCURVE",
"338 353 CURVE SMOOTH",
"370 353 OFFCURVE",
"385 334 OFFCURVE",
"376 280 CURVE SMOOTH",
"333 7 LINE SMOOTH",
"327 -28 OFFCURVE",
"311 -43 OFFCURVE",
"272 -47 CURVE SMOOTH",
"222 -53 LINE",
"213 -193 LINE",
"258 -190 LINE SMOOTH",
"445 -177 OFFCURVE",
"513 -120 OFFCURVE",
"537 36 CURVE SMOOTH"
);
}
);
};
layerId = "5B4126D3-DE9F-4159-B940-B7B1ABEC53A3";
paths = (
{
closed = 1;
nodes = (
"256 -190 LINE SMOOTH",
"443 -177 OFFCURVE",
"511 -120 OFFCURVE",
"535 36 CURVE SMOOTH",
"575 288 LINE SMOOTH",
"599 436 OFFCURVE",
"554 505 OFFCURVE",
"437 505 CURVE SMOOTH",
"359 505 OFFCURVE",
"293 468 OFFCURVE",
"247 404 CURVE",
"264 404 LINE",
"278 494 LINE",
"83 494 LINE",
"5 0 LINE",
"205 0 LINE",
"248 272 LINE SMOOTH",
"256 321 OFFCURVE",
"291 353 OFFCURVE",
"336 353 CURVE SMOOTH",
"368 353 OFFCURVE",
"383 334 OFFCURVE",
"374 280 CURVE SMOOTH",
"331 7 LINE SMOOTH",
"325 -28 OFFCURVE",
"309 -43 OFFCURVE",
"270 -47 CURVE SMOOTH",
"220 -53 LINE",
"211 -193 LINE"
);
}
);
width = 610;
}
);
leftKerningGroup = n;
leftMetricsKey = n;
widthMetricsKey = n;
rightKerningGroup = n;
unicode = 014B;
},
{
color = 8;
glyphname = o;
lastChange = "2019-08-21 08:21:14 +0000";
layers = (
{
anchors = (
{
name = bottom;
position = "{233, 0}";
},
{
name = center;
position = "{272, 242}";
},
{
name = ogonek;
position = "{292, 0}";
},
{
name = top;
position = "{310, 484}";
},
{
name = topright;
position = "{356, 484}";
}
);
background = {
paths = (
{
closed = 1;
nodes = (
"402 -8 OFFCURVE",
"489 129 OFFCURVE",
"489 284 CURVE SMOOTH",
"489 415 OFFCURVE",
"417 492 OFFCURVE",
"296 492 CURVE SMOOTH",
"138 492 OFFCURVE",
"51 355 OFFCURVE",
"51 200 CURVE SMOOTH",
"51 69 OFFCURVE",
"123 -8 OFFCURVE",
"244 -8 CURVE SMOOTH"
);
},
{
closed = 1;
nodes = (
"151 31 OFFCURVE",
"94 88 OFFCURVE",
"94 197 CURVE SMOOTH",
"94 334 OFFCURVE",
"164 453 OFFCURVE",
"294 453 CURVE SMOOTH",
"389 453 OFFCURVE",
"446 396 OFFCURVE",
"446 287 CURVE SMOOTH",
"446 150 OFFCURVE",
"376 31 OFFCURVE",
"246 31 CURVE SMOOTH"
);
}
);
};
layerId = "80A9362C-6FC3-40B9-AFF8-C1622415CC09";
paths = (
{
closed = 1;
nodes = (
"402 -8 OFFCURVE",
"489 129 OFFCURVE",
"489 284 CURVE SMOOTH",
"489 415 OFFCURVE",
"417 492 OFFCURVE",
"296 492 CURVE SMOOTH",
"138 492 OFFCURVE",
"51 355 OFFCURVE",
"51 200 CURVE SMOOTH",
"51 69 OFFCURVE",
"123 -8 OFFCURVE",
"244 -8 CURVE SMOOTH"
);
},
{
closed = 1;
nodes = (
"151 31 OFFCURVE",
"94 88 OFFCURVE",
"94 197 CURVE SMOOTH",
"94 334 OFFCURVE",
"164 453 OFFCURVE",
"294 453 CURVE SMOOTH",
"389 453 OFFCURVE",
"446 396 OFFCURVE",
"446 287 CURVE SMOOTH",
"446 150 OFFCURVE",
"376 31 OFFCURVE",
"246 31 CURVE SMOOTH"
);
}
);
width = 540;
},
{
anchors = (
{
name = bottom;
position = "{266, 0}";
},
{
name = center;
position = "{305, 247}";
},
{
name = ogonek;
position = "{325, 0}";
},
{
name = top;
position = "{342, 484}";
},
{
name = topright;
position = "{413, 484}";
}
);
background = {
anchors = (
{
name = bottom;
position = "{267, 0}";
},
{
name = center;
position = "{306, 247}";
},
{
name = ogonek;
position = "{326, 0}";
},
{
name = top;
position = "{343, 484}";
},
{
name = topright;
position = "{414, 484}";
}
);
paths = (
{
closed = 1;
nodes = (
"434 -12 OFFCURVE",
"561 86 OFFCURVE",
"587 247 CURVE SMOOTH",
"612 407 OFFCURVE",
"516 505 OFFCURVE",
"347 505 CURVE SMOOTH",
"178 505 OFFCURVE",
"50 407 OFFCURVE",
"25 247 CURVE SMOOTH",
"-1 86 OFFCURVE",
"96 -12 OFFCURVE",
"265 -12 CURVE SMOOTH"
);
},
{
closed = 1;
nodes = (
"243 135 OFFCURVE",
"213 163 OFFCURVE",
"226 246 CURVE SMOOTH",
"239 328 OFFCURVE",
"278 359 OFFCURVE",
"324 359 CURVE SMOOTH",
"370 359 OFFCURVE",
"399 328 OFFCURVE",
"386 246 CURVE SMOOTH",
"373 163 OFFCURVE",
"335 135 OFFCURVE",
"289 135 CURVE SMOOTH"
);
}
);
};
guideLines = (
{
position = "{306, 247}";
showMeasurement = 1;
}
);
layerId = "5B4126D3-DE9F-4159-B940-B7B1ABEC53A3";
paths = (
{
closed = 1;
nodes = (
"462 -12 OFFCURVE",
"586 103 OFFCURVE",
"586 273 CURVE SMOOTH",
"586 415 OFFCURVE",
"490 506 OFFCURVE",
"322 506 CURVE SMOOTH",
"150 506 OFFCURVE",
"26 390 OFFCURVE",
"26 220 CURVE SMOOTH",
"26 78 OFFCURVE",
"122 -12 OFFCURVE",
"290 -12 CURVE SMOOTH"
);
},
{
closed = 1;
nodes = (
"250 134 OFFCURVE",
"225 163 OFFCURVE",
"225 217 CURVE SMOOTH",
"225 303 OFFCURVE",
"259 360 OFFCURVE",
"315 360 CURVE SMOOTH",
"362 360 OFFCURVE",
"387 330 OFFCURVE",
"387 276 CURVE SMOOTH",
"387 190 OFFCURVE",
"353 134 OFFCURVE",
"297 134 CURVE SMOOTH"
);
}
);
width = 612;
}
);
leftKerningGroup = o;
rightKerningGroup = o;
rightMetricsKey = "=|o";
unicode = 006F;
userData = {
anchors = (
);
b = {
};
com.typemytype.robofont.guides = (
);
com.typemytype.robofont.layerData = {
b = {
anchors = (
);
components = (
);
contours = (
);
lib = {
};
name = o;
unicodes = (
);
width = 1144;
};
};
components = (
);
contours = (
);
lib = {
};
name = o;
unicodes = (
);
width = 1199;
};
},
{
color = 1;
glyphname = oe;
lastChange = "2019-08-20 08:25:17 +0000";
layers = (
{
anchors = (
{
name = bottom;
position = "{425, 0}";
},
{
name = top;
position = "{502, 484}";
}
);
background = {
anchors = (
{
name = bottom;
position = "{425, 0}";
},
{
name = top;
position = "{502, 484}";
}
);
paths = (
{
closed = 1;
nodes = (
"332 -8 OFFCURVE",
"416 55 OFFCURVE",
"458 160 CURVE",
"440 160 LINE",
"447 50 OFFCURVE",
"517 -8 OFFCURVE",
"633 -8 CURVE SMOOTH",
"701 -8 OFFCURVE",
"774 18 OFFCURVE",
"821 60 CURVE",
"807 96 LINE",
"748 52 OFFCURVE",
"695 33 OFFCURVE",
"636 33 CURVE SMOOTH",
"518 33 OFFCURVE",
"465 109 OFFCURVE",
"485 240 CURVE SMOOTH",
"486 246 LINE SMOOTH",
"506 373 OFFCURVE",
"587 453 OFFCURVE",
"694 453 CURVE SMOOTH",
"798 453 OFFCURVE",
"840 382 OFFCURVE",
"821 262 CURVE",
"840 275 LINE",
"471 275 LINE",
"465 237 LINE",
"857 237 LINE",
"861 263 LINE SMOOTH",
"884 406 OFFCURVE",
"825 492 OFFCURVE",
"704 492 CURVE SMOOTH",
"595 492 OFFCURVE",
"509 429 OFFCURVE",
"466 321 CURVE",
"485 321 LINE",
"477 428 OFFCURVE",
"413 492 OFFCURVE",
"309 492 CURVE SMOOTH",
"175 492 OFFCURVE",
"77 394 OFFCURVE",
"53 243 CURVE SMOOTH",
"29 90 OFFCURVE",
"96 -8 OFFCURVE",
"229 -8 CURVE SMOOTH"
);
},
{
closed = 1;
nodes = (
"126 31 OFFCURVE",
"74 106 OFFCURVE",
"96 242 CURVE SMOOTH",
"117 375 OFFCURVE",
"195 453 OFFCURVE",
"302 453 CURVE SMOOTH",
"409 453 OFFCURVE",
"463 375 OFFCURVE",
"442 242 CURVE SMOOTH",
"420 106 OFFCURVE",
"342 31 OFFCURVE",
"234 31 CURVE SMOOTH"
);
}
);
};
layerId = "80A9362C-6FC3-40B9-AFF8-C1622415CC09";
paths = (
{
closed = 1;
nodes = (
"332 -8 OFFCURVE",
"416 55 OFFCURVE",
"458 161 CURVE",
"440 161 LINE",
"447 50 OFFCURVE",
"517 -8 OFFCURVE",
"633 -8 CURVE SMOOTH",
"701 -8 OFFCURVE",
"774 18 OFFCURVE",
"821 60 CURVE",
"806 95 LINE",
"747 51 OFFCURVE",
"694 32 OFFCURVE",
"635 32 CURVE SMOOTH",
"517 32 OFFCURVE",
"464 109 OFFCURVE",
"484 240 CURVE SMOOTH",
"485 246 LINE SMOOTH",
"505 373 OFFCURVE",
"587 453 OFFCURVE",
"694 453 CURVE SMOOTH",
"798 453 OFFCURVE",
"841 382 OFFCURVE",
"822 262 CURVE",
"841 275 LINE",
"470 275 LINE",
"464 237 LINE",
"857 237 LINE",
"861 263 LINE SMOOTH",
"884 406 OFFCURVE",
"825 492 OFFCURVE",
"704 492 CURVE SMOOTH",
"595 492 OFFCURVE",
"509 429 OFFCURVE",
"466 320 CURVE",
"485 320 LINE",
"477 428 OFFCURVE",
"413 492 OFFCURVE",
"309 492 CURVE SMOOTH",
"175 492 OFFCURVE",
"77 394 OFFCURVE",
"53 243 CURVE SMOOTH",
"29 90 OFFCURVE",
"96 -8 OFFCURVE",
"229 -8 CURVE SMOOTH"
);
},
{
closed = 1;
nodes = (
"125 30 OFFCURVE",
"73 106 OFFCURVE",
"95 242 CURVE SMOOTH",
"116 375 OFFCURVE",
"194 454 OFFCURVE",
"302 454 CURVE SMOOTH",
"409 454 OFFCURVE",
"463 375 OFFCURVE",
"442 242 CURVE SMOOTH",
"420 106 OFFCURVE",
"342 30 OFFCURVE",
"234 30 CURVE SMOOTH"
);
}
);
width = 906;
},
{
anchors = (
{
name = bottom;
position = "{443, 0}";
},
{
name = top;
position = "{521, 494}";
}
);
background = {
anchors = (
{
name = bottom;
position = "{444, 0}";
},
{
name = top;
position = "{522, 494}";
}
);
paths = (
{
closed = 1;
nodes = (
"350 -12 OFFCURVE",
"423 20 OFFCURVE",
"479 76 CURVE",
"443 76 LINE",
"481 20 OFFCURVE",
"550 -12 OFFCURVE",
"649 -12 CURVE SMOOTH",
"720 -12 OFFCURVE",
"804 10 OFFCURVE",
"864 46 CURVE",
"836 177 LINE",
"791 150 OFFCURVE",
"729 134 OFFCURVE",
"682 134 CURVE SMOOTH",
"599 134 OFFCURVE",
"570 165 OFFCURVE",
"584 254 CURVE SMOOTH",
"585 263 LINE SMOOTH",
"598 342 OFFCURVE",
"632 377 OFFCURVE",
"686 377 CURVE SMOOTH",
"734 377 OFFCURVE",
"758 349 OFFCURVE",
"748 285 CURVE",
"765 296 LINE",
"571 296 LINE",
"557 207 LINE",
"898 207 LINE",
"904 247 LINE SMOOTH",
"929 407 OFFCURVE",
"849 505 OFFCURVE",
"696 505 CURVE SMOOTH",
"618 505 OFFCURVE",
"551 479 OFFCURVE",
"497 429 CURVE",
"534 429 LINE",
"494 478 OFFCURVE",
"431 505 OFFCURVE",
"343 505 CURVE SMOOTH",
"175 505 OFFCURVE",
"52 406 OFFCURVE",
"27 250 CURVE SMOOTH",
"2 90 OFFCURVE",
"93 -12 OFFCURVE",
"260 -12 CURVE SMOOTH"
);
},
{
closed = 1;
nodes = (
"245 135 OFFCURVE",
"215 167 OFFCURVE",
"228 248 CURVE SMOOTH",
"241 327 OFFCURVE",
"280 359 OFFCURVE",
"326 359 CURVE SMOOTH",
"372 359 OFFCURVE",
"401 327 OFFCURVE",
"388 248 CURVE SMOOTH",
"375 167 OFFCURVE",
"337 135 OFFCURVE",
"291 135 CURVE SMOOTH"
);
}
);
};
layerId = "5B4126D3-DE9F-4159-B940-B7B1ABEC53A3";
paths = (
{
closed = 1;
nodes = (
"349 -12 OFFCURVE",
"422 20 OFFCURVE",
"478 76 CURVE",
"442 76 LINE",
"480 20 OFFCURVE",
"549 -12 OFFCURVE",
"648 -12 CURVE SMOOTH",
"719 -12 OFFCURVE",
"803 10 OFFCURVE",
"863 46 CURVE",
"835 177 LINE",
"790 150 OFFCURVE",
"728 134 OFFCURVE",
"681 134 CURVE SMOOTH",
"598 134 OFFCURVE",
"569 165 OFFCURVE",
"583 254 CURVE SMOOTH",
"584 263 LINE SMOOTH",
"597 342 OFFCURVE",
"631 377 OFFCURVE",
"685 377 CURVE SMOOTH",
"733 377 OFFCURVE",
"757 349 OFFCURVE",
"747 285 CURVE",
"764 296 LINE",
"570 296 LINE",
"556 207 LINE",
"897 207 LINE",
"903 247 LINE SMOOTH",
"928 407 OFFCURVE",
"848 505 OFFCURVE",
"695 505 CURVE SMOOTH",
"617 505 OFFCURVE",
"550 479 OFFCURVE",
"496 429 CURVE",
"533 429 LINE",
"493 478 OFFCURVE",
"430 505 OFFCURVE",
"342 505 CURVE SMOOTH",
"174 505 OFFCURVE",
"51 406 OFFCURVE",
"26 250 CURVE SMOOTH",
"1 90 OFFCURVE",
"92 -12 OFFCURVE",
"259 -12 CURVE SMOOTH"
);
},
{
closed = 1;
nodes = (
"244 135 OFFCURVE",
"214 167 OFFCURVE",
"227 248 CURVE SMOOTH",
"240 327 OFFCURVE",
"279 359 OFFCURVE",
"325 359 CURVE SMOOTH",
"371 359 OFFCURVE",
"400 327 OFFCURVE",
"387 248 CURVE SMOOTH",
"374 167 OFFCURVE",
"336 135 OFFCURVE",
"290 135 CURVE SMOOTH"
);
}
);
width = 923;
}
);
leftKerningGroup = o;
leftMetricsKey = o;
rightKerningGroup = e;
rightMetricsKey = e;
unicode = 0153;
},
{
color = 1;
glyphname = p;
lastChange = "2019-08-21 08:27:04 +0000";
layers = (
{
anchors = (
{
name = bottom;
position = "{243, 0}";
},
{
name = center;
position = "{290, 245}";
},
{
name = stroke;
position = "{468, 580}";
},
{
name = top;
position = "{320, 484}";
},
{
name = topright;
position = "{610, 705}";
}
);
background = {
paths = (
{
closed = 1;
nodes = (
"60 -180 LINE",
"107 126 LINE",
"103 128 LINE",
"125 31 OFFCURVE",
"194 -8 OFFCURVE",
"273 -8 CURVE SMOOTH",
"420 -8 OFFCURVE",
"518 121 OFFCURVE",
"518 280 CURVE SMOOTH",
"518 416 OFFCURVE",
"442 492 OFFCURVE",
"325 492 CURVE SMOOTH",
"237 492 OFFCURVE",
"169 442 OFFCURVE",
"132 358 CURVE",
"145 358 LINE",
"165 484 LINE",
"123 484 LINE",
"18 -180 LINE"
);
},
{
closed = 1;
nodes = (
"180 31 OFFCURVE",
"123 88 OFFCURVE",
"123 197 CURVE SMOOTH",
"123 334 OFFCURVE",
"193 453 OFFCURVE",
"323 453 CURVE SMOOTH",
"418 453 OFFCURVE",
"475 396 OFFCURVE",
"475 287 CURVE SMOOTH",
"475 150 OFFCURVE",
"405 31 OFFCURVE",
"275 31 CURVE SMOOTH"
);
}
);
};
layerId = "80A9362C-6FC3-40B9-AFF8-C1622415CC09";
paths = (
{
closed = 1;
nodes = (
"103 128 LINE",
"123 31 OFFCURVE",
"194 -8 OFFCURVE",
"273 -8 CURVE SMOOTH",
"420 -8 OFFCURVE",
"518 121 OFFCURVE",
"518 280 CURVE SMOOTH",
"518 416 OFFCURVE",
"442 492 OFFCURVE",
"325 492 CURVE SMOOTH",
"237 492 OFFCURVE",
"166 442 OFFCURVE",
"132 358 CURVE",
"145 358 LINE",
"165 484 LINE",
"123 484 LINE",
"11 -221 LINE",
"53 -221 LINE",
"107 126 LINE"
);
},
{
closed = 1;
nodes = (
"180 31 OFFCURVE",
"123 88 OFFCURVE",
"123 197 CURVE SMOOTH",
"123 334 OFFCURVE",
"193 453 OFFCURVE",
"323 453 CURVE SMOOTH",
"418 453 OFFCURVE",
"475 396 OFFCURVE",
"475 287 CURVE SMOOTH",
"475 150 OFFCURVE",
"405 31 OFFCURVE",
"275 31 CURVE SMOOTH"
);
}
);
width = 570;
},
{
anchors = (
{
name = bottom;
position = "{276, 0}";
},
{
name = center;
position = "{303, 247}";
},
{
name = stroke;
position = "{487, 594}";
},
{
name = top;
position = "{352, 484}";
},
{
name = topright;
position = "{685, 705}";
}
);
background = {
paths = (
{
closed = 1;
nodes = (
"176 -180 LINE",
"216 76 LINE",
"208 76 LINE",
"228 23 OFFCURVE",
"287 -12 OFFCURVE",
"349 -12 CURVE SMOOTH",
"498 -12 OFFCURVE",
"601 105 OFFCURVE",
"601 285 CURVE SMOOTH",
"601 421 OFFCURVE",
"512 506 OFFCURVE",
"409 506 CURVE SMOOTH",
"346 506 OFFCURVE",
"291 476 OFFCURVE",
"261 410 CURVE",
"266 410 LINE",
"280 494 LINE",
"83 494 LINE",
"-24 -180 LINE"
);
},
{
closed = 1;
nodes = (
"265 134 OFFCURVE",
"240 163 OFFCURVE",
"240 217 CURVE SMOOTH",
"240 303 OFFCURVE",
"276 360 OFFCURVE",
"330 360 CURVE SMOOTH",
"377 360 OFFCURVE",
"402 330 OFFCURVE",
"402 276 CURVE SMOOTH",
"402 190 OFFCURVE",
"366 134 OFFCURVE",
"312 134 CURVE SMOOTH"
);
}
);
};
layerId = "5B4126D3-DE9F-4159-B940-B7B1ABEC53A3";
paths = (
{
closed = 1;
nodes = (
"208 76 LINE",
"229 23 OFFCURVE",
"286 -12 OFFCURVE",
"360 -12 CURVE SMOOTH",
"498 -12 OFFCURVE",
"601 105 OFFCURVE",
"601 285 CURVE SMOOTH",
"601 421 OFFCURVE",
"519 506 OFFCURVE",
"414 506 CURVE SMOOTH",
"338 506 OFFCURVE",
"283 465 OFFCURVE",
"257 410 CURVE",
"267 410 LINE",
"280 494 LINE",
"83 494 LINE",
"-24 -180 LINE",
"176 -180 LINE",
"217 76 LINE"
);
},
{
closed = 1;
nodes = (
"377 360 OFFCURVE",
"402 331 OFFCURVE",
"402 277 CURVE SMOOTH",
"402 191 OFFCURVE",
"368 134 OFFCURVE",
"312 134 CURVE SMOOTH",
"265 134 OFFCURVE",
"240 164 OFFCURVE",
"240 218 CURVE SMOOTH",
"240 304 OFFCURVE",
"274 360 OFFCURVE",
"330 360 CURVE SMOOTH"
);
}
);
width = 626;
}
);
leftKerningGroup = n;
leftMetricsKey = n;
rightKerningGroup = o;
rightMetricsKey = o;
unicode = 0070;
userData = {
anchors = (
);
b = {
};
com.typemytype.robofont.layerData = {
b = {
anchors = (
);
components = (
);
contours = (
);
lib = {
};
name = p;
unicodes = (
);
width = 1181;
};
};
components = (
);
contours = (
);
lib = {
};
name = p;
unicodes = (
);
width = 1207;
};
},
{
color = 1;
glyphname = thorn;
lastChange = "2019-08-20 08:25:17 +0000";
layers = (
{
anchors = (
{
name = bottom;
position = "{242, 0}";
},
{
name = top;
position = "{319, 484}";
}
);
background = {
anchors = (
{
name = bottom;
position = "{242, 0}";
},
{
name = top;
position = "{319, 484}";
}
);
paths = (
{
closed = 1;
nodes = (
"243 492 OFFCURVE",
"170 442 OFFCURVE",
"134 358 CURVE",
"145 358 LINE",
"200 705 LINE",
"158 705 LINE",
"18 -180 LINE",
"60 -180 LINE",
"108 126 LINE",
"97 126 LINE",
"107 42 OFFCURVE",
"164 -8 OFFCURVE",
"258 -8 CURVE SMOOTH",
"392 -8 OFFCURVE",
"490 89 OFFCURVE",
"515 242 CURVE SMOOTH",
"539 395 OFFCURVE",
"470 492 OFFCURVE",
"337 492 CURVE SMOOTH"
);
},
{
closed = 1;
nodes = (
"439 453 OFFCURVE",
"493 375 OFFCURVE",
"472 242 CURVE SMOOTH",
"450 106 OFFCURVE",
"372 31 OFFCURVE",
"264 31 CURVE SMOOTH",
"156 31 OFFCURVE",
"104 106 OFFCURVE",
"126 242 CURVE SMOOTH",
"147 375 OFFCURVE",
"225 453 OFFCURVE",
"333 453 CURVE SMOOTH"
);
}
);
};
layerId = "80A9362C-6FC3-40B9-AFF8-C1622415CC09";
paths = (
{
closed = 1;
nodes = (
"59 -180 LINE",
"107 126 LINE",
"96 126 LINE",
"106 42 OFFCURVE",
"163 -8 OFFCURVE",
"257 -8 CURVE SMOOTH",
"391 -8 OFFCURVE",
"489 89 OFFCURVE",
"514 242 CURVE SMOOTH",
"538 395 OFFCURVE",
"469 492 OFFCURVE",
"336 492 CURVE SMOOTH",
"242 492 OFFCURVE",
"169 442 OFFCURVE",
"133 358 CURVE",
"144 358 LINE",
"199 705 LINE",
"158 705 LINE",
"18 -180 LINE"
);
},
{
closed = 1;
nodes = (
"155 29 OFFCURVE",
"102 105 OFFCURVE",
"124 242 CURVE SMOOTH",
"145 376 OFFCURVE",
"224 455 OFFCURVE",
"333 455 CURVE SMOOTH",
"440 455 OFFCURVE",
"494 376 OFFCURVE",
"473 242 CURVE SMOOTH",
"451 105 OFFCURVE",
"373 29 OFFCURVE",
"264 29 CURVE SMOOTH"
);
}
);
width = 567;
},
{
anchors = (
{
name = bottom;
position = "{278, 0}";
},
{
name = top;
position = "{354, 484}";
}
);
background = {
anchors = (
{
name = bottom;
position = "{279, 0}";
},
{
name = top;
position = "{355, 484}";
}
);
paths = (
{
closed = 1;
nodes = (
"356 505 OFFCURVE",
"285 467 OFFCURVE",
"258 410 CURVE",
"272 410 LINE",
"318 705 LINE",
"118 705 LINE",
"-22 -180 LINE",
"178 -180 LINE",
"219 76 LINE",
"207 76 LINE",
"219 25 OFFCURVE",
"277 -12 OFFCURVE",
"346 -12 CURVE SMOOTH",
"472 -12 OFFCURVE",
"579 88 OFFCURVE",
"604 247 CURVE SMOOTH",
"629 405 OFFCURVE",
"553 505 OFFCURVE",
"428 505 CURVE SMOOTH"
);
},
{
closed = 1;
nodes = (
"273 155 OFFCURVE",
"249 176 OFFCURVE",
"260 246 CURVE SMOOTH",
"271 315 OFFCURVE",
"301 338 OFFCURVE",
"337 338 CURVE SMOOTH",
"372 338 OFFCURVE",
"397 315 OFFCURVE",
"386 246 CURVE SMOOTH",
"375 176 OFFCURVE",
"345 155 OFFCURVE",
"309 155 CURVE SMOOTH"
);
}
);
};
layerId = "5B4126D3-DE9F-4159-B940-B7B1ABEC53A3";
paths = (
{
closed = 1;
nodes = (
"177 -180 LINE",
"218 76 LINE",
"206 76 LINE",
"218 25 OFFCURVE",
"276 -12 OFFCURVE",
"345 -12 CURVE SMOOTH",
"471 -12 OFFCURVE",
"578 88 OFFCURVE",
"603 247 CURVE SMOOTH",
"628 405 OFFCURVE",
"552 505 OFFCURVE",
"427 505 CURVE SMOOTH",
"355 505 OFFCURVE",
"284 467 OFFCURVE",
"257 410 CURVE",
"271 410 LINE",
"317 705 LINE",
"117 705 LINE",
"-23 -180 LINE"
);
},
{
closed = 1;
nodes = (
"272 155 OFFCURVE",
"248 176 OFFCURVE",
"259 246 CURVE SMOOTH",
"270 315 OFFCURVE",
"300 338 OFFCURVE",
"336 338 CURVE SMOOTH",
"371 338 OFFCURVE",
"396 315 OFFCURVE",
"385 246 CURVE SMOOTH",
"374 176 OFFCURVE",
"344 155 OFFCURVE",
"308 155 CURVE SMOOTH"
);
}
);
width = 629;
}
);
leftKerningGroup = h;
leftMetricsKey = n;
rightKerningGroup = o;
rightMetricsKey = o;
unicode = 00FE;
},
{
color = 1;
glyphname = q;
lastChange = "2019-08-21 08:22:16 +0000";
layers = (
{
anchors = (
{
name = bottom;
position = "{299, 484}";
},
{
name = top;
position = "{197, -221}";
}
);
background = {
paths = (
{
closed = 1;
nodes = (
"419 -180 LINE",
"524 484 LINE",
"482 484 LINE",
"463 358 LINE",
"467 356 LINE",
"445 453 OFFCURVE",
"376 492 OFFCURVE",
"297 492 CURVE SMOOTH",
"150 492 OFFCURVE",
"52 363 OFFCURVE",
"52 204 CURVE SMOOTH",
"52 68 OFFCURVE",
"128 -8 OFFCURVE",
"245 -8 CURVE SMOOTH",
"333 -8 OFFCURVE",
"401 42 OFFCURVE",
"438 126 CURVE",
"425 126 LINE",
"377 -180 LINE"
);
},
{
closed = 1;
nodes = (
"152 31 OFFCURVE",
"95 88 OFFCURVE",
"95 197 CURVE SMOOTH",
"95 334 OFFCURVE",
"165 453 OFFCURVE",
"295 453 CURVE SMOOTH",
"390 453 OFFCURVE",
"447 396 OFFCURVE",
"447 287 CURVE SMOOTH",
"447 150 OFFCURVE",
"377 31 OFFCURVE",
"247 31 CURVE SMOOTH"
);
}
);
};
layerId = "80A9362C-6FC3-40B9-AFF8-C1622415CC09";
paths = (
{
closed = 1;
nodes = (
"150 492 OFFCURVE",
"52 363 OFFCURVE",
"52 204 CURVE SMOOTH",
"52 68 OFFCURVE",
"128 -8 OFFCURVE",
"245 -8 CURVE SMOOTH",
"333 -8 OFFCURVE",
"404 42 OFFCURVE",
"438 126 CURVE",
"425 126 LINE",
"377 -180 LINE",
"419 -180 LINE",
"524 484 LINE",
"482 484 LINE",
"463 358 LINE",
"467 356 LINE",
"447 453 OFFCURVE",
"376 492 OFFCURVE",
"297 492 CURVE SMOOTH"
);
},
{
closed = 1;
nodes = (
"390 453 OFFCURVE",
"447 396 OFFCURVE",
"447 287 CURVE SMOOTH",
"447 150 OFFCURVE",
"377 31 OFFCURVE",
"247 31 CURVE SMOOTH",
"152 31 OFFCURVE",
"95 88 OFFCURVE",
"95 197 CURVE SMOOTH",
"95 334 OFFCURVE",
"165 453 OFFCURVE",
"295 453 CURVE SMOOTH"
);
}
);
width = 571;
},
{
anchors = (
{
name = bottom;
position = "{280, 0}";
},
{
name = top;
position = "{356, 484}";
}
);
background = {
paths = (
{
closed = 1;
nodes = (
"515 -180 LINE",
"622 494 LINE",
"425 494 LINE",
"413 418 LINE",
"418 418 LINE",
"398 471 OFFCURVE",
"339 506 OFFCURVE",
"277 506 CURVE SMOOTH",
"128 506 OFFCURVE",
"25 389 OFFCURVE",
"25 209 CURVE SMOOTH",
"25 73 OFFCURVE",
"114 -12 OFFCURVE",
"217 -12 CURVE SMOOTH",
"280 -12 OFFCURVE",
"335 18 OFFCURVE",
"365 84 CURVE",
"357 84 LINE",
"315 -180 LINE"
);
},
{
closed = 1;
nodes = (
"249 134 OFFCURVE",
"224 164 OFFCURVE",
"224 218 CURVE SMOOTH",
"224 304 OFFCURVE",
"260 360 OFFCURVE",
"314 360 CURVE SMOOTH",
"361 360 OFFCURVE",
"386 331 OFFCURVE",
"386 277 CURVE SMOOTH",
"386 191 OFFCURVE",
"350 134 OFFCURVE",
"296 134 CURVE SMOOTH"
);
}
);
};
guideLines = (
{
angle = 261.1193;
position = "{336, -52}";
}
);
layerId = "5B4126D3-DE9F-4159-B940-B7B1ABEC53A3";
paths = (
{
closed = 1;
nodes = (
"128 506 OFFCURVE",
"25 389 OFFCURVE",
"25 209 CURVE SMOOTH",
"25 73 OFFCURVE",
"111 -12 OFFCURVE",
"212 -12 CURVE SMOOTH",
"284 -12 OFFCURVE",
"339 30 OFFCURVE",
"367 84 CURVE",
"357 84 LINE",
"315 -180 LINE",
"515 -180 LINE",
"622 494 LINE",
"425 494 LINE",
"413 418 LINE",
"418 418 LINE",
"396 471 OFFCURVE",
"339 506 OFFCURVE",
"266 506 CURVE SMOOTH"
);
},
{
closed = 1;
nodes = (
"249 134 OFFCURVE",
"224 163 OFFCURVE",
"224 217 CURVE SMOOTH",
"224 303 OFFCURVE",
"258 360 OFFCURVE",
"314 360 CURVE SMOOTH",
"361 360 OFFCURVE",
"386 330 OFFCURVE",
"386 276 CURVE SMOOTH",
"386 190 OFFCURVE",
"352 134 OFFCURVE",
"296 134 CURVE SMOOTH"
);
}
);
width = 627;
}
);
leftKerningGroup = o;
leftMetricsKey = o;
rightKerningGroup = q;
rightMetricsKey = "=|n";
unicode = 0071;
userData = {
anchors = (
);
b = {
};
com.typemytype.robofont.layerData = {
b = {
anchors = (
);
components = (
);
contours = (
);
lib = {
};
name = p;
unicodes = (
);
width = 1181;
};
};
components = (
);
contours = (
);
lib = {
};
name = p;
unicodes = (
);
width = 1207;
};
},
{
color = 8;
glyphname = r;
lastChange = "2019-08-21 08:44:26 +0000";
layers = (
{
anchors = (
{
name = bottom;
position = "{68, 0}";
},
{
name = top;
position = "{243, 484}";
}
);
background = {
anchors = (
{
name = bottom;
position = "{67, 0}";
},
{
name = top;
position = "{242, 484}";
}
);
paths = (
{
closed = 1;
nodes = (
"88 0 LINE",
"134 290 LINE SMOOTH",
"149 385 OFFCURVE",
"217 445 OFFCURVE",
"317 454 CURVE SMOOTH",
"352 458 LINE",
"353 496 LINE",
"332 494 LINE SMOOTH",
"236 487 OFFCURVE",
"176 450 OFFCURVE",
"136 371 CURVE",
"146 371 LINE",
"164 484 LINE",
"123 484 LINE",
"46 0 LINE"
);
}
);
};
layerId = "80A9362C-6FC3-40B9-AFF8-C1622415CC09";
paths = (
{
closed = 1;
nodes = (
"89 0 LINE",
"134 288 LINE SMOOTH",
"148 379 OFFCURVE",
"218 445 OFFCURVE",
"318 454 CURVE SMOOTH",
"352 458 LINE",
"350 496 LINE",
"327 494 LINE SMOOTH",
"233 486 OFFCURVE",
"175 453 OFFCURVE",
"139 373 CURVE",
"147 371 LINE",
"165 484 LINE",
"124 484 LINE",
"47 0 LINE"
);
}
);
width = 327;
},
{
anchors = (
{
name = bottom;
position = "{109, 0}";
},
{
name = top;
position = "{284, 484}";
}
);
background = {
anchors = (
{
name = bottom;
position = "{109, 0}";
},
{
name = top;
position = "{284, 484}";
}
);
paths = (
{
closed = 1;
nodes = (
"211 0 LINE",
"248 238 LINE SMOOTH",
"258 296 OFFCURVE",
"288 323 OFFCURVE",
"355 329 CURVE SMOOTH",
"464 340 LINE",
"480 507 LINE",
"426 504 LINE SMOOTH",
"336 497 OFFCURVE",
"273 451 OFFCURVE",
"251 371 CURVE",
"261 371 LINE",
"280 494 LINE",
"85 494 LINE",
"7 0 LINE"
);
}
);
};
layerId = "5B4126D3-DE9F-4159-B940-B7B1ABEC53A3";
paths = (
{
closed = 1;
nodes = (
"209 0 LINE",
"245 231 LINE SMOOTH",
"254 290 OFFCURVE",
"272 320 OFFCURVE",
"339 327 CURVE SMOOTH",
"457 340 LINE",
"471 508 LINE",
"416 505 LINE SMOOTH",
"329 500 OFFCURVE",
"274 450 OFFCURVE",
"250 371 CURVE",
"260 371 LINE",
"278 494 LINE",
"83 494 LINE",
"5 0 LINE"
);
}
);
width = 443;
}
);
leftKerningGroup = n;
leftMetricsKey = n;
rightKerningGroup = r;
unicode = 0072;
userData = {
anchors = (
);
b = {
};
com.typemytype.robofont.layerData = {
b = {
anchors = (
);
components = (
);
contours = (
);
lib = {
};
name = r;
unicodes = (
);
width = 715;
};
};
components = (
);
contours = (
);
lib = {
};
name = r;
unicodes = (
);
width = 763;
};
},
{
color = 8;
glyphname = s;
lastChange = "2019-08-20 15:52:28 +0000";
layers = (
{
anchors = (
{
name = bottom;
position = "{197, 0}";
},
{
name = top;
position = "{284, 484}";
}
);
background = {
anchors = (
{
name = bottom;
position = "{197, 0}";
},
{
name = top;
position = "{284, 484}";
}
);
paths = (
{
closed = 1;
nodes = (
"306 -8 OFFCURVE",
"385 44 OFFCURVE",
"398 126 CURVE SMOOTH",
"409 191 OFFCURVE",
"372 228 OFFCURVE",
"289 249 CURVE SMOOTH",
"209 269 LINE SMOOTH",
"149 284 OFFCURVE",
"127 310 OFFCURVE",
"135 356 CURVE SMOOTH",
"144 415 OFFCURVE",
"197 453 OFFCURVE",
"279 453 CURVE SMOOTH",
"333 453 OFFCURVE",
"379 433 OFFCURVE",
"412 393 CURVE",
"437 427 LINE",
"408 468 OFFCURVE",
"352 492 OFFCURVE",
"286 492 CURVE SMOOTH",
"181 492 OFFCURVE",
"104 437 OFFCURVE",
"91 355 CURVE SMOOTH",
"80 290 OFFCURVE",
"112 249 OFFCURVE",
"193 229 CURVE SMOOTH",
"272 209 LINE SMOOTH",
"336 193 OFFCURVE",
"361 169 OFFCURVE",
"354 124 CURVE SMOOTH",
"345 66 OFFCURVE",
"292 31 OFFCURVE",
"205 31 CURVE SMOOTH",
"147 31 OFFCURVE",
"94 48 OFFCURVE",
"53 90 CURVE",
"27 56 LINE",
"62 15 OFFCURVE",
"127 -8 OFFCURVE",
"196 -8 CURVE SMOOTH"
);
}
);
};
guideLines = (
{
angle = -16.6992;
position = "{246, 259}";
}
);
layerId = "80A9362C-6FC3-40B9-AFF8-C1622415CC09";
paths = (
{
closed = 1;
nodes = (
"326 -8 OFFCURVE",
"398 45 OFFCURVE",
"398 131 CURVE SMOOTH",
"398 190 OFFCURVE",
"357 225 OFFCURVE",
"289 246 CURVE SMOOTH",
"210 270 LINE SMOOTH",
"158 286 OFFCURVE",
"133 312 OFFCURVE",
"133 351 CURVE SMOOTH",
"133 414 OFFCURVE",
"188 453 OFFCURVE",
"266 453 CURVE SMOOTH",
"325 453 OFFCURVE",
"374 432 OFFCURVE",
"410 391 CURVE",
"434 422 LINE",
"399 467 OFFCURVE",
"338 492 OFFCURVE",
"267 492 CURVE SMOOTH",
"166 492 OFFCURVE",
"89 434 OFFCURVE",
"89 350 CURVE SMOOTH",
"89 292 OFFCURVE",
"126 252 OFFCURVE",
"191 232 CURVE SMOOTH",
"271 208 LINE SMOOTH",
"326 191 OFFCURVE",
"354 168 OFFCURVE",
"354 128 CURVE SMOOTH",
"354 67 OFFCURVE",
"303 32 OFFCURVE",
"220 32 CURVE SMOOTH",
"158 32 OFFCURVE",
"93 51 OFFCURVE",
"51 94 CURVE",
"29 63 LINE",
"66 18 OFFCURVE",
"144 -8 OFFCURVE",
"218 -8 CURVE SMOOTH"
);
}
);
width = 475;
},
{
anchors = (
{
name = bottom;
position = "{239, 0}";
},
{
name = top;
position = "{247, 484}";
}
);
background = {
anchors = (
{
name = bottom;
position = "{212, 0}";
},
{
name = top;
position = "{296, 484}";
}
);
paths = (
{
closed = 1;
nodes = (
"350 -12 OFFCURVE",
"454 52 OFFCURVE",
"472 164 CURVE SMOOTH",
"484 241 OFFCURVE",
"442 287 OFFCURVE",
"359 300 CURVE SMOOTH",
"246 318 LINE SMOOTH",
"228 322 OFFCURVE",
"219 331 OFFCURVE",
"221 343 CURVE SMOOTH",
"224 359 OFFCURVE",
"242 372 OFFCURVE",
"293 372 CURVE SMOOTH",
"337 372 OFFCURVE",
"401 352 OFFCURVE",
"436 328 CURVE",
"504 454 LINE",
"455 491 OFFCURVE",
"382 505 OFFCURVE",
"310 505 CURVE SMOOTH",
"171 505 OFFCURVE",
"61 438 OFFCURVE",
"44 332 CURVE SMOOTH",
"32 255 OFFCURVE",
"74 207 OFFCURVE",
"154 194 CURVE SMOOTH",
"267 176 LINE SMOOTH",
"284 173 OFFCURVE",
"296 166 OFFCURVE",
"294 151 CURVE SMOOTH",
"291 134 OFFCURVE",
"274 121 OFFCURVE",
"230 121 CURVE SMOOTH",
"166 121 OFFCURVE",
"97 142 OFFCURVE",
"51 168 CURVE",
"-13 40 LINE",
"36 7 OFFCURVE",
"115 -12 OFFCURVE",
"209 -12 CURVE SMOOTH"
);
}
);
};
layerId = "5B4126D3-DE9F-4159-B940-B7B1ABEC53A3";
paths = (
{
closed = 1;
nodes = (
"364 -12 OFFCURVE",
"457 52 OFFCURVE",
"457 161 CURVE SMOOTH",
"457 240 OFFCURVE",
"413 280 OFFCURVE",
"347 294 CURVE SMOOTH",
"235 318 LINE SMOOTH",
"218 322 OFFCURVE",
"210 330 OFFCURVE",
"210 342 CURVE SMOOTH",
"210 359 OFFCURVE",
"230 373 OFFCURVE",
"271 373 CURVE SMOOTH",
"318 373 OFFCURVE",
"382 354 OFFCURVE",
"425 327 CURVE",
"480 448 LINE",
"414 493 OFFCURVE",
"340 506 OFFCURVE",
"278 506 CURVE SMOOTH",
"138 506 OFFCURVE",
"35 438 OFFCURVE",
"35 334 CURVE SMOOTH",
"35 254 OFFCURVE",
"82 215 OFFCURVE",
"144 202 CURVE SMOOTH",
"255 178 LINE SMOOTH",
"273 174 OFFCURVE",
"281 165 OFFCURVE",
"281 151 CURVE SMOOTH",
"281 134 OFFCURVE",
"267 121 OFFCURVE",
"223 121 CURVE SMOOTH",
"163 121 OFFCURVE",
"87 142 OFFCURVE",
"39 172 CURVE",
"-13 49 LINE",
"47 8 OFFCURVE",
"133 -12 OFFCURVE",
"216 -12 CURVE SMOOTH"
);
}
);
width = 486;
}
);
leftKerningGroup = s;
rightKerningGroup = s;
unicode = 0073;
userData = {
anchors = (
);
b = {
};
com.typemytype.robofont.layerData = {
b = {
anchors = (
);
components = (
);
contours = (
);
lib = {
};
name = s;
unicodes = (
);
width = 1007;
};
};
components = (
);
contours = (
);
lib = {
};
name = s;
unicodes = (
);
width = 1006.76001;
};
},
